<svg width="48" height="48" viewBox="0 0 48 48" fill="none" xmlns="http://www.w3.org/2000/svg">
<path d="M26.0933 43.0313H21.9527C21.435 43.0313 21.0152 43.451 21.0152 43.9687C21.0152 44.4864 21.435 44.9063 21.9527 44.9063H26.0933C26.611 44.9063 27.0308 44.4864 27.0308 43.9687C27.0308 43.451 26.6111 43.0313 26.0933 43.0313ZM33.6628 7.0616C33.4884 6.88732 33.2466 6.78691 33 6.78691C32.7534 6.78691 32.5116 6.88723 32.3372 7.0616C32.1628 7.23598 32.0626 7.47785 32.0626 7.72441C32.0626 7.97201 32.1628 8.21285 32.3372 8.38723C32.5116 8.56254 32.7534 8.66191 33 8.66191C33.2466 8.66191 33.4884 8.56264 33.6628 8.38723C33.8371 8.21285 33.9374 7.97098 33.9374 7.72441C33.9374 7.47785 33.8372 7.23682 33.6628 7.0616ZM47.0626 14.4364C47.5802 14.4364 48 14.0166 48 13.4989V7.72448C48 7.35848 47.7898 7.04218 47.4838 6.88786C47.4792 6.88532 47.4751 6.8827 47.4701 6.88018L33.4075 0.0932343C33.1501 -0.0310781 32.85 -0.0310781 32.5926 0.0932343L18.53 6.88018C18.206 7.03655 18.0001 7.36466 18.0001 7.72448C18.0001 8.08429 18.206 8.41242 18.53 8.56879L24.0109 11.214V17.0124C24.0109 17.0563 24.0144 17.0998 24.0204 17.1425H23.7599C22.0374 17.1425 20.6359 18.544 20.6359 20.2667C20.6359 21.9892 22.0374 23.3906 23.7599 23.3906H24.0628C24.3476 26.0482 25.7951 28.3624 27.8852 29.8139H19.1516C18.603 29.8139 18.0844 29.9444 17.6251 30.176V16.3404C17.6251 15.4986 18.31 14.8139 19.1516 14.8139H21.5734C22.091 14.8139 22.5109 14.394 22.5109 13.8763C22.5109 13.3586 22.091 12.9389 21.5734 12.9389H19.1516C18.1826 12.9389 17.3077 13.3468 16.6876 13.9991C16.0674 13.3468 15.1926 12.9389 14.2236 12.9389H0.9375C0.419813 12.9389 0 13.3586 0 13.8763V30.7513V34.4089C0 34.9266 0.419813 35.3464 0.9375 35.3464H2.06222V39.9376H0.9375C0.419813 39.9376 0 40.3573 0 40.875V42.5626C0 45.5608 2.43928 48 5.4375 48H42.5626C45.5608 48 48 45.5608 48 42.5626V40.875C48 40.3573 47.5802 39.9376 47.0626 39.9376H45.9372V26.1563C45.9372 25.6386 45.5174 25.2188 44.9998 25.2188C44.4821 25.2188 44.0622 25.6386 44.0622 26.1563V39.9376H3.93722V35.3464H32.4374C32.9552 35.3464 33.375 34.9265 33.375 34.4088V31.4069C37.8358 31.2228 41.4676 27.7732 41.9374 23.3906H42.2402C43.9627 23.3906 45.3642 21.9892 45.3642 20.2667C45.3642 18.544 43.9627 17.1425 42.2402 17.1425H41.9796C41.9856 17.0998 41.9892 17.0564 41.9892 17.0124V11.214L46.125 9.21792V13.4989C46.125 14.0167 46.5448 14.4364 47.0626 14.4364ZM24.0108 21.5158H23.7598C23.0711 21.5158 22.5108 20.9555 22.5108 20.2667C22.5108 19.578 23.0711 19.0176 23.7598 19.0176H24.0108V21.5158ZM1.875 14.8139H14.2235C15.0653 14.8139 15.75 15.4987 15.75 16.3404V30.176C15.2908 29.9443 14.772 29.8139 14.2235 29.8139H1.875V14.8139ZM46.125 41.8126V42.5626C46.125 44.5268 44.5268 46.125 42.5626 46.125H5.4375C3.47316 46.125 1.875 44.5268 1.875 42.5626V41.8126H46.125ZM1.875 33.4714V31.6889H14.2235C15.0653 31.6889 15.75 32.3737 15.75 33.2154C15.75 33.3042 15.7632 33.39 15.7862 33.4714H1.875ZM41.9892 19.0175H42.2402C42.9289 19.0175 43.4892 19.578 43.4892 20.2667C43.4892 20.9554 42.9289 21.5156 42.2402 21.5156H41.9892V19.0175ZM31.5 33.4715H17.5888C17.6119 33.3901 17.625 33.3042 17.625 33.2155C17.625 32.3737 18.3098 31.689 19.1515 31.689H31.5V33.4715ZM40.1141 22.4261C40.1142 26.349 36.9228 29.5404 33 29.5404C29.0772 29.5404 25.8858 26.349 25.8858 22.4261V18.4492L32.6224 21.413C32.7426 21.4658 32.8712 21.4924 32.9999 21.4924C33.1285 21.4924 33.2572 21.466 33.3774 21.413L40.1141 18.4492V22.4261ZM40.1142 16.4008L33 19.5306L25.8858 16.4006V12.1189L32.5925 15.3557C32.7212 15.4178 32.8606 15.4489 33 15.4489C33.1394 15.4489 33.2788 15.4178 33.4075 15.3557L40.1142 12.1189V16.4008ZM35.6368 8.66198H42.9631L33 13.4705L21.0944 7.72458L33 1.97855L42.9631 6.78698H35.6368C35.1191 6.78698 34.6992 7.20679 34.6992 7.72448C34.6992 8.24226 35.1191 8.66198 35.6368 8.66198ZM47.7252 17.0173C47.551 16.843 47.309 16.7425 47.0626 16.7425C46.816 16.7425 46.574 16.8428 46.3997 17.0173C46.2253 17.1917 46.125 17.4335 46.125 17.6801C46.125 17.9267 46.2252 18.1685 46.3997 18.3428C46.574 18.5172 46.816 18.6175 47.0626 18.6175C47.309 18.6175 47.551 18.5173 47.7252 18.3428C47.8996 18.1685 48 17.9267 48 17.6801C48 17.4335 47.8997 17.1917 47.7252 17.0173ZM12.5515 23.8997C12.3762 23.7253 12.1352 23.625 11.8887 23.625C11.6421 23.625 11.4002 23.7252 11.226 23.8997C11.0506 24.075 10.9512 24.316 10.9512 24.5626C10.9512 24.809 11.0506 25.051 11.226 25.2252C11.4002 25.4005 11.6413 25.5 11.8887 25.5C12.1352 25.5 12.3772 25.4005 12.5515 25.2252C12.7259 25.051 12.8262 24.8099 12.8262 24.5626C12.8262 24.316 12.726 24.074 12.5515 23.8997ZM8.34374 23.6268H5.34374C4.82606 23.6268 4.40626 24.0466 4.40626 24.5642C4.40626 25.0819 4.82606 25.5018 5.34374 25.5018H8.34374C8.86144 25.5018 9.28126 25.0819 9.28126 24.5642C9.28126 24.0466 8.86153 23.6268 8.34374 23.6268ZM11.8882 19.1262H5.34374C4.82606 19.1262 4.40626 19.546 4.40626 20.0636C4.40626 20.5813 4.82606 21.0012 5.34374 21.0012H11.8882C12.4058 21.0012 12.8256 20.5813 12.8256 20.0636C12.8256 19.546 12.4058 19.1262 11.8882 19.1262Z" fill="#367FD3"/>
</svg>
