<svg width="49" height="48" viewBox="0 0 49 48" fill="none" xmlns="http://www.w3.org/2000/svg">
<g clip-path="url(#clip0_5254_6290)">
<path d="M37.4362 31.0313C36.9185 31.0313 36.4986 31.4509 36.4986 31.9687V46.125H2.37598V1.875H25.3909V12.0454C25.3909 12.5632 25.8108 12.9829 26.3285 12.9829H36.4985V23.6562C36.4985 24.174 36.9184 24.5938 37.436 24.5938C37.9537 24.5938 38.3735 24.174 38.3735 23.6562V12.0454C38.3735 12.0418 38.3718 12.0382 38.3716 12.0344C38.3687 11.7944 38.2756 11.5591 38.099 11.3825L26.9914 0.274781C26.815 0.0983437 26.58 0.00525 26.3402 0.00215626C26.3362 0.00140624 26.3323 0 26.3281 0H1.43848C0.920789 0 0.500977 0.419719 0.500977 0.9375V47.0626C0.500977 47.5802 0.920789 48 1.43848 48H37.4362C37.9538 48 38.3736 47.5802 38.3736 47.0626V31.9687C38.3736 31.4509 37.9538 31.0313 37.4362 31.0313ZM27.2659 3.2011L35.1727 11.1079H27.2659V3.2011ZM30.6872 32.4374H8.1873C7.66961 32.4374 7.2498 32.8572 7.2498 33.375C7.2498 33.8928 7.66961 34.3126 8.1873 34.3126H30.6872C31.205 34.3126 31.6248 33.8928 31.6248 33.375C31.6248 32.8572 31.205 32.4374 30.6872 32.4374ZM30.6872 26.8126H8.1873C7.66961 26.8126 7.2498 27.2322 7.2498 27.75C7.2498 28.2678 7.66961 28.6874 8.1873 28.6874H30.6872C31.205 28.6874 31.6248 28.2678 31.6248 27.75C31.6248 27.2322 31.205 26.8126 30.6872 26.8126ZM30.6872 38.0626H8.1873C7.66961 38.0626 7.2498 38.4822 7.2498 39C7.2498 39.5178 7.66961 39.9374 8.1873 39.9374H30.6872C31.205 39.9374 31.6248 39.5178 31.6248 39C31.6248 38.4822 31.205 38.0626 30.6872 38.0626ZM30.6872 21.1874H8.1873C7.66961 21.1874 7.2498 21.6072 7.2498 22.125C7.2498 22.6428 7.66961 23.0626 8.1873 23.0626H30.6872C31.205 23.0626 31.6248 22.6428 31.6248 22.125C31.6248 21.6072 31.205 21.1874 30.6872 21.1874ZM30.6872 15.5626H8.1873C7.66961 15.5626 7.2498 15.9822 7.2498 16.5C7.2498 17.0178 7.66961 17.4374 8.1873 17.4374H30.6872C31.205 17.4374 31.6248 17.0178 31.6248 16.5C31.6248 15.9822 31.205 15.5626 30.6872 15.5626ZM13.6531 9.9375H8.1873C7.66961 9.9375 7.2498 10.3572 7.2498 10.875C7.2498 11.3928 7.66961 11.8125 8.1873 11.8125H13.6531C14.1708 11.8125 14.5906 11.3928 14.5906 10.875C14.5906 10.3572 14.1708 9.9375 13.6531 9.9375ZM17.3285 9.9375H17.3138C16.7962 9.9375 16.3764 10.3572 16.3764 10.875C16.3764 11.3928 16.7962 11.8125 17.3138 11.8125H17.3285C17.8462 11.8125 18.266 11.3928 18.266 10.875C18.266 10.3572 17.8462 9.9375 17.3285 9.9375ZM38.0988 27.0872C37.9246 26.9128 37.6826 26.8126 37.4362 26.8126C37.1896 26.8126 36.9476 26.9128 36.7733 27.0872C36.5989 27.2616 36.4986 27.5034 36.4986 27.75C36.4986 27.9966 36.5988 28.2384 36.7733 28.4128C36.9478 28.5872 37.1896 28.6874 37.4362 28.6874C37.6826 28.6874 37.9246 28.5872 38.0988 28.4128C38.2733 28.2384 38.3736 27.9966 38.3736 27.75C38.3736 27.5034 38.2733 27.2616 38.0988 27.0872ZM48.4096 6.95024C48.4093 6.95044 48.4098 6.95006 48.4096 6.95024L45.4103 0.540094C45.256 0.210563 44.925 0 44.5612 0C44.1973 0 43.8662 0.210563 43.712 0.540094L40.712 6.94978C40.7119 6.9496 40.7123 6.94997 40.712 6.94978C40.6555 7.07044 40.6236 7.20516 40.6236 7.34719V45.8124C40.6236 47.0186 41.605 47.9999 42.8111 47.9999H46.3111C47.5174 47.9999 48.4986 47.0186 48.4986 45.8124V7.34719C48.4986 7.20516 48.4661 7.0709 48.4096 6.95024ZM44.5612 3.14906L46.0873 6.40969H43.035L44.5612 3.14906ZM46.6236 45.8125C46.6236 45.9847 46.4834 46.125 46.3111 46.125H42.8111C42.6388 46.125 42.4986 45.9847 42.4986 45.8125V42.2706H46.6236V45.8125ZM46.6236 40.3956H42.4986V8.28469H46.6236V40.3956Z" fill="#367FD3"/>
</g>
<defs>
<clipPath id="clip0_5254_6290">
<rect width="48" height="48" fill="white" transform="translate(0.5)"/>
</clipPath>
</defs>
</svg>
