<svg width="49" height="48" viewBox="0 0 49 48" fill="none" xmlns="http://www.w3.org/2000/svg">
<g clip-path="url(#clip0_5254_6298)">
<path d="M47.5626 41.4376H46.625V11.4377C46.625 9.88687 45.3633 8.62518 43.8126 8.62518H31.905C30.0777 6.6014 27.435 5.32734 24.5 5.32734C21.565 5.32734 18.9222 6.6014 17.0949 8.62518H15.5001C14.9823 8.62518 14.5626 9.0449 14.5626 9.56268C14.5626 10.0805 14.9823 10.5002 15.5001 10.5002H15.758C15.4317 11.0914 15.1636 11.7189 14.9617 12.3751H4.25008V11.4376C4.25008 10.9206 4.67065 10.5001 5.18758 10.5001H7.06268C7.58046 10.5001 8.00017 10.0804 8.00017 9.56258C8.00017 9.04481 7.58046 8.62508 7.06268 8.62508H5.18749C3.63668 8.62508 2.375 9.88678 2.375 11.4376V41.4374H1.4375C0.919718 41.4374 0.5 41.8572 0.5 42.3749V45.1874C0.5 46.7382 1.76168 47.9999 3.3125 47.9999H45.6876C47.2384 47.9999 48.5 46.7382 48.5 45.1874V42.3749C48.5 41.8572 48.0802 41.4376 47.5626 41.4376ZM39.1248 41.4376V39.5624H44.75V41.4376H39.1248ZM43.8126 10.5002C44.3294 10.5002 44.75 10.9207 44.75 11.4377V12.3752H34.0382C33.8362 11.7189 33.5682 11.0915 33.2419 10.5003L43.8126 10.5002ZM24.5 7.20234C28.9676 7.20234 32.6023 10.8371 32.6023 15.3048C32.6023 18.1877 31.0496 20.8769 28.5504 22.3226C28.2607 22.4902 28.0824 22.7995 28.0824 23.1342V25.6672H20.9174V23.1342C20.9174 22.7996 20.739 22.4902 20.4493 22.3226C17.95 20.8768 16.3975 18.1878 16.3975 15.3048C16.3976 10.837 20.0323 7.20234 24.5 7.20234ZM20.9175 27.5422H28.0824V28.8647C28.0824 29.5939 27.4892 30.1872 26.7601 30.1872H22.24C21.5108 30.1872 20.9176 29.5939 20.9176 28.8647L20.9175 27.5422ZM4.25008 14.2502H14.5783C14.5418 14.5968 14.5226 14.9486 14.5226 15.3048C14.5226 18.671 16.2414 21.8225 19.0425 23.6573V28.8647C19.0425 30.6278 20.4769 32.0622 22.2399 32.0622H26.76C28.523 32.0622 29.9574 30.6278 29.9574 28.8647V23.6573C32.7585 21.8225 34.4773 18.671 34.4773 15.3048C34.4773 14.9486 34.4582 14.5968 34.4216 14.2502H44.7499L44.75 37.6874H4.24999L4.25008 14.2502ZM4.24999 39.5624H37.2498V41.4376H30.125C29.6072 41.4376 29.1876 41.8572 29.1876 42.375H19.8124C19.8124 41.8572 19.3928 41.4376 18.875 41.4376H4.24999V39.5624ZM46.625 45.1876C46.625 45.7044 46.2045 46.125 45.6876 46.125H3.3125C2.79555 46.125 2.375 45.7044 2.375 45.1876V43.3126H18.1892C18.5138 43.8726 19.1199 44.25 19.8126 44.25H29.1876C29.8802 44.25 30.4862 43.8726 30.8108 43.3126H46.625V45.1876ZM24.5 3.65072C25.0178 3.65072 25.4376 3.231 25.4376 2.71322V0.9375C25.4376 0.419719 25.0177 0 24.5 0C23.9823 0 23.5626 0.419719 23.5626 0.9375V2.71322C23.5626 3.231 23.9823 3.65072 24.5 3.65072ZM17.3924 4.8691C17.5662 5.16984 17.8813 5.33803 18.2053 5.33803C18.3643 5.33803 18.5256 5.29744 18.6732 5.21231C19.1216 4.95337 19.2752 4.3801 19.0164 3.9316L18.1285 2.39372C17.8696 1.94531 17.2962 1.79166 16.8478 2.0506C16.3994 2.30944 16.2458 2.88281 16.5046 3.33122L17.3924 4.8691ZM30.3267 5.21224C30.4744 5.29756 30.6355 5.33806 30.7945 5.33806C31.1185 5.33806 31.4337 5.16986 31.6074 4.86912L32.4952 3.33124C32.7542 2.88283 32.6006 2.30946 32.1522 2.05062C31.7036 1.79159 31.1304 1.94543 30.8715 2.39374L29.9836 3.93162C29.7247 4.38012 29.8783 4.9534 30.3267 5.21224ZM34.4374 35.8126H41.9378C42.4555 35.8126 42.8752 35.3928 42.8752 34.875C42.8752 34.3572 42.4555 33.9374 41.9378 33.9374H34.4374C33.9198 33.9374 33.5 34.3572 33.5 34.875C33.5 35.3928 33.9198 35.8126 34.4374 35.8126ZM34.4374 32.0626H41.9378C42.4555 32.0626 42.8752 31.6428 42.8752 31.125C42.8752 30.6072 42.4555 30.1874 41.9378 30.1874H34.4374C33.9198 30.1874 33.5 30.6072 33.5 31.125C33.5 31.6428 33.9198 32.0626 34.4374 32.0626ZM38.1876 28.3126H41.9376C42.4552 28.3126 42.8751 27.8928 42.8751 27.375C42.8751 26.8572 42.4552 26.4374 41.9376 26.4374H38.1876C37.6698 26.4374 37.25 26.8572 37.25 27.375C37.25 27.8928 37.6698 28.3126 38.1876 28.3126ZM7.0625 32.062H14.5628C15.0806 32.062 15.5002 31.6422 15.5002 31.1244C15.5002 30.6066 15.0806 30.187 14.5628 30.187H7.0625C6.54472 30.187 6.125 30.6066 6.125 31.1244C6.125 31.6422 6.54472 32.062 7.0625 32.062ZM7.0625 28.312H14.5628C15.0806 28.312 15.5002 27.8922 15.5002 27.3744C15.5002 26.8566 15.0806 26.437 14.5628 26.437H7.0625C6.54472 26.437 6.125 26.8566 6.125 27.3744C6.125 27.8922 6.54472 28.312 7.0625 28.312ZM7.0625 24.562H10.8126C11.3304 24.562 11.7501 24.1422 11.7501 23.6244C11.7501 23.1066 11.3304 22.687 10.8126 22.687H7.0625C6.54472 22.687 6.125 23.1066 6.125 23.6244C6.125 24.1422 6.54472 24.562 7.0625 24.562ZM11.2815 10.5C11.7993 10.5 12.219 10.0803 12.219 9.5625C12.219 9.04472 11.7993 8.625 11.2815 8.625C10.7638 8.625 10.3437 9.04472 10.3437 9.5625C10.3437 10.0803 10.7637 10.5 11.2815 10.5Z" fill="#367FD3"/>
</g>
<defs>
<clipPath id="clip0_5254_6298">
<rect width="48" height="48" fill="white" transform="translate(0.5)"/>
</clipPath>
</defs>
</svg>
