<svg width="49" height="48" viewBox="0 0 49 48" fill="none" xmlns="http://www.w3.org/2000/svg">
<g clip-path="url(#clip0_5254_6304)">
<path d="M44.75 0H28.7187C28.2009 0 27.7813 0.419677 27.7813 0.9375C27.7813 1.45532 28.2009 1.875 28.7187 1.875H44.75C45.7838 1.875 46.625 2.71619 46.625 3.75V30.375H21.0686V25.4696L22.9898 27.4014C24.5359 28.9559 27.0386 29.0412 28.6873 27.5958L31.3969 25.2202C32.026 24.6683 32.4018 23.8722 32.427 23.0354C32.4523 22.1986 32.126 21.3812 31.5309 20.7924C30.4659 19.7374 28.8158 19.616 27.6076 20.5034L26.3318 21.4409L23.3409 18.4424C21.8944 16.9922 20.0568 16.0756 18.0654 15.7907C18.8541 14.881 19.3332 13.6956 19.3332 12.4V11.2921C19.3332 8.43457 17.0084 6.1095 14.1505 6.1095C11.2926 6.1095 8.96752 8.43457 8.96752 11.2921V12.4C8.96752 13.6813 9.43628 14.8546 10.2094 15.7602C8.72107 15.9631 7.34668 16.6417 6.26745 17.7235C4.96228 19.032 4.24561 20.7704 4.25 22.616V30.375H2.375V3.75C2.375 2.71619 3.21619 1.875 4.25 1.875H20.2813C20.7991 1.875 21.2187 1.45532 21.2187 0.9375C21.2187 0.419677 20.7991 0 20.2813 0H4.25C2.18238 0 0.5 1.68238 0.5 3.75V33.75C0.5 35.8176 2.18238 37.5 4.25 37.5H19.8126V41.25H18.125C14.9199 41.25 12.3125 43.8575 12.3125 47.0626C12.3125 47.5804 12.7322 48 13.25 48H35.75C36.2678 48 36.6874 47.5804 36.6874 47.0626C36.6874 43.8575 34.0801 41.25 30.875 41.25H29.1874V37.5H44.75C46.8176 37.5 48.5 35.8176 48.5 33.75V3.75C48.5 1.68238 46.8176 0 44.75 0ZM10.8429 11.2921C10.8429 9.46838 12.3268 7.9845 14.1505 7.9845C15.9746 7.9845 17.4585 9.46838 17.4585 11.2921V12.4C17.4585 14.1284 16.1251 15.5508 14.4332 15.6947H13.8678C12.1759 15.5508 10.8429 14.1284 10.8429 12.4V11.2921ZM6.125 22.6142C6.12207 21.2677 6.64392 20.001 7.59498 19.0477C8.54602 18.0948 9.81128 17.5697 11.1578 17.5697H13.213V20.9773C13.213 21.4951 13.6327 21.9148 14.1505 21.9148C14.6683 21.9148 15.088 21.4951 15.088 20.9773V17.5697H16.7202C18.7208 17.5697 20.6006 18.3497 22.0135 19.7663L25.5738 23.3357C25.9011 23.6642 26.4193 23.7037 26.7925 23.4294L28.718 22.0147C29.178 21.6768 29.8064 21.7232 30.2118 22.1246C30.4418 22.3524 30.5626 22.6556 30.5527 22.9787C30.5432 23.302 30.4036 23.5972 30.1605 23.8106L27.4513 26.1863C26.5449 26.9809 25.1691 26.9338 24.319 26.0794L20.7957 22.5362C20.5281 22.2671 20.1246 22.1862 19.7733 22.3308C19.4224 22.4759 19.1936 22.8179 19.1936 23.1977V30.375H10.2079V25.2832C10.2079 24.7654 9.7882 24.3457 9.27038 24.3457C8.75257 24.3457 8.33288 24.7654 8.33288 25.2832V30.375H6.125V22.6142ZM34.6998 46.125H14.3002C14.7218 44.4049 16.2768 43.125 18.125 43.125H30.875C32.7232 43.125 34.2782 44.4049 34.6998 46.125ZM27.3126 41.25H21.6874V37.5H27.3126V41.25ZM46.625 33.75C46.625 34.7838 45.7838 35.625 44.75 35.625H4.25C3.21619 35.625 2.375 34.7838 2.375 33.75V32.25H46.625V33.75ZM24.5 1.875C24.7465 1.875 24.9885 1.77466 25.1629 1.60034C25.3371 1.42602 25.4374 1.18396 25.4374 0.9375C25.4374 0.69104 25.3371 0.448974 25.1629 0.274658C24.9885 0.100342 24.7465 0 24.5 0C24.2535 0 24.0115 0.100342 23.8371 0.274658C23.6629 0.448974 23.5626 0.69104 23.5626 0.9375C23.5626 1.18396 23.6629 1.42602 23.8371 1.60034C24.0115 1.77466 24.2535 1.875 24.5 1.875ZM24.5 34.875C24.7465 34.875 24.9885 34.7747 25.1629 34.6003C25.3371 34.4261 25.4374 34.1839 25.4374 33.9374C25.4374 33.6911 25.3371 33.4489 25.1629 33.2747C24.9885 33.1003 24.7465 33 24.5 33C24.2535 33 24.0115 33.1003 23.8371 33.2747C23.6629 33.4489 23.5626 33.6911 23.5626 33.9374C23.5626 34.1839 23.6629 34.4261 23.8371 34.6003C24.0115 34.7747 24.2535 34.875 24.5 34.875ZM5.1875 40.875C2.60278 40.875 0.5 42.9778 0.5 45.5626V47.0626C0.5 47.5804 0.919677 48 1.4375 48H8.9375C9.45532 48 9.875 47.5804 9.875 47.0626V45.5626C9.875 42.9778 7.77222 40.875 5.1875 40.875ZM8 46.125H2.375V45.5626C2.375 44.0116 3.6366 42.75 5.1875 42.75C6.7384 42.75 8 44.0116 8 45.5626V46.125ZM28.7024 11.4375H32.1472C32.6652 11.4375 33.0848 11.0178 33.0848 10.5C33.0848 9.98218 32.6652 9.5625 32.1472 9.5625H28.7024C28.1845 9.5625 27.7648 9.98218 27.7648 10.5C27.7648 11.0178 28.1845 11.4375 28.7024 11.4375ZM35.4864 10.5C35.4864 11.0178 35.906 11.4375 36.4238 11.4375H42.4659C42.9837 11.4375 43.4035 11.0178 43.4035 10.5C43.4035 9.98218 42.9837 9.5625 42.4659 9.5625H36.4238C35.906 9.5625 35.4864 9.98218 35.4864 10.5ZM38.2813 5.0625H28.7024C28.1845 5.0625 27.7648 5.48218 27.7648 6C27.7648 6.51782 28.1845 6.9375 28.7024 6.9375H38.2813C38.7992 6.9375 39.2188 6.51782 39.2188 6C39.2188 5.48218 38.7992 5.0625 38.2813 5.0625ZM43.1629 6.66284C43.3371 6.48852 43.4374 6.24646 43.4374 6C43.4374 5.75354 43.3371 5.51148 43.1629 5.33716C42.9885 5.16284 42.7465 5.0625 42.5 5.0625C42.2535 5.0625 42.0115 5.16284 41.8371 5.33716C41.6629 5.51148 41.5626 5.75354 41.5626 6C41.5626 6.24646 41.6629 6.48852 41.8371 6.66284C42.0115 6.83716 42.2535 6.9375 42.5 6.9375C42.7465 6.9375 42.9885 6.83716 43.1629 6.66284ZM28.7024 15.9374H42.4646C42.9824 15.9374 43.402 15.5178 43.402 15C43.402 14.4822 42.9824 14.0626 42.4646 14.0626H28.7024C28.1845 14.0626 27.7648 14.4822 27.7648 15C27.7648 15.5178 28.1845 15.9374 28.7024 15.9374ZM42.4645 18.5626H36.5C35.9822 18.5626 35.5626 18.9822 35.5626 19.5C35.5626 20.0178 35.9822 20.4374 36.5 20.4374H42.4645C42.9823 20.4374 43.4019 20.0178 43.4019 19.5C43.4019 18.9822 42.9823 18.5626 42.4645 18.5626Z" fill="#367FD3"/>
</g>
<defs>
<clipPath id="clip0_5254_6304">
<rect width="48" height="48" fill="white" transform="translate(0.5)"/>
</clipPath>
</defs>
</svg>
