<svg width="49" height="48" viewBox="0 0 49 48" fill="none" xmlns="http://www.w3.org/2000/svg">
<g clip-path="url(#clip0_5254_6300)">
<path d="M30.7171 42.3687H19.2008C18.6831 42.3687 18.2632 42.7886 18.2632 43.3062C18.2632 43.8237 18.6831 44.2436 19.2008 44.2436H30.7171C31.2348 44.2436 31.6544 43.8238 31.6544 43.3062C31.6544 42.7885 31.2348 42.3687 30.7171 42.3687ZM15.6448 42.643C15.4705 42.4687 15.2286 42.3693 14.9821 42.3693C14.7355 42.3693 14.4936 42.4687 14.3182 42.643C14.144 42.8184 14.0445 43.0592 14.0445 43.3069C14.0445 43.5534 14.144 43.7953 14.3182 43.9695C14.4936 44.1439 14.7355 44.2443 14.9821 44.2443C15.2286 44.2443 15.4705 44.144 15.6448 43.9695C15.8192 43.7942 15.9195 43.5534 15.9195 43.3069C15.9194 43.06 15.8192 42.8184 15.6448 42.643ZM10.9127 3.65164C10.7384 3.47736 10.4966 3.37695 10.25 3.37695C10.0034 3.37695 9.76156 3.47727 9.58719 3.65164C9.41281 3.82601 9.3125 4.0679 9.3125 4.31445C9.3125 4.56101 9.41272 4.8029 9.58719 4.97727C9.76156 5.15164 10.0034 5.25195 10.25 5.25195C10.4966 5.25195 10.7384 5.15164 10.9127 4.97727C11.0871 4.8029 11.1875 4.56101 11.1875 4.31445C11.1875 4.0679 11.0872 3.82601 10.9127 3.65164ZM7.16272 3.65164C6.98844 3.47633 6.74656 3.37695 6.5 3.37695C6.25344 3.37695 6.01156 3.47633 5.83719 3.65164C5.66281 3.82601 5.5625 4.0679 5.5625 4.31445C5.5625 4.56101 5.66272 4.8029 5.83719 4.97727C6.01156 5.15164 6.25344 5.25195 6.5 5.25195C6.74656 5.25195 6.98844 5.15164 7.16272 4.97727C7.3371 4.8029 7.4375 4.56101 7.4375 4.31445C7.4375 4.0679 7.33719 3.82601 7.16272 3.65164ZM14.6616 3.65164C14.4873 3.47736 14.2454 3.37695 13.9988 3.37695C13.7523 3.37695 13.5104 3.47727 13.336 3.65164C13.1617 3.82601 13.0614 4.0679 13.0614 4.31445C13.0614 4.56101 13.1616 4.8029 13.336 4.97727C13.5104 5.15164 13.7523 5.25195 13.9988 5.25195C14.2454 5.25195 14.4873 5.15164 14.6616 4.97727C14.8359 4.8029 14.9364 4.56101 14.9364 4.31445C14.9364 4.06695 14.836 3.82601 14.6616 3.65164ZM14.7638 20.0745C15.2815 20.0745 15.7012 19.6548 15.7012 19.1371C15.7012 18.6195 15.2814 18.1996 14.7638 18.1996H10.5311V15.1998H14.7638C15.2815 15.1998 15.7012 14.78 15.7012 14.2624C15.7012 13.7448 15.2814 13.325 14.7638 13.325H9.59366C9.07597 13.325 8.65626 13.7448 8.65626 14.2624V24.012C8.65626 24.5296 9.07606 24.9494 9.59366 24.9494H14.7638C15.2815 24.9494 15.7012 24.5295 15.7012 24.012C15.7012 23.4944 15.2814 23.0745 14.7638 23.0745H10.5311V20.0748L14.7638 20.0745ZM24.5205 13.3128H20.6586C20.1409 13.3128 19.7211 13.7325 19.7211 14.2501V23.9996C19.7211 24.5173 20.1409 24.937 20.6586 24.937H24.5205C26.6167 24.937 28.3219 23.2318 28.3219 21.1357V17.114C28.3218 15.018 26.6166 13.3128 24.5205 13.3128ZM26.4469 21.1358C26.4469 22.1979 25.5826 23.0623 24.5204 23.0623H21.596V15.1876H24.5204C25.5826 15.1876 26.4469 16.0519 26.4469 17.1141V21.1358ZM39.3672 13.3244C38.8495 13.3244 38.4297 13.7443 38.4297 14.2618V20.8426C38.4297 22.0729 37.4288 23.0738 36.1986 23.0738C34.9683 23.0738 33.9674 22.073 33.9674 20.8426V14.2618C33.9674 13.7442 33.5475 13.3244 33.03 13.3244C32.5124 13.3244 32.0925 13.7443 32.0925 14.2618V20.8426C32.0925 23.1068 33.9345 24.9488 36.1987 24.9488C38.4628 24.9488 40.3047 23.1068 40.3047 20.8426V14.2618C40.3047 13.7443 39.8848 13.3244 39.3672 13.3244ZM48.2258 42.06L43.1656 37L44.7496 35.4162C44.9864 35.1793 45.0789 34.834 44.9923 34.5108C44.9055 34.1871 44.6528 33.9345 44.3293 33.8478L32.2648 30.6152C31.9411 30.5284 31.5961 30.6211 31.3593 30.8578C31.1226 31.0946 31.03 31.44 31.1168 31.7634L34.3494 43.8278C34.436 44.1514 34.6887 44.404 35.0122 44.4908C35.336 44.5777 35.681 44.4848 35.9178 44.2482L37.5016 42.6643L42.5618 47.7243C42.7448 47.9073 42.9848 47.9989 43.2247 47.9989C43.4646 47.9989 43.7044 47.9073 43.8876 47.7243L48.2259 43.386C48.4017 43.21 48.5006 42.9716 48.5006 42.723C48.5006 42.4744 48.4016 42.2359 48.2258 42.06ZM43.2246 45.7354L38.1645 40.6754C37.9814 40.4924 37.7415 40.4008 37.5016 40.4008C37.2616 40.4008 37.0218 40.4924 36.8386 40.6754L35.7402 41.7741L33.3478 32.8462L42.2756 35.2386L41.177 36.3373C40.8109 36.7033 40.8109 37.2969 41.177 37.663L46.237 42.723L43.2246 45.7354ZM29.2846 27.4602L27.393 25.5685C27.0267 25.2025 26.4334 25.2025 26.0672 25.5685C25.7011 25.9346 25.7011 26.5281 26.0672 26.8942L27.9589 28.7859C28.142 28.9689 28.3819 29.0605 28.6218 29.0605C28.8616 29.0605 29.1015 28.9689 29.2846 28.7859C29.6508 28.4199 29.6508 27.8263 29.2846 27.4602ZM34.914 25.8244C34.548 25.4586 33.9546 25.4584 33.5882 25.8244L31.9524 27.4603C31.5862 27.8264 31.5862 28.4198 31.9524 28.7862C32.1354 28.9692 32.3754 29.0607 32.6152 29.0607C32.8551 29.0607 33.095 28.9692 33.2781 28.7862L34.9141 27.1503C35.28 26.7842 35.28 26.1908 34.914 25.8244ZM29.2852 31.4536C28.9191 31.0876 28.3257 31.0876 27.9595 31.4536L25.6371 33.776C25.271 34.1421 25.271 34.7356 25.6371 35.1018C25.8202 35.2848 26.0601 35.3763 26.3001 35.3763C26.5401 35.3763 26.7799 35.2848 26.963 35.1018L29.2854 32.7794C29.6514 32.4133 29.6514 31.8198 29.2852 31.4536ZM21.3202 32.9288C21.146 32.7544 20.905 32.6551 20.6575 32.6551C20.4109 32.6551 20.169 32.7544 19.9947 32.9288C19.8204 33.1032 19.7199 33.345 19.7199 33.5926C19.7199 33.8391 19.8202 34.0801 19.9947 34.2553C20.169 34.4296 20.4109 34.5301 20.6575 34.5301C20.9041 34.5301 21.146 34.4298 21.3202 34.2553C21.4946 34.0801 21.5949 33.8391 21.5949 33.5926C21.5949 33.345 21.4947 33.1032 21.3202 32.9288ZM17.6557 32.6557H9.59366C9.07597 32.6557 8.65626 33.0754 8.65626 33.5931C8.65626 34.1108 9.07606 34.5306 9.59366 34.5306H17.6557C18.1734 34.5306 18.5931 34.1108 18.5931 33.5931C18.5932 33.0754 18.1734 32.6557 17.6557 32.6557ZM20.6584 28.1557H9.59366C9.07597 28.1557 8.65626 28.5754 8.65626 29.0931C8.65626 29.6108 9.07606 30.0306 9.59366 30.0306H20.6584C21.1762 30.0306 21.596 29.6108 21.596 29.0931C21.5959 28.5754 21.1762 28.1557 20.6584 28.1557ZM47.56 0.00195312H1.43741C0.919813 0.00195312 0.5 0.421673 0.5 0.93936V43.3063C0.5 43.824 0.919813 44.2438 1.43741 44.2438H10.5307C11.0484 44.2438 11.4681 43.824 11.4681 43.3063C11.4681 42.7886 11.0483 42.3688 10.5307 42.3688H2.3749V8.6217C2.40584 8.6248 2.43724 8.62648 2.46903 8.62648H36.1231V10.437C36.1231 10.7988 36.3314 11.1284 36.6582 11.2836C36.985 11.4392 37.372 11.3924 37.6525 11.164L40.4354 8.89798L43.2182 11.164C43.3887 11.3028 43.5986 11.3745 43.8104 11.3745C43.947 11.3745 44.0845 11.3447 44.2126 11.2836C44.5394 11.1284 44.7476 10.7988 44.7476 10.437V8.62648H46.6226V34.4377C46.6226 34.9555 47.0424 35.3752 47.56 35.3752C48.0777 35.3752 48.4975 34.9555 48.4975 34.4377V0.93936C48.4975 0.421673 48.0776 0.00195312 47.56 0.00195312ZM36.1231 3.37677H21.3175C20.7998 3.37677 20.38 3.79658 20.38 4.31417C20.38 4.83186 20.7999 5.25167 21.3175 5.25167H36.1231V6.75158H2.46903C2.43724 6.75158 2.40584 6.75327 2.3749 6.75636V1.87677H36.1231V3.37677ZM42.8727 8.46467L41.0272 6.96204C40.6825 6.68136 40.1881 6.68136 39.8434 6.96204L37.9981 8.46467V1.87686H42.8727V8.46467ZM46.6226 6.75158H44.7476V1.87677H46.6226V6.75158Z" fill="#367FD3"/>
</g>
<defs>
<clipPath id="clip0_5254_6300">
<rect width="48" height="48" fill="white" transform="translate(0.5)"/>
</clipPath>
</defs>
</svg>
