<svg width="49" height="48" viewBox="0 0 49 48" fill="none" xmlns="http://www.w3.org/2000/svg">
<g clip-path="url(#clip0_5254_6308)">
<path d="M48.2335 33.83C47.9025 32.8972 47.1689 32.1346 46.2203 31.7381C44.6243 31.071 42.7885 31.5372 41.7559 32.872L37.8419 37.9307C36.8419 39.2231 35.2781 40.0296 33.6036 40.134C33.9243 39.5959 34.1083 38.9749 34.1083 38.3136C34.1083 36.2695 32.3579 34.6064 30.2061 34.6064L25.3476 34.6063C23.6342 32.0987 20.6853 30.5626 17.516 30.5626C15.2754 30.5626 13.121 31.3306 11.4391 32.7011C10.9605 31.6031 9.82092 30.8284 8.49421 30.8284H1.48684C0.941908 30.8284 0.5 31.2482 0.5 31.7659V47.0626C0.5 47.5802 0.941908 48 1.48684 48H31.136C37.4287 48 43.2339 44.7524 46.2861 39.5248L47.9629 36.6527C48.4656 35.7918 48.5642 34.763 48.2335 33.83ZM2.47368 46.125V32.7034H8.49431C9.16289 32.7034 9.70684 33.2201 9.70684 33.8552V44.9731C9.70684 45.6083 9.16289 46.125 8.49431 46.125H2.47368ZM46.2369 35.7432L44.5601 38.6154C41.8557 43.2475 36.7118 46.125 31.136 46.125H11.4401C11.5947 45.7697 11.6804 45.3808 11.6804 44.9731V35.1236C11.7933 35.0154 11.9038 34.9049 12.0095 34.7916C13.4061 33.2954 15.4131 32.4374 17.516 32.4374C20.1701 32.4374 22.6285 33.804 23.9318 36.0037C24.1067 36.2988 24.4355 36.4814 24.7918 36.4814H30.2061C31.2694 36.4814 32.1347 37.3033 32.1347 38.3136C32.1347 39.3238 31.2694 40.1458 30.2061 40.1458H23.7248C23.1799 40.1458 22.738 40.5655 22.738 41.0832C22.738 41.6009 23.1799 42.0208 23.7248 42.0208L33.233 42.0212C35.6709 42.0212 37.9884 40.9072 39.4322 39.041L43.3461 33.9824C43.8269 33.3606 44.6821 33.1436 45.4253 33.4543C45.8736 33.6418 46.2066 33.9876 46.3629 34.4286C46.5192 34.8696 46.4747 35.3364 46.2369 35.7432ZM7.68175 27.9374H41.2457C43.8712 27.9374 46.0073 25.9082 46.0073 23.4139V4.52353C46.0073 2.02931 43.8713 0 41.2457 0H28.1562C27.6112 0 27.1693 0.419813 27.1693 0.9375C27.1693 1.45519 27.6112 1.875 28.1562 1.875H41.2458C42.7831 1.875 44.0337 3.0631 44.0337 4.52353V23.4139C44.0337 24.8744 42.7831 26.0626 41.2458 26.0626H7.68175C6.14453 26.0626 4.89382 24.8744 4.89382 23.4139V4.52353C4.89382 3.0631 6.14453 1.875 7.68175 1.875H19.2746C19.8195 1.875 20.2615 1.45519 20.2615 0.9375C20.2615 0.419813 19.8195 0 19.2746 0H7.68175C5.05615 0 2.92013 2.02931 2.92013 4.52353V23.4139C2.92013 25.9082 5.05615 27.9374 7.68175 27.9374ZM27.9671 12.5414H40.6653C41.2102 12.5414 41.6522 12.1216 41.6522 11.6039V7.8539C41.6522 7.33622 41.2102 6.9164 40.6653 6.9164H27.9671C27.4222 6.9164 26.9803 7.33622 26.9803 7.8539V11.6039C26.9803 12.1217 27.4222 12.5414 27.9671 12.5414ZM28.954 8.7914H39.6785V10.6664H28.954V8.7914ZM27.9671 16.952H40.6653C41.2102 16.952 41.6522 16.5323 41.6522 16.0146C41.6522 15.4969 41.2102 15.077 40.6653 15.077H27.9671C27.4222 15.077 26.9803 15.4969 26.9803 16.0146C26.9803 16.5323 27.4222 16.952 27.9671 16.952ZM27.9671 21.3628H31.0188C31.5637 21.3628 32.0057 20.943 32.0057 20.4253C32.0057 19.9076 31.5637 19.4878 31.0188 19.4878H27.9671C27.4222 19.4878 26.9803 19.9076 26.9803 20.4253C26.9803 20.943 27.4222 21.3628 27.9671 21.3628ZM20.1218 10.2704V9.03834C20.1218 6.846 18.2445 5.0625 15.9367 5.0625C13.629 5.0625 11.7515 6.846 11.7515 9.03834V10.2704C11.7515 11.1761 12.0726 12.0116 12.6114 12.6808C9.51905 13.5749 7.26224 16.3088 7.26224 19.5349V20.4253C7.26224 20.943 7.70414 21.3628 8.24908 21.3628H23.6241C24.1691 21.3628 24.611 20.943 24.611 20.4253V19.5349C24.611 16.3087 22.3543 13.5749 19.2618 12.6808C19.8007 12.0115 20.1218 11.1761 20.1218 10.2704ZM13.7251 9.03834C13.7251 7.87997 14.7172 6.9375 15.9365 6.9375C17.1559 6.9375 18.148 7.87997 18.148 9.03834V10.2704C18.148 11.4288 17.1559 12.3713 15.9365 12.3713C14.7172 12.3713 13.7251 11.4288 13.7251 10.2704V9.03834ZM22.6371 19.4878H9.23611C9.26285 16.5931 11.7499 14.2463 14.8031 14.2463H14.9498V15.4578C14.9498 15.9755 15.3916 16.3952 15.9365 16.3952C16.4815 16.3952 16.9235 15.9755 16.9235 15.4578V14.2463H17.0701C20.1234 14.2463 22.6104 16.5931 22.6371 19.4878ZM23.7152 1.87519C24.2603 1.87519 24.7021 1.45546 24.7021 0.937687C24.7021 0.419921 24.2603 0.0001875 23.7152 0.0001875C23.1703 0.0001875 22.7284 0.419921 22.7284 0.937687C22.7284 1.45546 23.1703 1.87519 23.7152 1.87519Z" fill="#367FD3"/>
</g>
<defs>
<clipPath id="clip0_5254_6308">
<rect width="48" height="48" fill="white" transform="translate(0.5)"/>
</clipPath>
</defs>
</svg>
