<svg width="49" height="48" viewBox="0 0 49 48" fill="none" xmlns="http://www.w3.org/2000/svg">
<g clip-path="url(#clip0_5254_6302)">
<path d="M29.4316 7.05302C28.8387 6.87366 28.1788 7.12128 27.9592 7.60695C27.7396 8.09263 28.0427 8.63203 28.6361 8.81176C33.926 10.4132 37.48 14.5849 37.48 19.1929C37.48 25.2934 31.414 30.2566 23.9579 30.2566C16.5016 30.2566 10.4355 25.2934 10.4355 19.1929C10.4355 14.5852 13.9893 10.4135 19.2787 8.81195C19.8723 8.63221 20.1753 8.09281 19.9557 7.60714C19.736 7.12147 19.0767 6.87328 18.4832 7.0533C12.2987 8.92578 8.14363 13.8043 8.14363 19.1929C8.14363 26.3275 15.2379 32.1317 23.9579 32.1317C32.6779 32.1317 39.772 26.3275 39.772 19.1929C39.772 13.8041 35.6165 8.9255 29.4316 7.05302ZM14.4508 16.8058C14.154 17.5567 14.4676 18.3403 15.2496 18.8021L18.5707 20.764L17.3011 23.9518C17.0024 24.7017 17.3135 25.4857 18.0935 25.9492C18.4831 26.1807 18.9292 26.2964 19.3756 26.2964C19.8229 26.2964 20.2703 26.1802 20.6603 25.9475L23.9739 23.9723L27.2727 25.934C28.0529 26.398 29.0608 26.3977 29.8401 25.9328C30.6197 25.4681 30.9291 24.6835 30.6285 23.9337L29.3577 20.7648L32.6696 18.8001C33.4496 18.3374 33.7615 17.5539 33.4643 16.8041C33.1669 16.0543 32.3524 15.5698 31.3889 15.5698H27.282L26.0216 12.389C25.7241 11.6388 24.91 11.1544 23.9464 11.1544H23.9435C22.9787 11.1555 22.1644 11.6416 21.8691 12.3932L20.6207 15.5698H16.5268C15.5623 15.5697 14.7475 16.0549 14.4508 16.8058ZM21.4559 17.4449C21.9535 17.4449 22.3944 17.182 22.5468 16.7944L23.9464 13.2327L25.3587 16.7965C25.5119 17.1831 25.952 17.4449 26.4488 17.4449H31.0495L27.3356 19.6481C26.9324 19.8874 26.7643 20.3123 26.9195 20.6995L28.3445 24.2533L24.6467 22.0544C24.2444 21.8151 23.6997 21.8155 23.2981 22.055L19.5856 24.268L21.0088 20.6948C21.1632 20.3073 20.9939 19.8827 20.5901 19.6441L16.8673 17.4449H21.4559ZM46.4316 21.3636C47.7439 20.1261 47.7439 18.2595 46.4316 17.022L44.6204 15.314C44.2644 14.9783 44.1193 14.5354 44.2225 14.099L44.7472 11.879C45.1273 10.2704 43.9868 8.65396 42.0939 8.11897L39.4817 7.38071C38.9683 7.23556 38.572 6.91144 38.3948 6.4914L37.4924 4.35423C36.8387 2.8056 34.8632 1.8725 32.8969 2.18331L30.1833 2.61264C29.6504 2.69722 29.1089 2.57852 28.6987 2.28711L26.6112 0.805234C25.0987 -0.268411 22.8175 -0.268411 21.3047 0.805234L19.2171 2.28711C18.8068 2.57842 18.2657 2.69731 17.7323 2.61264L15.0188 2.18331C13.052 1.8725 11.077 2.8057 10.4232 4.35423L9.52084 6.49149C9.34356 6.91153 8.9474 7.23576 8.43391 7.38081L5.82169 8.11907C3.92881 8.65396 2.78824 10.2704 3.16847 11.879L3.6932 14.0991C3.79633 14.5355 3.65137 14.9784 3.29533 15.314L1.48426 17.022C0.171913 18.2595 0.171913 20.126 1.48426 21.3637L3.29533 23.0716C3.65137 23.4074 3.79633 23.8502 3.69332 24.2866L3.16847 26.5066C2.78824 28.1152 3.92892 29.7316 5.82169 30.2666L8.43401 31.0049C8.9474 31.15 9.34356 31.4741 9.52095 31.8941L10.4233 34.0315C11.0772 35.5804 13.0532 36.5133 15.0189 36.2024L15.1799 36.1769L15.1461 47.06C15.1449 47.4128 15.386 47.7361 15.7697 47.8969C16.1536 48.0578 16.6152 48.0286 16.9643 47.8217L24.0044 43.6499L30.9065 47.8168C31.1075 47.938 31.3465 47.9999 31.5869 47.9999C31.7627 47.9999 31.9392 47.9668 32.1021 47.8999C32.4879 47.741 32.7317 47.4181 32.7328 47.0648L32.7663 36.1816L32.8969 36.2024C34.8628 36.5129 36.8387 35.5802 37.4925 34.0316L38.3949 31.8943C38.5723 31.4743 38.9684 31.15 39.4819 31.0051L42.094 30.2667C43.9869 29.7319 45.1276 28.1155 44.7472 26.5067L44.2227 24.2866C44.1195 23.8503 44.2644 23.4074 44.6205 23.0719L46.4316 21.3636ZM30.4465 45.2087L24.6909 41.7339C24.2896 41.4916 23.7424 41.4897 23.3383 41.7291L17.4435 45.2221L17.4727 35.8139L17.732 35.7728C18.2653 35.688 18.8067 35.8071 19.2169 36.0984L21.3045 37.5803C22.0609 38.1171 23.0093 38.3856 23.9579 38.3856C24.9061 38.3856 25.8548 38.1171 26.6111 37.5803L28.6985 36.0984C29.1089 35.8073 29.6499 35.688 30.1835 35.7728L30.4755 35.819L30.4465 45.2087ZM42.8892 21.8428C42.0688 22.6165 41.7347 23.6369 41.9723 24.6424L42.4969 26.8627C42.662 27.5605 42.1671 28.262 41.3457 28.494L38.7335 29.2323C37.5501 29.5667 36.6371 30.3136 36.2284 31.2818L35.3261 33.4191C35.0425 34.0912 34.1856 34.4964 33.3321 34.361L30.6185 33.9317C29.3897 33.7375 28.1424 34.0107 27.1967 34.682L25.1092 36.1639C24.4529 36.6299 23.4631 36.6299 22.8067 36.1639L20.7192 34.682C19.9732 34.1525 19.0396 33.8705 18.0751 33.8705C17.8169 33.8705 17.5567 33.8907 17.2972 33.9317L14.5837 34.361C13.7305 34.4966 12.8734 34.091 12.5897 33.4191L11.6874 31.2818C11.2787 30.3137 10.3656 29.5667 9.18232 29.2323L6.57 28.494C5.74871 28.2619 5.25376 27.5605 5.41879 26.8625L5.94363 24.6424C6.18129 23.6368 5.84703 22.6164 5.02664 21.8427L3.21557 20.1348C2.64615 19.5976 2.64615 18.7879 3.21557 18.2509L5.02675 16.5428C5.84713 15.7691 6.18129 14.7487 5.94363 13.7431L5.41889 11.5229C5.25399 10.825 5.74881 10.1236 6.57012 9.8915L9.18244 9.15324C10.3657 8.81889 11.2787 8.07172 11.6875 7.10365L12.5898 4.9664C12.8736 4.29451 13.7307 3.88919 14.5839 4.02439L17.2973 4.45371C18.5264 4.6478 19.7737 4.37468 20.7193 3.70354L22.8069 2.22167C23.4632 1.75559 24.4531 1.75559 25.1093 2.22167L27.1967 3.70354C28.1424 4.37476 29.3899 4.64817 30.6185 4.45371L33.332 4.02439C34.1847 3.88937 35.0424 4.29432 35.326 4.9664L36.2284 7.10365C36.6369 8.07181 37.5501 8.81889 38.7333 9.15324L41.3456 9.8915C42.1669 10.1237 42.6619 10.825 42.4968 11.5229L41.9723 13.7429C41.7345 14.7487 42.0687 15.769 42.8891 16.5429L44.7003 18.2509C45.2697 18.7879 45.2697 19.5976 44.7003 20.1347L42.8892 21.8428ZM23.9579 8.12919C24.5907 8.12919 25.1037 7.70942 25.1037 7.1916C25.1037 6.67378 24.5907 6.254 23.9579 6.254C23.3249 6.254 22.8119 6.67378 22.8119 7.1916C22.8119 7.70942 23.3249 8.12919 23.9579 8.12919Z" fill="#367FD3"/>
</g>
<defs>
<clipPath id="clip0_5254_6302">
<rect width="48" height="48" fill="white" transform="translate(0.5)"/>
</clipPath>
</defs>
</svg>
