<svg width="49" height="48" viewBox="0 0 49 48" fill="none" xmlns="http://www.w3.org/2000/svg">
<g clip-path="url(#clip0_5254_6306)">
<path d="M31.9348 7.6875H14.9492C14.4315 7.6875 14.0118 8.10722 14.0118 8.625C14.0118 9.14278 14.4314 9.5625 14.9492 9.5625H31.9348C32.4525 9.5625 32.8724 9.14278 32.8724 8.625C32.8724 8.10722 32.4525 7.6875 31.9348 7.6875ZM21.3118 15.9374H14.9492C14.4315 15.9374 14.0118 16.3572 14.0118 16.875C14.0118 17.3928 14.4314 17.8126 14.9492 17.8126H21.3118C21.8295 17.8126 22.2494 17.3928 22.2494 16.875C22.2494 16.3572 21.8295 15.9374 21.3118 15.9374ZM21.3118 24.1874H14.9492C14.4315 24.1874 14.0118 24.6072 14.0118 25.125C14.0118 25.6428 14.4315 26.0626 14.9492 26.0626H21.3118C21.8296 26.0626 22.2494 25.6428 22.2494 25.125C22.2494 24.6072 21.8295 24.1874 21.3118 24.1874ZM35.5618 32.4374H19.0742C18.5565 32.4374 18.1368 32.8572 18.1368 33.375C18.1368 33.8928 18.5564 34.3126 19.0742 34.3126H35.5618C36.0795 34.3126 36.4994 33.8928 36.4994 33.375C36.4994 32.8572 36.0795 32.4374 35.5618 32.4374ZM15.6121 32.7122C15.4376 32.5378 15.1958 32.4374 14.9482 32.4374C14.7018 32.4374 14.4598 32.5378 14.2855 32.7122C14.1111 32.8866 14.0118 33.1284 14.0118 33.375C14.0118 33.6216 14.1111 33.8634 14.2855 34.0378C14.4598 34.2122 14.7018 34.3126 14.9482 34.3126C15.1958 34.3126 15.4376 34.2122 15.6121 34.0378C15.7863 33.8634 15.8868 33.6216 15.8868 33.375C15.8868 33.1284 15.7864 32.8866 15.6121 32.7122ZM41.8502 23.3477C41.676 23.1733 41.434 23.073 41.1874 23.073C40.9408 23.073 40.7 23.1733 40.5247 23.3477C40.3503 23.523 40.25 23.764 40.25 24.0106C40.25 24.2572 40.3502 24.499 40.5247 24.6733C40.7 24.8486 40.9408 24.948 41.1874 24.948C41.434 24.948 41.676 24.8486 41.8502 24.6733C42.0246 24.499 42.125 24.2572 42.125 24.0106C42.125 23.764 42.0247 23.523 41.8502 23.3477ZM47.721 13.3099C48.7597 12.271 48.7597 10.5808 47.7211 9.54206L44.0134 5.83444C43.5103 5.33128 42.8412 5.05416 42.1294 5.05416C42.128 5.05416 42.1266 5.05424 42.125 5.05424V0.9375C42.125 0.419719 41.7052 0 41.1874 0H9.32487C8.80719 0 8.38737 0.419719 8.38737 0.9375V3H5.38737C4.86969 3 4.44987 3.41972 4.44987 3.9375V6H1.4375C0.919813 6 0.5 6.41972 0.5 6.9375V47.0626C0.5 47.5802 0.919813 48 1.4375 48H35.1874C35.7052 48 36.125 47.5802 36.125 47.0626V45H38.1874C38.7052 45 39.125 44.5802 39.125 44.0626V42H41.1874C41.7052 42 42.125 41.5802 42.125 41.0626V27.8437C42.125 27.3259 41.7052 26.9063 41.1874 26.9063C40.6698 26.9063 40.25 27.3259 40.25 27.8437V40.125H10.2624V1.875H40.25V5.83031C40.2486 5.83172 40.2471 5.83303 40.2457 5.83444L25.9096 20.1706C25.7851 20.295 25.7041 20.446 25.6642 20.6051C25.6646 20.6053 25.6639 20.6047 25.6642 20.6051L23.5921 28.8251C23.5116 29.1451 23.605 29.4838 23.8383 29.7172C24.0164 29.8951 24.2557 29.9917 24.5012 29.9917C24.5775 29.9917 24.6544 29.9825 24.7303 29.9634L32.951 27.8921C32.9512 27.8923 32.9508 27.8917 32.951 27.8921C33.1101 27.8522 33.2605 27.7703 33.3849 27.6458L47.721 13.3099ZM34.25 46.125H2.375V7.875H4.44987V44.0626C4.44987 44.5802 4.86969 45 5.38737 45H34.25V46.125ZM37.25 42V43.125H6.32487V4.875H8.38737V41.0626C8.38737 41.5802 8.80719 42 9.32487 42H37.25ZM41.5714 7.16034C41.8792 6.85256 42.38 6.85274 42.6874 7.16034L46.3951 10.868C46.7028 11.1756 46.7028 11.6762 46.3951 11.9839L45.5875 12.7915L40.7638 7.968L41.5714 7.16034ZM25.7937 27.7618L26.1296 26.4289L27.1264 27.4259L25.7937 27.7618ZM29.2381 26.8937C29.2173 26.8679 29.1951 26.8428 29.171 26.8187C29.171 26.8187 26.6812 24.3316 26.662 24.3152L27.078 22.6646L30.8906 26.4774L29.2381 26.8937ZM32.7219 25.6571L30.3676 23.3026L36.4868 17.1834C36.8529 16.8174 36.8529 16.2238 36.4868 15.8575C36.1206 15.4914 35.5272 15.4915 35.1609 15.8575L29.0418 21.9767L27.8984 20.8333L39.4381 9.29381L42.1166 11.9724L40.3915 13.6976C40.0254 14.0638 40.0254 14.6574 40.3915 15.0235C40.5746 15.2066 40.8145 15.2981 41.0544 15.2981C41.2942 15.2981 41.5342 15.2066 41.7172 15.0235L43.4425 13.2984L44.2616 14.1174L32.7219 25.6571Z" fill="#367FD3"/>
</g>
<defs>
<clipPath id="clip0_5254_6306">
<rect width="48" height="48" fill="white" transform="translate(0.5)"/>
</clipPath>
</defs>
</svg>
