<svg width="49" height="48" viewBox="0 0 49 48" fill="none" xmlns="http://www.w3.org/2000/svg">
<g clip-path="url(#clip0_5254_6310)">
<path d="M48.5 24.0006C48.5 22.1902 47.8068 20.4766 46.5481 19.1754C45.454 18.0446 44.9529 16.5026 45.1734 14.9447C45.4269 13.1522 44.9805 11.3584 43.9164 9.89373C42.8522 8.42908 41.2842 7.45023 39.5011 7.13749C37.9514 6.8657 36.6396 5.91265 35.9022 4.5227C35.0536 2.92352 33.6382 1.73468 31.9164 1.17527C30.1946 0.61586 28.3507 0.74561 26.7242 1.54061C25.3107 2.23155 23.6893 2.23155 22.2757 1.54061C20.6493 0.74561 18.8053 0.615673 17.0835 1.17527C15.3618 1.73468 13.9462 2.92352 13.0977 4.5227C12.3603 5.91255 11.0486 6.86561 9.49878 7.13749C7.71556 7.45023 6.1476 8.42908 5.08344 9.89373C4.01928 11.3584 3.57294 13.1522 3.82644 14.9447C4.04684 16.5026 3.54576 18.0446 2.45178 19.1753C1.19319 20.4766 0.5 22.1902 0.5 24.0006C0.5 25.811 1.19319 27.5246 2.45197 28.8257C3.54594 29.9566 4.04703 31.4986 3.82663 33.0564C3.57303 34.849 4.01947 36.6428 5.08363 38.1075C6.14778 39.5721 7.71584 40.5509 9.49897 40.8636C11.0487 41.1354 12.3604 42.0885 13.0978 43.4784C13.9464 45.0777 15.3618 46.2665 17.0836 46.8258C18.8054 47.3853 20.6494 47.2556 22.2758 46.4606C23.6893 45.7696 25.3107 45.7696 26.7243 46.4606C27.6859 46.9306 28.7235 47.1682 29.767 47.1682C30.4885 47.1682 31.2127 47.0547 31.9165 46.826C33.6382 46.2665 35.0538 45.0777 35.9023 43.4786C36.6397 42.0887 37.9514 41.1357 39.5012 40.8638C41.2844 40.551 42.8524 39.5722 43.9166 38.1075C44.9808 36.6429 45.427 34.849 45.1736 33.0566C44.9532 31.4987 45.4543 29.9567 46.5482 28.8258C47.8068 27.5246 48.5 25.8108 48.5 24.0006ZM43.3168 33.319C43.7016 36.0394 41.8832 38.5422 39.1771 39.0168C37.0537 39.3893 35.2563 40.6952 34.2459 42.5997C32.9582 45.0267 30.0159 45.9826 27.5476 44.776C25.6108 43.8293 23.3893 43.8293 21.4522 44.776C18.984 45.9825 16.0418 45.0267 14.7541 42.5997C13.7437 40.6952 11.9463 39.3893 9.82278 39.0168C7.11669 38.5422 5.29831 36.0394 5.68306 33.3191C5.98503 31.1846 5.2985 29.0716 3.79953 27.5222C1.88928 25.5474 1.88928 22.4538 3.79953 20.4791C5.2985 18.9297 5.98503 16.8167 5.68306 14.6822C5.29831 11.9619 7.11669 9.45902 9.82278 8.98436C11.9462 8.61189 13.7436 7.30605 14.7541 5.40161C15.6649 3.68486 17.4036 2.70423 19.2168 2.70423C19.9669 2.70423 20.73 2.87215 21.4522 3.2252C23.389 4.17208 25.6107 4.17208 27.5476 3.2252C30.0159 2.01873 32.9581 2.9747 34.2458 5.40161C35.2562 7.30605 37.0536 8.61189 39.1771 8.98436C41.8832 9.45902 43.7016 11.9619 43.3168 14.6822C43.0149 16.8167 43.7014 18.9297 45.2004 20.4791C47.1106 22.4538 47.1106 25.5474 45.2004 27.5222C43.7014 29.0715 43.0149 31.1844 43.3168 33.319ZM37.4626 15.6729C37.011 15.9258 36.8499 16.4972 37.103 16.949C40.2459 22.559 39.2614 29.6566 34.7089 34.209C31.982 36.936 28.3564 38.4377 24.5 38.4377C20.6436 38.4377 17.018 36.936 14.2912 34.209C11.5643 31.4823 10.0625 27.8567 10.0625 24.0003C10.0625 20.1438 11.5643 16.5183 14.2912 13.7914C18.8438 9.23868 25.9416 8.2543 31.5518 11.3975C32.0036 11.6505 32.5749 11.4896 32.8279 11.0379C33.081 10.5862 32.9199 10.0149 32.4682 9.7618C29.4286 8.05874 25.8415 7.37137 22.3689 7.8268C18.7816 8.29705 15.5299 9.90101 12.9654 12.4655C9.88428 15.5466 8.1875 19.6431 8.1875 24.0003C8.1875 28.3575 9.88428 32.4539 12.9652 35.5349C16.0464 38.616 20.1428 40.3127 24.5 40.3127C28.8572 40.3127 32.9536 38.616 36.0348 35.535C38.5992 32.9705 40.2032 29.7189 40.6735 26.1317C41.1288 22.6588 40.4416 19.0721 38.7387 16.0325C38.4858 15.5807 37.9142 15.4197 37.4626 15.6729ZM12.3125 24.0004C12.3125 30.7206 17.7798 36.1878 24.5 36.1878C31.2202 36.1878 36.6874 30.7206 36.6874 24.0004C36.6874 17.2802 31.2202 11.8129 24.5 11.8129C17.7798 11.8129 12.3125 17.2802 12.3125 24.0004ZM34.8126 24.0004C34.8126 29.6867 30.1863 34.313 24.5 34.313C18.8137 34.313 14.1874 29.6867 14.1874 24.0004C14.1874 18.3141 18.8137 13.6878 24.5 13.6878C30.1863 13.6878 34.8126 18.3141 34.8126 24.0004ZM23.6605 18.0542L22.0814 21.2538L18.5504 21.7668C18.1972 21.8182 17.904 22.0656 17.7936 22.405C17.6833 22.7444 17.7753 23.117 18.0309 23.366L20.5858 25.8566L19.9826 29.3732C19.9222 29.7249 20.0668 30.0803 20.3556 30.2902C20.6444 30.5 21.0271 30.5277 21.3429 30.3615L24.5011 28.7012L27.6592 30.3615C27.7964 30.4336 27.9463 30.4691 28.0954 30.4691C28.2897 30.4691 28.4833 30.4088 28.6466 30.2901C28.9353 30.0803 29.0799 29.7249 29.0196 29.3732L28.4163 25.8564L30.9712 23.3658C31.2268 23.1168 31.3188 22.7442 31.2086 22.4049C31.0983 22.0655 30.8049 21.8182 30.4518 21.7668L26.9208 21.2537L25.3417 18.0542C25.1839 17.7342 24.8581 17.5317 24.5011 17.5317C24.1442 17.5317 23.8184 17.7342 23.6605 18.0542ZM25.4576 22.5256C25.5943 22.8023 25.8582 22.9941 26.1634 23.0385L28.3023 23.3492L26.7547 24.8578C26.5338 25.0732 26.4328 25.3835 26.485 25.6876L26.8504 27.8178L24.9374 26.812C24.8007 26.7402 24.651 26.7044 24.5011 26.7044C24.3513 26.7044 24.2014 26.7402 24.0649 26.812L22.1518 27.8178L22.5172 25.6876C22.5694 25.3835 22.4685 25.0732 22.2476 24.8578L20.7 23.3492L22.8387 23.0385C23.1441 22.9941 23.4081 22.8023 23.5446 22.5256L24.5011 20.5875L25.4576 22.5256ZM35.3726 14.0668C35.6192 14.0668 35.8602 13.9665 36.0355 13.7921C36.2098 13.6168 36.3092 13.3758 36.3092 13.1283C36.3092 12.8818 36.2098 12.6408 36.0355 12.4655C35.8602 12.2912 35.6192 12.1908 35.3726 12.1908C35.1252 12.1908 34.8842 12.2912 34.7089 12.4655C34.5345 12.6408 34.4352 12.8818 34.4352 13.1283C34.4352 13.3758 34.5345 13.6168 34.7089 13.7921C34.8842 13.9665 35.1252 14.0668 35.3726 14.0668Z" fill="#367FD3"/>
</g>
<defs>
<clipPath id="clip0_5254_6310">
<rect width="48" height="48" fill="white" transform="translate(0.5)"/>
</clipPath>
</defs>
</svg>
