<svg width="49" height="48" viewBox="0 0 49 48" fill="none" xmlns="http://www.w3.org/2000/svg">
<g clip-path="url(#clip0_5254_6312)">
<path d="M24.5 32.1701C25.0178 32.1701 25.4374 31.7504 25.4374 31.2326C25.4374 30.7149 25.0178 30.2951 24.5 30.2951C23.9822 30.2951 23.5626 30.7149 23.5626 31.2326C23.5626 31.7504 23.9822 32.1701 24.5 32.1701ZM44.7427 2.71387H4.25731C2.18553 2.71387 0.5 4.3994 0.5 6.47118V32.6984C0.5 34.77 2.18553 36.4556 4.25731 36.4556H19.3363L18.2847 39.6896C16.9545 39.9146 15.938 41.0741 15.938 42.4673C15.938 44.0212 17.2021 45.2854 18.7561 45.2854H30.2438C31.7976 45.2854 33.0618 44.0212 33.0618 42.4673C33.0618 41.0741 32.0452 39.9146 30.715 39.6896L29.6636 36.4556H44.7426C46.8142 36.4556 48.4998 34.77 48.4998 32.6984V6.47118C48.5 4.3994 46.8145 2.71387 44.7427 2.71387ZM31.1833 42.4674C31.1833 42.9854 30.7618 43.4068 30.2439 43.4068H18.7561C18.2383 43.4068 17.8167 42.9854 17.8167 42.4674C17.8167 41.9494 18.2382 41.5281 18.7561 41.5281H30.2439C30.7618 41.5281 31.1833 41.9494 31.1833 42.4674ZM28.7266 39.6494H20.2734L21.3117 36.4556H27.6883L28.7266 39.6494ZM46.6214 32.6984C46.6214 33.7342 45.7786 34.577 44.7427 34.577H4.25731C3.22137 34.577 2.37866 33.7342 2.37866 32.6984V6.47118C2.37866 5.43534 3.22137 4.59253 4.25731 4.59253H44.7426C45.7785 4.59253 46.6213 5.43534 46.6213 6.47118L46.6214 32.6984ZM41.8684 6.99765H7.13272C5.83784 6.99765 4.78437 8.05112 4.78437 9.346V29.8235C4.78437 31.1184 5.83784 32.1719 7.13272 32.1719H20.2899C20.8087 32.1719 21.2294 31.7513 21.2294 31.2326C21.2294 30.7137 20.8088 30.2931 20.2899 30.2931H7.13272C6.87378 30.2931 6.66303 30.0824 6.66303 29.8234V9.346C6.66303 9.08707 6.87378 8.87631 7.13272 8.87631H41.8684C42.1274 8.87631 42.3382 9.08707 42.3382 9.346V29.8235C42.3382 30.0825 42.1274 30.2932 41.8684 30.2932H28.7112C28.1924 30.2932 27.7718 30.7138 27.7718 31.2326C27.7718 31.7514 28.1924 32.1719 28.7112 32.1719H41.8684C43.1632 32.1719 44.2167 31.1186 44.2167 29.8236V9.346C44.2167 8.05112 43.1632 6.99765 41.8684 6.99765ZM19.0593 16.1972V13.082C19.0593 11.7871 18.0058 10.7336 16.7109 10.7336H11.6585C10.3636 10.7336 9.31016 11.7871 9.31016 13.082V16.1972C9.31016 17.492 10.3636 18.5454 11.6585 18.5454H16.7109C18.0058 18.5454 19.0593 17.492 19.0593 16.1972ZM17.1806 16.1972C17.1806 16.4561 16.9699 16.6668 16.7109 16.6668H11.6585C11.3996 16.6668 11.1888 16.4561 11.1888 16.1972V13.082C11.1888 12.823 11.3996 12.6123 11.6585 12.6123H16.7109C16.9699 12.6123 17.1806 12.823 17.1806 13.082V16.1972ZM39.0948 20.4735C39.0078 20.1494 38.7547 19.896 38.4304 19.8093L31.5348 17.9616C31.2104 17.8745 30.8648 17.9674 30.6274 18.2048C30.3902 18.442 30.2974 18.788 30.3844 19.1121L32.232 26.0078C32.319 26.3319 32.572 26.5851 32.8963 26.6721C33.2208 26.7591 33.5662 26.6661 33.8036 26.429L34.335 25.8976L36.8418 28.4043C37.0179 28.5804 37.2568 28.6794 37.506 28.6794C37.7551 28.6794 37.9939 28.5804 38.1702 28.4043L40.8271 25.7474C41.1939 25.3805 41.1939 24.7858 40.8271 24.419L38.3202 21.9123L38.8515 21.3809C39.0889 21.1434 39.1816 20.7976 39.0948 20.4735ZM38.8344 25.0832L37.5061 26.4116L34.9993 23.9048C34.8158 23.7214 34.5754 23.6297 34.3351 23.6297C34.0946 23.6297 33.8542 23.7214 33.6708 23.9048L33.6258 23.95L32.6202 20.1974L36.3728 21.203L36.3277 21.2481C35.9608 21.6149 35.9608 22.2096 36.3277 22.5765L38.8344 25.0832ZM21.3237 13.6998H27.1177C27.6364 13.6998 28.057 13.2792 28.057 12.7605C28.057 12.2416 27.6366 11.8211 27.1177 11.8211H21.3237C20.8051 11.8211 20.3844 12.2416 20.3844 12.7605C20.3844 13.2792 20.8051 13.6998 21.3237 13.6998ZM21.3237 17.4574H27.1177C27.6364 17.4574 28.057 17.0369 28.057 16.518C28.057 15.9993 27.6366 15.5787 27.1177 15.5787H21.3237C20.8051 15.5787 20.3844 15.9993 20.3844 16.518C20.3844 17.0369 20.8051 17.4574 21.3237 17.4574ZM21.3237 22.8364H27.1177C27.6364 22.8364 28.057 22.4158 28.057 21.897C28.057 21.3782 27.6366 20.9576 27.1177 20.9576H21.3237C20.8051 20.9576 20.3844 21.3782 20.3844 21.897C20.3845 22.4158 20.8051 22.8364 21.3237 22.8364ZM28.057 25.6546C28.057 25.1358 27.6366 24.7152 27.1177 24.7152H21.3237C20.8051 24.7152 20.3844 25.1358 20.3844 25.6546C20.3844 26.1734 20.805 26.594 21.3237 26.594H27.1177C27.6366 26.5938 28.057 26.1734 28.057 25.6546ZM10.2781 23.8686C10.2781 26.0224 12.0303 27.7746 14.1841 27.7746C16.3377 27.7746 18.09 26.0224 18.09 23.8686C18.09 21.7149 16.3377 19.9626 14.1841 19.9626C12.0303 19.9626 10.2781 21.715 10.2781 23.8686ZM16.2112 23.8686C16.2112 24.9866 15.3018 25.8959 14.1841 25.8959C13.0663 25.8959 12.1568 24.9864 12.1568 23.8686C12.1568 22.7508 13.0663 21.8414 14.1841 21.8414C15.3018 21.8414 16.2112 22.7508 16.2112 23.8686Z" fill="#367FD3"/>
</g>
<defs>
<clipPath id="clip0_5254_6312">
<rect width="48" height="48" fill="white" transform="translate(0.5)"/>
</clipPath>
</defs>
</svg>
