<svg width="49" height="48" viewBox="0 0 49 48" fill="none" xmlns="http://www.w3.org/2000/svg">
<g clip-path="url(#clip0_5254_6314)">
<path d="M47.5626 28.6874H1.4375C0.919813 28.6874 0.5 29.1072 0.5 29.625V38.0624C0.5 38.5802 0.919813 39 1.4375 39H19.1149C19.5589 39.6372 20.1133 40.1915 20.75 40.6352V47.0624C20.75 47.3874 20.9182 47.6892 21.1946 47.86C21.4711 48.0308 21.8161 48.0463 22.1067 47.901L24.5 46.7044L26.8933 47.901C27.185 48.0468 27.5301 48.0301 27.8054 47.86C28.0818 47.6891 28.25 47.3873 28.25 47.0624V40.6351C28.8872 40.1911 29.4415 39.6368 29.8852 39H47.5626C48.0802 39 48.5 38.5802 48.5 38.0624V29.625C48.5 29.1072 48.0802 28.6874 47.5626 28.6874ZM29.1874 35.25C29.1874 37.8644 27.0654 39.9374 24.5 39.9374C21.8863 39.9374 19.8126 37.8156 19.8126 35.25C19.8126 32.6653 21.9153 30.5624 24.5 30.5624C27.0847 30.5624 29.1874 32.6652 29.1874 35.25ZM2.375 30.5616H19.9135C18.6954 31.7536 17.9374 33.4151 17.9374 35.25C17.9374 35.8877 18.0308 36.5196 18.2109 37.125H2.375V30.5616ZM24.9193 44.8176C24.6554 44.6857 24.3446 44.6857 24.0808 44.8176L22.625 45.5456V41.5391C23.2305 41.7192 23.8623 41.8124 24.5 41.8124C25.1377 41.8124 25.7696 41.7192 26.375 41.5391V45.5455L24.9193 44.8176ZM46.625 37.125H30.7891C30.9692 36.5195 31.0626 35.8877 31.0626 35.25C31.0626 33.4151 30.3046 31.7546 29.0865 30.5624H46.625V37.125ZM24.5 38.0626C26.0508 38.0626 27.3126 36.8008 27.3126 35.25C27.3126 33.6992 26.0508 32.4374 24.5 32.4374C22.9492 32.4374 21.6874 33.6992 21.6874 35.25C21.6874 36.8008 22.9492 38.0626 24.5 38.0626ZM24.5 34.3126C25.017 34.3126 25.4374 34.733 25.4374 35.25C25.4374 35.767 25.017 36.1874 24.5 36.1874C23.983 36.1874 23.5626 35.767 23.5626 35.25C23.5626 34.733 23.983 34.3126 24.5 34.3126ZM47.7129 3.76213L24.6504 0.012128C24.5466 -0.00474701 24.4406 -0.00399701 24.3366 0.0142842L3.149 3.76428C2.72056 3.84013 2.375 4.18466 2.375 4.77368V16.2862C1.14884 18.8172 0.5 21.6317 0.5 24.4424V25.8749C0.5 26.3927 0.919813 26.8124 1.4375 26.8124H5.1875C5.70519 26.8124 6.125 26.3927 6.125 25.8749V24.4424C6.125 21.6317 5.47616 18.8173 4.25 16.286V5.80541L12.3125 7.23238V18.3749C12.3125 18.7786 12.5708 19.1368 12.9536 19.2643C15.3338 20.0575 17.7626 20.6129 20.1729 20.9148C20.6878 20.9792 21.1556 20.614 21.2198 20.1012C21.2842 19.5874 20.9199 19.1188 20.4061 19.0543C18.3334 18.7946 16.2446 18.3372 14.1874 17.6927V7.56425L24.3366 9.3605C24.4376 9.3785 24.5442 9.38 24.6505 9.36275L34.8126 7.7106V17.6927C32.7554 18.3372 30.6666 18.7946 28.5939 19.0543C28.0802 19.1188 27.7159 19.5874 27.7802 20.1012C27.8445 20.6141 28.3123 20.9792 28.8271 20.9148C31.2374 20.6129 33.6662 20.0575 36.0464 19.2643C36.4292 19.1368 36.6874 18.7786 36.6874 18.3749V7.40572L47.7129 5.61275C48.1668 5.53897 48.5 5.1471 48.5 4.68744C48.5 4.22778 48.1666 3.83581 47.7129 3.76213ZM4.25 24.9374H2.375V24.4424C2.375 22.5653 2.6959 20.6857 3.3125 18.9102C3.9291 20.6857 4.25 22.5653 4.25 24.4424V24.9374ZM24.5066 7.48654C24.2134 7.43263 8.7021 4.68922 8.69187 4.68734L24.5066 1.88834L41.7214 4.68744C40.6806 4.85675 25.5022 7.32463 24.5066 7.48654ZM24.5 21.1874C25.0178 21.1874 25.4374 20.7678 25.4374 20.25C25.4374 19.7322 25.0178 19.3126 24.5 19.3126C23.9822 19.3126 23.5626 19.7322 23.5626 20.25C23.5626 20.7678 23.9822 21.1874 24.5 21.1874Z" fill="#367FD3"/>
</g>
<defs>
<clipPath id="clip0_5254_6314">
<rect width="48" height="48" fill="white" transform="translate(0.5)"/>
</clipPath>
</defs>
</svg>
