<svg width="48" height="48" viewBox="0 0 48 48" fill="none" xmlns="http://www.w3.org/2000/svg">
<path d="M7.79076 28.6504C8.38749 28.6504 8.8718 29.0671 8.8718 29.5806C8.8718 30.0941 8.38749 30.5108 7.79076 30.5108C7.19402 30.5108 6.70972 30.0941 6.70972 29.5806C6.70972 29.0671 7.19402 28.6504 7.79076 28.6504Z" fill="#367FD3"/>
<path d="M7.79076 32.3721C8.38749 32.3721 8.8718 32.7888 8.8718 33.3023C8.8718 33.8158 8.38749 34.2325 7.79076 34.2325C7.19402 34.2325 6.70972 33.8158 6.70972 33.3023C6.70972 32.7888 7.19402 32.3721 7.79076 32.3721Z" fill="#367FD3"/>
<path fill-rule="evenodd" clip-rule="evenodd" d="M27.2421 41.8609C27.9585 41.8609 28.5393 41.3611 28.5393 40.7446V34.4191H35.8904C36.6068 34.4191 37.1876 33.9193 37.1876 33.3028C37.1876 32.6863 36.6068 32.1865 35.8904 32.1865H27.2421C26.5256 32.1865 25.9448 32.6863 25.9448 33.3028V40.7446C25.9448 41.3611 26.5256 41.8609 27.2421 41.8609Z" fill="#367FD3"/>
<path fill-rule="evenodd" clip-rule="evenodd" d="M0 40.744C0 41.3604 0.580821 41.8602 1.29725 41.8602H27.2422C27.5862 41.8602 27.9163 41.7426 28.1595 41.5332L36.8078 34.0914C37.0511 33.8821 37.1878 33.5982 37.1878 33.3021V1.11627C37.1878 0.499792 36.607 0 35.8905 0H1.29725C0.580821 0 0 0.499792 0 1.11627V40.744ZM2.5945 39.6277V2.23255H34.5933V32.8397L26.7048 39.6277H2.5945Z" fill="#367FD3"/>
<path fill-rule="evenodd" clip-rule="evenodd" d="M38.0542 47.9986C38.7706 47.9986 39.3515 47.4988 39.3515 46.8823V40.5568H46.7025C47.419 40.5568 47.9998 40.057 47.9998 39.4405C47.9998 38.824 47.419 38.3242 46.7025 38.3242H38.0542C37.3378 38.3242 36.757 38.824 36.757 39.4405V46.8823C36.757 47.4988 37.3378 47.9986 38.0542 47.9986Z" fill="#367FD3"/>
<path fill-rule="evenodd" clip-rule="evenodd" d="M17.5098 19.536C17.8539 19.536 18.1839 19.4184 18.4271 19.209L23.8323 14.5579C24.3389 14.1219 24.3389 13.4152 23.8323 12.9793C23.3256 12.5434 22.5044 12.5434 21.9978 12.9793L17.5098 16.841L16.265 15.77C15.7584 15.334 14.9371 15.334 14.4305 15.77C13.9239 16.2059 13.9239 16.9126 14.4305 17.3485L16.5926 19.209C16.8358 19.4184 17.1658 19.536 17.5098 19.536Z" fill="#367FD3"/>
<path fill-rule="evenodd" clip-rule="evenodd" d="M7.56628 15.628C7.56628 20.8612 12.5112 25.1163 18.5929 25.1163C24.6746 25.1163 29.6195 20.8612 29.6195 15.628C29.6195 10.3947 24.6746 6.13965 18.5929 6.13965C12.5112 6.13965 7.56628 10.3947 7.56628 15.628ZM18.5929 22.8837C13.9441 22.8837 10.1608 19.6282 10.1608 15.628C10.1608 11.6277 13.9441 8.37219 18.5929 8.37219C23.2417 8.37219 27.025 11.6277 27.025 15.628C27.025 19.6282 23.2417 22.8837 18.5929 22.8837Z" fill="#367FD3"/>
<path fill-rule="evenodd" clip-rule="evenodd" d="M10.8123 46.8836C10.8123 47.5001 11.3931 47.9999 12.1095 47.9999H38.0545C38.3985 47.9999 38.7285 47.8823 38.9717 47.6729L47.62 40.2311C47.8634 40.0218 48 39.7378 48 39.4418V7.25592C48 6.63944 47.4192 6.13965 46.7028 6.13965H35.8924C35.176 6.13965 34.5951 6.63944 34.5951 7.25592C34.5951 7.8724 35.176 8.37219 35.8924 8.37219H45.4055V38.9793L37.5171 45.7673H13.4068V40.7441C13.4068 40.1276 12.8259 39.6278 12.1095 39.6278C11.3931 39.6278 10.8123 40.1276 10.8123 40.7441V46.8836Z" fill="#367FD3"/>
<path fill-rule="evenodd" clip-rule="evenodd" d="M10.8123 29.5811C10.8123 30.1976 11.3931 30.6974 12.1095 30.6974H29.4062C30.1226 30.6974 30.7034 30.1976 30.7034 29.5811C30.7034 28.9646 30.1226 28.4648 29.4062 28.4648H12.1095C11.3931 28.4648 10.8123 28.9646 10.8123 29.5811Z" fill="#367FD3"/>
<path fill-rule="evenodd" clip-rule="evenodd" d="M10.8123 33.3028C10.8123 33.9193 11.3931 34.4191 12.1095 34.4191H22.9199C23.6363 34.4191 24.2172 33.9193 24.2172 33.3028C24.2172 32.6863 23.6363 32.1865 22.9199 32.1865H12.1095C11.3931 32.1865 10.8123 32.6863 10.8123 33.3028Z" fill="#367FD3"/>
</svg>
