<svg width="49" height="48" viewBox="0 0 49 48" fill="none" xmlns="http://www.w3.org/2000/svg">
<g clip-path="url(#clip0_5254_6284)">
<path d="M35.3 24.9081C34.94 24.9081 34.58 24.6486 34.46 24.2595C34.34 23.8703 34.46 23.3513 34.7 23.0919C35.06 22.8324 35.42 22.8324 35.78 22.9622C36.14 23.2216 36.26 23.6108 36.26 24C36.02 24.5189 35.66 24.9081 35.3 24.9081ZM32.42 47.8703H4.22C2.18 47.8703 0.5 46.0541 0.5 43.8486V4.02162C0.5 1.81622 2.18 0 4.22 0H32.42C34.46 0 36.14 1.81622 36.14 4.02162V19.3297C36.14 19.8486 35.78 20.3676 35.18 20.3676C34.58 20.3676 34.22 19.9784 34.22 19.3297V4.02162C34.22 2.98378 33.38 2.07568 32.42 2.07568H4.22C3.26 2.07568 2.42 2.98378 2.42 4.02162V43.8486C2.42 44.8865 3.26 45.7946 4.22 45.7946H32.42C33.38 45.7946 34.22 44.8865 34.22 43.8486V28.5405C34.22 28.0216 34.58 27.5027 35.18 27.5027C35.78 27.5027 36.14 27.8919 36.14 28.5405V43.8486C36.14 46.0541 34.46 47.8703 32.42 47.8703ZM30.5 29.4486H18.98C18.5 29.4486 18.02 29.0595 18.02 28.4108C18.02 27.7622 18.38 27.373 18.98 27.373H30.5C30.98 27.373 31.46 27.7622 31.46 28.4108C31.46 29.0595 30.98 29.4486 30.5 29.4486ZM26.42 25.427H18.98C18.5 25.427 18.02 25.0378 18.02 24.3892C18.02 23.8703 18.38 23.3514 18.98 23.3514H26.42C26.9 23.3514 27.38 23.7405 27.38 24.3892C27.38 25.0378 27.02 25.427 26.42 25.427ZM30.5 41.5135H18.98C18.5 41.5135 18.02 41.1243 18.02 40.4757C18.02 39.827 18.38 39.4378 18.98 39.4378H30.5C30.98 39.4378 31.46 39.827 31.46 40.4757C31.46 41.1243 30.98 41.5135 30.5 41.5135ZM26.42 37.4919H18.98C18.5 37.4919 18.02 37.1027 18.02 36.4541C18.02 35.8054 18.38 35.4162 18.98 35.4162H26.42C26.9 35.4162 27.38 35.8054 27.38 36.4541C27.38 36.973 27.02 37.4919 26.42 37.4919ZM30.5 15.4378H18.98C18.5 15.4378 18.02 15.0486 18.02 14.4C18.02 13.8811 18.38 13.3622 18.98 13.3622H30.5C30.98 13.3622 31.46 13.7514 31.46 14.4C31.46 15.0486 30.98 15.4378 30.5 15.4378ZM26.42 11.4162H18.98C18.5 11.4162 18.02 11.027 18.02 10.3784C18.02 9.85946 18.38 9.34054 18.98 9.34054H26.42C26.9 9.34054 27.38 9.72973 27.38 10.3784C27.38 10.8973 27.02 11.4162 26.42 11.4162ZM10.22 39.4378C10.1 39.4378 9.86 39.4378 9.74 39.3081L8.9 38.7892C8.42 38.5297 8.3 37.8811 8.54 37.3622C8.78 36.8432 9.38 36.7135 9.86 36.973L10.1 37.2324L10.82 36.3243C11.18 35.9351 11.78 35.9351 12.14 36.3243C12.5 36.7135 12.5 37.3622 12.14 37.7514L10.82 39.1784C10.7 39.4378 10.46 39.4378 10.22 39.4378ZM10.22 25.427C10.1 25.427 9.86 25.427 9.74 25.2973L8.9 24.7784C8.42 24.5189 8.3 23.8703 8.54 23.3514C8.78 22.8324 9.38 22.7027 9.86 22.9622L10.1 23.2216L10.82 22.4432C11.18 22.0541 11.78 22.0541 12.14 22.4432C12.5 22.8324 12.5 23.4811 12.14 23.8703L10.82 25.2973C10.7 25.2973 10.46 25.427 10.22 25.427ZM10.22 11.4162C10.1 11.4162 9.86 11.4162 9.74 11.2865L8.9 10.7676C8.42 10.5081 8.3 9.85946 8.54 9.34054C8.78 8.82162 9.38 8.69189 9.86 8.95135L10.1 9.08108L10.82 8.3027C11.18 7.91351 11.78 7.91351 12.14 8.3027C12.5 8.69189 12.5 9.34054 12.14 9.72973L10.94 11.1568C10.7 11.2865 10.46 11.4162 10.22 11.4162ZM10.46 43.4595C7.58 43.4595 5.3 40.9946 5.3 37.8811C5.3 34.8973 7.58 32.4324 10.46 32.4324C13.34 32.4324 15.62 34.8973 15.62 38.0108C15.62 40.9946 13.22 43.4595 10.46 43.4595ZM10.46 34.3784C8.66 34.3784 7.22 35.9351 7.22 37.8811C7.22 39.827 8.66 41.5135 10.46 41.5135C12.26 41.5135 13.7 39.9568 13.7 38.0108C13.7 36.0649 12.26 34.3784 10.46 34.3784ZM10.46 29.4486C7.58 29.4486 5.3 26.9838 5.3 23.8703C5.3 20.7568 7.58 18.2919 10.46 18.2919C13.34 18.2919 15.62 20.7568 15.62 23.8703C15.62 26.9838 13.22 29.4486 10.46 29.4486ZM10.46 20.3676C8.66 20.3676 7.22 21.9243 7.22 23.8703C7.22 25.8162 8.66 27.373 10.46 27.373C12.26 27.373 13.7 25.8162 13.7 23.8703C13.7 21.9243 12.26 20.3676 10.46 20.3676ZM10.46 15.4378C7.58 15.4378 5.3 12.973 5.3 9.85946C5.3 6.74595 7.58 4.28108 10.46 4.28108C13.34 4.28108 15.62 6.74595 15.62 9.85946C15.62 12.973 13.22 15.4378 10.46 15.4378ZM10.46 6.35676C8.66 6.35676 7.22 7.91351 7.22 9.85946C7.22 11.8054 8.66 13.3622 10.46 13.3622C12.26 13.3622 13.7 11.8054 13.7 9.85946C13.7 7.91351 12.26 6.35676 10.46 6.35676ZM48.38 39.9568C48.38 39.827 48.5 39.6973 48.5 39.5676V2.46486C48.5 1.16757 47.54 0 46.22 0H40.82C39.62 0 38.54 1.03784 38.54 2.46486V39.5676C38.54 39.6973 38.54 39.827 38.66 39.9568L42.74 47.3513C42.86 47.6108 43.22 47.8703 43.58 47.8703C43.94 47.8703 44.18 47.7405 44.42 47.3513C44.3 47.3513 48.38 39.9568 48.38 39.9568ZM42.62 35.9351L40.46 37.6216V12.3243H42.62V35.9351ZM44.42 12.3243H46.58V37.4919L44.42 35.8054V12.3243ZM46.58 10.3784H40.46V8.43243H46.58V10.3784ZM40.82 39.827L43.58 37.7514L46.34 39.827L45.98 40.6054H41.3L40.82 39.827ZM40.46 2.46486C40.46 2.20541 40.58 2.07568 40.82 2.07568H46.22C46.46 2.07568 46.58 2.20541 46.58 2.46486V6.35676H40.46V2.46486ZM43.58 44.8865L42.38 42.5513H44.9L43.58 44.8865Z" fill="#367FD3"/>
</g>
<defs>
<clipPath id="clip0_5254_6284">
<rect width="48" height="48" fill="white" transform="translate(0.5)"/>
</clipPath>
</defs>
</svg>
