<svg width="49" height="48" viewBox="0 0 49 48" fill="none" xmlns="http://www.w3.org/2000/svg">
<g clip-path="url(#clip0_5254_6292)">
<path d="M43.4333 0H28.7667C28.2333 0 27.7 0.36 27.7 0.96C27.7 1.44 28.1 1.92 28.7667 1.92H43.3C44.6333 1.92 45.5667 2.88 45.5667 3.96V44.04C45.5667 45.24 44.5 46.08 43.3 46.08H4.9C3.56667 46.08 2.63333 45.12 2.63333 44.04V3.96C2.63333 2.76 3.7 1.92 4.9 1.92H19.4333C19.9667 1.92 20.5 1.56 20.5 0.96C20.5 0.36 20.1 0 19.4333 0H4.9C2.5 0 0.5 1.8 0.5 3.96V44.04C0.5 46.2 2.5 48 4.9 48H43.3C45.7 48 47.7 46.2 47.7 44.04V3.96C47.8333 1.8 45.8333 0 43.4333 0ZM30.5 10.08H36.9C37.4333 10.08 37.9667 9.72 37.9667 9.12C37.9667 8.64 37.5667 8.16 36.9 8.16H30.5C29.9667 8.16 29.4333 8.52 29.4333 9.12C29.5667 9.72 29.9667 10.08 30.5 10.08ZM30.5 14.88H42.2333C42.7667 14.88 43.3 14.52 43.3 13.92C43.3 13.32 42.9 12.96 42.2333 12.96H30.5C29.9667 12.96 29.4333 13.32 29.4333 13.92C29.4333 14.52 29.9667 14.88 30.5 14.88ZM30.5 19.68H42.2333C42.7667 19.68 43.3 19.32 43.3 18.72C43.3 18.24 42.9 17.76 42.2333 17.76H30.5C29.9667 17.76 29.4333 18.12 29.4333 18.72C29.5667 19.2 29.9667 19.68 30.5 19.68ZM9.03333 26.28C6.76667 26.28 5.03333 27.96 5.03333 29.88C5.03333 31.92 6.9 33.48 9.03333 33.48C11.1667 33.48 13.0333 31.8 13.0333 29.88C13.0333 27.96 11.3 26.28 9.03333 26.28ZM9.03333 31.68C7.96667 31.68 7.03333 30.84 7.03333 29.88C7.03333 28.92 7.96667 28.08 9.03333 28.08C10.1 28.08 11.0333 28.92 11.0333 29.88C11.0333 30.84 10.1 31.68 9.03333 31.68ZM9.03333 36.72C6.76667 36.72 5.03333 38.4 5.03333 40.32C5.03333 42.36 6.9 43.92 9.03333 43.92C11.1667 43.92 13.0333 42.24 13.0333 40.32C13.0333 38.4 11.3 36.72 9.03333 36.72ZM9.03333 42.12C7.96667 42.12 7.03333 41.28 7.03333 40.32C7.03333 39.36 7.96667 38.52 9.03333 38.52C10.1 38.52 11.0333 39.36 11.0333 40.32C11.0333 41.28 10.1 42.12 9.03333 42.12ZM39.9667 37.44H19.4333C17.5667 37.44 16.1 38.76 16.1 40.44C16.1 42.12 17.5667 43.44 19.4333 43.44H39.9667C41.8333 43.44 43.3 42.12 43.3 40.44C43.3 38.76 41.8333 37.44 39.9667 37.44ZM39.9667 41.52H19.4333C18.7667 41.52 18.2333 41.04 18.2333 40.44C18.2333 39.84 18.7667 39.36 19.4333 39.36H39.9667C40.6333 39.36 41.1667 39.84 41.1667 40.44C41.1667 41.04 40.6333 41.52 39.9667 41.52ZM16.2333 30.12C16.2333 31.8 17.7 33.12 19.5667 33.12H40.1C41.9667 33.12 43.4333 31.8 43.4333 30.12C43.4333 28.44 41.9667 27.12 40.1 27.12H19.4333C17.7 27.12 16.2333 28.44 16.2333 30.12ZM41.1667 30.12C41.1667 30.72 40.6333 31.2 39.9667 31.2H19.4333C18.7667 31.2 18.2333 30.72 18.2333 30.12C18.2333 29.52 18.7667 29.04 19.4333 29.04H39.9667C40.6333 29.04 41.1667 29.52 41.1667 30.12ZM15.9667 4.08C13.0333 4.08 10.2333 5.16 8.23333 6.96C3.96667 10.8 3.96667 17.04 8.23333 21C10.3667 22.92 13.0333 23.88 15.9667 23.88C18.9 23.88 21.7 22.8 23.7 21C27.9667 17.16 27.9667 10.92 23.7 6.96C21.7 5.04 18.9 4.08 15.9667 4.08ZM11.0333 20.64C11.1667 19.2 12.1 18 13.4333 17.28C14.2333 17.64 15.0333 17.88 15.9667 17.88C16.9 17.88 17.7 17.64 18.5 17.28C19.8333 18 20.7667 19.2 20.9 20.64C19.4333 21.48 17.7 21.96 15.9667 21.96C14.2333 21.96 12.5 21.48 11.0333 20.64ZM15.9667 15.96C14.3667 15.96 13.0333 14.76 13.0333 13.32C13.0333 11.88 14.3667 10.68 15.9667 10.68C17.5667 10.68 18.9 11.88 18.9 13.32C18.9 14.76 17.5667 15.96 15.9667 15.96ZM22.7667 19.2C22.3667 17.88 21.4333 16.68 20.1 15.96C20.6333 15.24 21.0333 14.4 21.0333 13.44C21.0333 10.92 18.7667 9 16.1 9C13.3 9 11.1667 11.04 11.1667 13.44C11.1667 14.4 11.4333 15.24 12.1 15.96C10.9 16.8 9.96667 17.88 9.43333 19.2C6.36667 16.08 6.5 11.28 9.83333 8.28C11.5667 6.72 13.7 5.88 16.1 5.88C18.5 5.88 20.7667 6.72 22.3667 8.28C25.5667 11.28 25.7 16.08 22.7667 19.2ZM24.1 1.92C24.6333 1.92 25.1667 1.56 25.1667 0.96C25.1667 0.48 24.6333 0 24.1 0C23.5667 0 23.0333 0.36 23.0333 0.96C23.0333 1.44 23.5667 1.92 24.1 1.92Z" fill="#367FD3"/>
</g>
<defs>
<clipPath id="clip0_5254_6292">
<rect width="48" height="48" fill="white" transform="translate(0.5)"/>
</clipPath>
</defs>
</svg>
