<svg width="49" height="48" viewBox="0 0 49 48" fill="none" xmlns="http://www.w3.org/2000/svg">
<g clip-path="url(#clip0_5254_6294)">
<path d="M27.6239 28.6928C25.9473 28.6928 24.5832 29.9545 24.5832 31.5055C24.5832 33.0564 25.9471 34.3181 27.6239 34.3181C29.3004 34.3181 30.6645 33.0564 30.6645 31.5055C30.6645 29.9545 29.3004 28.6928 27.6239 28.6928ZM27.6239 32.4431C27.065 32.4431 26.6103 32.0225 26.6103 31.5055C26.6103 30.9887 27.065 30.5681 27.6239 30.5681C28.1826 30.5681 28.6373 30.9887 28.6373 31.5055C28.6373 32.0225 28.1826 32.4431 27.6239 32.4431ZM28.4282 3.49853C28.1479 3.0504 27.528 2.8974 27.0434 3.15671L27.029 3.1645C26.5444 3.4238 26.379 3.99737 26.6593 4.4455C26.8473 4.74587 27.1876 4.91358 27.5375 4.91358C27.7098 4.91358 27.8844 4.8729 28.0442 4.7873L28.0587 4.77953C28.5432 4.52021 28.7086 3.94664 28.4282 3.49853ZM45.2985 14.999H44.9704L36.5139 1.45063C35.6488 0.0648251 33.7261 -0.411987 32.2276 0.388263L30.8221 1.13882C30.3374 1.39766 30.1713 1.97104 30.4512 2.41945C30.731 2.86786 31.3508 3.02142 31.8357 2.76257L33.2411 2.01202C33.7715 1.7286 34.4522 1.89745 34.7584 2.38804L36.2316 4.74847L17.0376 14.999H8.9232L24.486 6.68779C24.9708 6.42894 25.1368 5.85557 24.8569 5.40716C24.5771 4.95876 23.9572 4.8051 23.4725 5.06404L4.86915 14.999H3.54064C1.86408 14.999 0.5 16.2607 0.5 17.8117V45.1874C0.5 46.7382 1.86399 48 3.54064 48H45.2985C46.975 48 48.3391 46.7383 48.3391 45.1874V17.8117C48.3393 16.2608 46.9752 14.999 45.2985 14.999ZM42.6297 14.999H33.2664L40.2889 11.2487L42.6297 14.999ZM37.245 6.37241L39.2753 9.62497L29.212 14.9992H21.0916L37.245 6.37241ZM46.3121 32.8121V34.4996C46.3121 35.0166 45.8574 35.4371 45.2985 35.4371H25.326C24.2674 35.4371 23.406 34.6404 23.406 33.6612V29.338C23.406 28.3588 24.2673 27.562 25.326 27.562H45.2985C45.6539 27.562 45.9948 27.5047 46.312 27.4007L46.3121 32.8121ZM46.3121 19.124H34.859C34.2993 19.124 33.8456 19.5437 33.8456 20.0615C33.8456 20.5793 34.2993 20.999 34.859 20.999H46.3121V24.7494C46.3121 25.2664 45.8574 25.6868 45.2985 25.6868H25.326C23.1495 25.6868 21.379 27.3247 21.379 29.3378V33.6611C21.379 35.6743 23.1495 37.3121 25.326 37.3121H45.2985C45.6539 37.3121 45.9948 37.255 46.312 37.1509V45.1873C46.312 45.7043 45.8573 46.1248 45.2985 46.1248H3.54064C2.98179 46.1248 2.52713 45.7043 2.52713 45.1873V43.8751H18.8451C19.4049 43.8751 19.8587 43.4554 19.8587 42.9376C19.8587 42.4198 19.4049 42.0001 18.8451 42.0001H2.52713V17.8117C2.52713 17.2948 2.98179 16.8742 3.54064 16.8742H45.2985C45.8573 16.8742 46.312 17.2948 46.312 17.8117L46.3121 19.124ZM10.2975 30.5094C8.84455 30.5094 7.66229 29.5559 7.66229 28.3837C7.66229 27.2117 8.84445 26.2582 10.2975 26.2582C11.7505 26.2582 12.9328 27.2117 12.9328 28.3837C12.9328 28.9015 13.3865 29.3213 13.9462 29.3213C14.506 29.3213 14.9598 28.9015 14.9598 28.3837C14.9598 26.4766 13.3959 24.8778 11.311 24.4795V24.0467C11.311 23.5289 10.8573 23.1091 10.2975 23.1091C9.73776 23.1091 9.28401 23.5289 9.28401 24.0467V24.4795C7.19911 24.8778 5.63526 26.4767 5.63526 28.3837C5.63526 30.5897 7.72685 32.3844 10.2975 32.3844C11.7505 32.3844 12.9328 33.3378 12.9328 34.51C12.9328 35.6821 11.7506 36.6355 10.2975 36.6355C8.84455 36.6355 7.66229 35.6821 7.66229 34.51C7.66229 33.9922 7.20853 33.5724 6.64877 33.5724C6.08902 33.5724 5.63526 33.9922 5.63526 34.51C5.63526 36.4172 7.19911 38.0159 9.28401 38.4142V38.9644C9.28401 39.4822 9.73776 39.9019 10.2975 39.9019C10.8573 39.9019 11.311 39.4822 11.311 38.9644V38.4142C13.3959 38.0159 14.9598 36.4171 14.9598 34.51C14.9598 32.304 12.8683 30.5094 10.2975 30.5094ZM23.8694 42.2746C23.6809 42.0992 23.4194 41.9999 23.1528 41.9999C22.8863 41.9999 22.6248 42.0992 22.4363 42.2746C22.2478 42.4489 22.1393 42.6899 22.1393 42.9373C22.1393 43.1839 22.2478 43.4257 22.4363 43.6001C22.6248 43.7746 22.8863 43.8749 23.1528 43.8749C23.4194 43.8749 23.6809 43.7746 23.8694 43.6001C24.0579 43.4257 24.1663 43.1839 24.1663 42.9373C24.1663 42.6899 24.0579 42.4489 23.8694 42.2746Z" fill="#367FD3"/>
</g>
<defs>
<clipPath id="clip0_5254_6294">
<rect width="48" height="48" fill="white" transform="translate(0.5)"/>
</clipPath>
</defs>
</svg>
