<svg width="49" height="48" viewBox="0 0 49 48" fill="none" xmlns="http://www.w3.org/2000/svg">
<g clip-path="url(#clip0_5254_6296)">
<path d="M24.5169 47.4631C24.1248 47.4631 23.7674 47.171 23.6352 46.7478C23.5048 46.3303 23.6163 45.8506 23.9104 45.5633C24.2169 45.2639 24.6697 45.2266 25.0115 45.4693C25.3395 45.7021 25.5127 46.1611 25.4365 46.5954C25.3495 47.0927 24.9589 47.4631 24.5169 47.4631ZM38.5008 32.7144H23.8597C23.3419 32.7144 22.9222 32.2318 22.9222 31.6363C22.9222 31.0409 23.3419 30.5581 23.8597 30.5581H38.5008C39.0185 30.5581 39.4382 31.0409 39.4382 31.6363C39.4382 32.2318 39.0184 32.7144 38.5008 32.7144ZM18.9768 40.9693H6.44225C5.92456 40.9693 5.50475 40.4866 5.50475 39.8911V31.6363C5.50475 31.0409 5.92456 30.5581 6.44225 30.5581H18.9768C19.4944 30.5581 19.9142 31.0409 19.9142 31.6363V39.8911C19.9142 40.4866 19.4944 40.9693 18.9768 40.9693ZM7.37975 38.813H18.0392V32.7144H7.37975V38.813ZM48.5 7.83161C48.5 5.63946 46.9531 3.85613 45.0518 3.85613H23.8111L21.2099 0.375403C21.0319 0.137029 20.7722 0 20.4989 0H3.94822C2.04687 0 0.5 1.78333 0.5 3.97548V43.4928C0.5 45.6821 2.04885 47.4632 3.95263 47.4632H20.2619C20.7797 47.4632 21.1995 46.9806 21.1995 46.3852C21.1995 45.7897 20.7797 45.307 20.2619 45.307H3.95263C3.08272 45.307 2.37501 44.4931 2.37501 43.4928V19.701C2.37501 18.3715 3.3155 17.2898 4.47162 17.2898H44.5283C45.6844 17.2898 46.6249 18.3715 46.6249 19.701V43.4927C46.6249 44.493 45.9172 45.307 45.0472 45.307H28.7381C28.2204 45.307 27.8005 45.7896 27.8005 46.385C27.8005 46.9805 28.2204 47.4631 28.7381 47.4631H45.0473C46.9512 47.4631 48.5 45.682 48.5 43.4927V19.701V7.83161ZM6.44225 15.1337V11.0722H42.545V15.1337H6.44225ZM44.5284 15.1337H44.42V9.99412C44.42 9.39866 44.0003 8.91599 43.4825 8.91599H5.50475C4.98706 8.91599 4.56725 9.39866 4.56725 9.99412V15.1337H4.47162C3.70259 15.1337 2.98391 15.3864 2.37501 15.8233V3.97548C2.37501 2.97239 3.08075 2.15626 3.94822 2.15626H20.0685L22.6696 5.63698C22.8477 5.87536 23.1074 6.01238 23.3807 6.01238H45.0517C45.9192 6.01238 46.6249 6.82852 46.6249 7.83161V15.8232C46.0161 15.3864 45.2974 15.1337 44.5284 15.1337Z" fill="#367FD3"/>
</g>
<defs>
<clipPath id="clip0_5254_6296">
<rect width="48" height="48" fill="white" transform="translate(0.5)"/>
</clipPath>
</defs>
</svg>
