<svg width="49" height="48" viewBox="0 0 49 48" fill="none" xmlns="http://www.w3.org/2000/svg">
<g clip-path="url(#clip0_5254_6282)">
<path d="M15.1835 32.2977L7.33231 36.5855V33.1249C7.33231 32.604 6.91006 32.1817 6.38914 32.1817H3.20765C2.75474 32.1817 2.38634 31.8133 2.38634 31.3605V25.7458C2.38634 25.2249 1.96408 24.8026 1.44317 24.8026C0.922256 24.8026 0.5 25.2249 0.5 25.7458V31.3604C0.5 32.8534 1.71461 34.068 3.20765 34.068H5.44597V38.1752C5.44597 38.5081 5.6215 38.8165 5.90785 38.9863C6.05602 39.0742 6.22249 39.1183 6.38914 39.1183C6.54458 39.1183 6.7002 39.08 6.84121 39.0029L14.6936 34.7145V38.7633C14.6936 40.2565 15.9082 41.4711 17.4012 41.4711H33.3513L42.3543 47.8273C42.5166 47.9418 42.707 48 42.8984 48C43.0467 48 43.1956 47.965 43.3322 47.8943C43.645 47.7321 43.8415 47.4092 43.8415 47.0568V41.4711H46.0825C47.5755 41.4711 48.7901 40.2565 48.7901 38.7633V19.0592C48.7901 17.5662 47.5755 16.3516 46.0825 16.3516H43.7682C43.9314 15.5063 44.0179 14.6339 44.0179 13.7416C44.0179 6.16445 37.8537 0 30.2768 0C24.3839 0 19.3462 3.7291 17.3976 8.95113H3.20765C1.71461 8.95113 0.5 10.1658 0.5 11.6589V17.2733C0.5 17.7943 0.922256 18.2165 1.44317 18.2165C1.96408 18.2165 2.38634 17.7943 2.38634 17.2733V11.6589C2.38634 11.206 2.75483 10.8375 3.20765 10.8375H16.8454C16.6431 11.7741 16.5355 12.7455 16.5355 13.7416C16.5355 21.3187 22.6998 27.483 30.2768 27.483C31.1061 27.483 31.9184 27.4093 32.7076 27.2678V31.3604C32.7076 31.8056 32.3315 32.1817 31.8863 32.1817H15.6367C15.5751 32.1806 15.4905 32.1856 15.394 32.2111C15.3053 32.2349 15.2344 32.2687 15.1835 32.2977ZM18.4219 13.7416C18.4219 7.20458 23.74 1.88634 30.2769 1.88634C36.8137 1.88634 42.1318 7.20458 42.1318 13.7416C42.1318 20.2785 36.8137 25.5967 30.2769 25.5967C23.74 25.5967 18.4219 20.2785 18.4219 13.7416ZM46.9039 38.7634C46.9039 39.2087 46.5277 39.5849 46.0826 39.5849H42.8984C42.3775 39.5849 41.9553 40.0072 41.9553 40.5281V45.2365L34.1947 39.7575C34.0356 39.6452 33.8456 39.5848 33.6508 39.5848H17.4013C16.9561 39.5848 16.58 39.2086 16.58 38.7633V34.068H31.8864C33.3794 34.068 34.594 32.8534 34.594 31.3604V26.7875C38.6442 25.4439 41.864 22.2634 43.2618 18.2378H46.0826C46.5354 18.2378 46.9039 18.6064 46.9039 19.0591V38.7634ZM30.2768 3.98102C24.8964 3.98102 20.5191 8.35959 20.5191 13.7416C20.5191 19.1236 24.8964 23.5022 30.2768 23.5022C35.6586 23.5022 40.0372 19.1236 40.0372 13.7416C40.0372 8.35959 35.6586 3.98102 30.2768 3.98102ZM30.2768 21.6159C25.9365 21.6159 22.4054 18.0835 22.4054 13.7416C22.4054 9.3997 25.9365 5.86735 30.2768 5.86735C34.6185 5.86735 38.1508 9.3997 38.1508 13.7416C38.1508 18.0835 34.6185 21.6159 30.2768 21.6159ZM32.7471 12.7984H31.2199V9.51733C31.2199 8.99641 30.7977 8.57416 30.2768 8.57416C29.7559 8.57416 29.3336 8.99641 29.3336 9.51733V13.7416C29.3336 14.2625 29.7559 14.6848 30.2768 14.6848H32.7471C33.268 14.6848 33.6903 14.2625 33.6903 13.7416C33.6903 13.2207 33.268 12.7984 32.7471 12.7984ZM1.44317 22.4515C1.96408 22.4515 2.38634 22.0292 2.38634 21.5083V21.5057C2.38634 20.9848 1.96408 20.5638 1.44317 20.5638C0.922256 20.5638 0.5 20.9874 0.5 21.5083C0.5 22.0292 0.922256 22.4515 1.44317 22.4515Z" fill="#367FD3"/>
</g>
<defs>
<clipPath id="clip0_5254_6282">
<rect width="48" height="48" fill="white" transform="translate(0.5)"/>
</clipPath>
</defs>
</svg>
