<svg width="49" height="48" viewBox="0 0 49 48" fill="none" xmlns="http://www.w3.org/2000/svg">
<g clip-path="url(#clip0_5254_6288)">
<path d="M42.7282 19.1521C42.3274 19.1521 41.9621 18.9037 41.8399 18.5466C41.7214 18.1999 41.8495 17.8099 42.1599 17.5883C42.4617 17.3729 42.8815 17.3519 43.2075 17.5327C43.5369 17.7155 43.7154 18.084 43.6452 18.4361C43.5638 18.845 43.1747 19.1521 42.7282 19.1521ZM24.1273 39.1485C23.9661 39.1485 23.8049 39.1096 23.6606 39.0316L11.0209 33.6692C9.58848 32.8958 8.69873 31.4545 8.69873 29.908V12.3385C8.69873 11.9719 8.94391 11.6445 9.31233 11.5191L23.8079 8.20992C24.0142 8.13963 24.2404 8.13963 24.4466 8.20992L38.9422 11.5191C39.3106 11.6445 39.5558 11.9719 39.5558 12.3385V29.9081C39.5558 31.4546 38.666 32.8958 37.2336 33.6693L24.5939 39.0317C24.4495 39.1096 24.2885 39.1485 24.1273 39.1485ZM10.5646 12.9489V29.908C10.5646 30.8335 11.097 31.696 11.9543 32.1589L24.1273 37.2693L36.3003 32.1589C37.1575 31.6961 37.69 30.8335 37.69 29.908V12.9489L24.1273 9.95742L10.5646 12.9489ZM24.1273 43.5799C23.9661 43.5799 23.8049 43.541 23.6606 43.4631L8.96751 36.9918C6.26975 35.535 4.59382 32.8206 4.59382 29.908V9.65228C4.59382 9.28574 4.83899 8.95834 5.2074 8.83286L23.8079 4.12609C24.0142 4.05579 24.2404 4.05579 24.4466 4.12609L43.0471 8.83286C43.4156 8.95826 43.6607 9.28574 43.6607 9.65228V14.3216C43.6607 14.8033 43.2429 15.1937 42.7277 15.1937C42.2126 15.1937 41.7948 14.8033 41.7948 14.3216V10.2628L24.1273 5.87368L6.45969 10.2628V29.9081C6.45969 32.1998 7.7783 34.3354 9.90082 35.4816L24.1273 41.7007L38.3537 35.4815C40.4762 34.3352 41.7948 32.1997 41.7948 29.908V22.2065C41.7948 21.7248 42.2126 21.3344 42.7277 21.3344C43.2429 21.3344 43.6607 21.7248 43.6607 22.2065V29.908C43.6607 32.8206 41.9847 35.535 39.287 36.9918L24.5939 43.4631C24.4495 43.541 24.2885 43.5799 24.1273 43.5799ZM24.1273 48C23.9661 48 23.8049 47.961 23.6606 47.883L6.92 40.3061C2.95997 38.1677 0.5 34.1834 0.5 29.908V6.97286C0.5 6.60631 0.745175 6.27885 1.11359 6.15344L23.8079 0.052718C24.0142 -0.0175727 24.2404 -0.0175727 24.4466 0.052718L47.141 6.15344C47.5094 6.27885 47.7547 6.60631 47.7547 6.97286V29.908C47.7547 34.1833 45.2946 38.1677 41.3346 40.3061L24.594 47.883C24.4495 47.961 24.2885 48 24.1273 48ZM2.36587 7.5834V29.9081C2.36587 33.5625 4.46852 36.9681 7.85331 38.7959L24.1273 46.1207L40.4012 38.7959C43.786 36.9681 45.8887 33.5624 45.8887 29.908V7.5834L24.1273 1.8003L2.36587 7.5834ZM21.071 27.5835C21.2419 27.7725 21.4872 27.8884 21.7516 27.9048C21.7733 27.9063 21.795 27.907 21.8168 27.907C22.0579 27.907 22.2918 27.8235 22.4718 27.6713L29.5525 21.683C29.9522 21.3449 29.9832 20.7675 29.6215 20.3934C29.2595 20.0197 28.6418 19.9907 28.242 20.3288L21.9102 25.6834L20.1031 23.6853C19.7551 23.3006 19.1386 23.252 18.727 23.5776C18.315 23.9033 18.2636 24.4792 18.6114 24.8643L21.071 27.5835Z" fill="#367FD3"/>
</g>
<defs>
<clipPath id="clip0_5254_6288">
<rect width="48" height="48" fill="white" transform="translate(0.5)"/>
</clipPath>
</defs>
</svg>
