<svg width="49" height="48" viewBox="0 0 49 48" fill="none" xmlns="http://www.w3.org/2000/svg">
<g clip-path="url(#clip0_5254_6286)">
<path d="M46.0385 22.5457H2.95746C1.6024 22.5457 0.5 23.6481 0.5 25.0032V45.5398C0.5 46.8964 1.6024 48 2.95746 48H20.2887C20.8065 48 21.2262 47.5803 21.2262 47.0625C21.2262 46.5448 20.8065 46.125 20.2887 46.125H2.95746C2.63628 46.125 2.37499 45.8625 2.37499 45.5398V25.0032C2.37499 24.682 2.63628 24.4207 2.95746 24.4207H46.0385C46.3612 24.4207 46.6236 24.682 46.6236 25.0032V45.5398C46.6236 45.8571 46.3558 46.125 46.0385 46.125H28.7073C28.1896 46.125 27.7697 46.5448 27.7697 47.0625C27.7697 47.5803 28.1896 48 28.7073 48H46.0385C47.3952 48 48.4986 46.8964 48.4986 45.5398V25.0032C48.4986 23.6481 47.3952 22.5457 46.0385 22.5457ZM43.5698 44.0085C44.0875 44.0085 44.5073 43.5888 44.5073 43.071V27.472C44.5073 26.9542 44.0875 26.5344 43.5698 26.5344H5.42618C4.90839 26.5344 4.48867 26.9542 4.48867 27.472V43.0711C4.48867 43.5889 4.90839 44.0086 5.42618 44.0086L43.5698 44.0085ZM6.36367 33.6446H9.98673V37.0047H6.36367V33.6446ZM11.8617 33.6446H15.4848V37.0047H11.8617V33.6446ZM31.9737 31.7695H28.3533V28.4093H31.9737V31.7695ZM33.8487 28.4094H37.4718V31.7696H33.8487V28.4094ZM22.8553 37.0048V33.6447H26.4783V37.0048H22.8553ZM17.3598 37.0048V33.6447H20.9802V37.0048H17.3598ZM28.3531 33.6446H31.9736V37.0047H28.3531V33.6446ZM26.4782 31.7695H22.8552V28.4093H26.4782V31.7695ZM20.9802 31.7695H17.3598V28.4093H20.9802V31.7695ZM15.4848 31.7695H11.8617V28.4093H15.4848V31.7695ZM15.4848 38.8797V42.1336H11.8617V38.8797H15.4848ZM17.3598 38.8797H31.9737V42.1336H17.3598V38.8797ZM33.8487 38.8797H37.4718V42.1336H33.8487V38.8797ZM39.3467 42.1335V38.8796H42.6323V42.1335H39.3467ZM42.6323 37.0048H33.8487V33.6447H38.4093C38.9269 33.6447 39.3467 33.2249 39.3467 32.7071V28.4094H42.6323V37.0048ZM9.98673 28.4094V31.7696H6.36367V28.4094H9.98673ZM6.36367 38.8797H9.98673V42.1336H6.36367V38.8797ZM45.802 0H3.19662C1.70965 0 0.5 1.20975 0.5 2.69671V13.9403C0.5 15.4273 1.70965 16.637 3.19662 16.637H19.8509L23.856 20.4007C24.0364 20.5703 24.2672 20.655 24.498 20.655C24.7287 20.655 24.9595 20.5703 25.14 20.4007L29.145 16.637H45.802C47.2889 16.637 48.4987 15.4273 48.4987 13.9403V2.69671C48.4986 1.20975 47.2889 0 45.802 0ZM46.6236 13.9403C46.6236 14.3934 46.2551 14.7621 45.8019 14.7621H28.7737C28.535 14.7621 28.3055 14.853 28.1316 15.0164L24.498 18.4312L20.8643 15.0164C20.6906 14.853 20.4609 14.7621 20.2224 14.7621H3.19662C2.74353 14.7621 2.37499 14.3934 2.37499 13.9403V2.69671C2.37499 2.24362 2.74362 1.87499 3.19662 1.87499H45.802C46.2552 1.87499 46.6237 2.24362 46.6237 2.69671L46.6236 13.9403ZM30.8703 9.84052H6.45724C5.93945 9.84052 5.51974 10.2602 5.51974 10.778C5.51974 11.2958 5.93945 11.7155 6.45724 11.7155H30.8703C31.388 11.7155 31.8078 11.2958 31.8078 10.778C31.8078 10.2602 31.388 9.84052 30.8703 9.84052ZM42.802 9.84052H35.8344C35.3167 9.84052 34.8969 10.2602 34.8969 10.778C34.8969 11.2958 35.3167 11.7155 35.8344 11.7155H42.802C43.3196 11.7155 43.7394 11.2958 43.7394 10.778C43.7394 10.2602 43.3196 9.84052 42.802 9.84052ZM6.45724 6.79657H13.4248C13.9426 6.79657 14.3623 6.37685 14.3623 5.85908C14.3623 5.34129 13.9426 4.92158 13.4248 4.92158H6.45724C5.93945 4.92158 5.51974 5.34129 5.51974 5.85908C5.51974 6.37685 5.93945 6.79657 6.45724 6.79657ZM42.802 4.92158H18.3888C17.871 4.92158 17.4512 5.34129 17.4512 5.85908C17.4512 6.37685 17.871 6.79657 18.3888 6.79657H42.8019C43.3195 6.79657 43.7393 6.37685 43.7393 5.85908C43.7393 5.34129 43.3196 4.92158 42.802 4.92158ZM24.4979 46.125C23.9801 46.125 23.5605 46.5447 23.5605 47.0624C23.5605 47.5802 23.9801 48 24.4979 48H24.5033C25.0211 48 25.4381 47.5802 25.4381 47.0624C25.4381 46.5447 25.0158 46.125 24.4979 46.125Z" fill="#367FD3"/>
</g>
<defs>
<clipPath id="clip0_5254_6286">
<rect width="48" height="48" fill="white" transform="translate(0.5)"/>
</clipPath>
</defs>
</svg>
