<svg width="45" height="45" viewBox="0 0 45 45" fill="none" xmlns="http://www.w3.org/2000/svg">
<rect x="0.5" y="0.5" width="44" height="44" rx="22" fill="#C2E3FB"/>
<rect x="0.5" y="0.5" width="44" height="44" rx="22" stroke="#05070F"/>
<path d="M28.4362 23.2917V20.4164C28.4362 17.6669 28.4362 16.2918 27.6247 15.4376C26.8133 14.5834 25.507 14.5834 22.8945 14.5834H20.5195C17.907 14.5834 16.6008 14.5834 15.7893 15.4384C14.9779 16.291 14.9779 17.6661 14.9779 20.4156V24.5829C14.9779 27.3324 14.9779 28.7075 15.7893 29.5617C16.6008 30.4159 17.907 30.4167 20.5195 30.4167H21.707M23.6862 28.8334C23.6862 28.8334 24.4779 28.8334 25.2695 30.4167C25.2695 30.4167 27.7847 26.4584 30.0195 25.6667" stroke="#05070F" stroke-width="1.26667" stroke-linecap="round" stroke-linejoin="round"/>
<path d="M18.5404 14.5834L18.6053 14.9737C18.7636 15.9213 18.8428 16.3955 19.1753 16.6773C19.5062 16.9584 19.9867 16.9584 20.9478 16.9584H22.4654C23.4257 16.9584 23.9063 16.9584 24.2388 16.6773C24.5713 16.3955 24.6504 15.9213 24.808 14.9737L24.8737 14.5834M18.5404 25.6667H21.707M18.5404 21.7084H24.8737" stroke="#05070F" stroke-width="1.26667" stroke-linecap="round" stroke-linejoin="round"/>
</svg>
