<svg width="589" height="719" viewBox="0 0 589 719" fill="none" xmlns="http://www.w3.org/2000/svg">
<g filter="url(#filter0_d_4798_339)">
<mask id="path-1-inside-1_4798_339" fill="white">
<path fill-rule="evenodd" clip-rule="evenodd" d="M313.054 34.534C320.601 33.676 326.058 27.1653 325.243 19.9916L338.009 18.5404C338.824 25.7146 345.604 30.8348 353.151 29.9767C360.699 29.1186 366.156 22.6072 365.341 15.433L378.092 13.9834C378.908 21.1574 385.687 26.2774 393.235 25.4194C400.782 24.5613 406.239 18.0501 405.424 10.8761L418.182 9.42562C418.998 16.5998 425.777 21.7201 433.325 20.862C440.873 20.004 446.33 13.4925 445.514 6.31828L458.265 4.86861C459.081 12.0424 465.861 17.1623 473.408 16.3043C480.955 15.4462 486.413 8.9352 485.598 1.76127L501.09 -1.91423e-05L574.734 647.773L559.257 649.532C558.441 642.359 551.661 637.239 544.114 638.097C536.567 638.955 531.11 645.466 531.925 652.639L519.174 654.089C518.357 646.916 511.578 641.796 504.031 642.654C496.484 643.512 491.027 650.023 491.841 657.196L479.083 658.647C478.267 651.473 471.488 646.354 463.941 647.212C456.393 648.07 450.936 654.581 451.751 661.754L439 663.204C438.183 656.031 431.404 650.911 423.857 651.769C416.31 652.627 410.853 659.138 411.668 666.311L398.903 667.762C398.087 660.589 391.307 655.469 383.76 656.327C376.212 657.185 370.755 663.696 371.57 670.87L358.826 672.319C358.01 665.146 351.231 660.026 343.684 660.884C336.137 661.742 330.68 668.253 331.494 675.426L318.736 676.876C317.92 669.703 311.141 664.583 303.593 665.441C296.046 666.299 290.589 672.81 291.404 679.984L278.646 681.434C277.83 674.261 271.05 669.141 263.503 669.999C255.956 670.857 250.499 677.368 251.314 684.542L238.555 685.992C237.739 678.818 230.96 673.699 223.413 674.557C215.865 675.415 210.408 681.925 211.223 689.099L198.479 690.548C197.662 683.375 190.883 678.256 183.337 679.114C175.79 679.972 170.333 686.482 171.147 693.656L158.382 695.107C157.566 687.933 150.786 682.813 143.239 683.671C135.692 684.529 130.235 691.04 131.05 698.214L118.299 699.664C117.482 692.49 110.703 687.371 103.156 688.229C95.6088 689.087 90.1517 695.597 90.9664 702.771L73.644 704.74L0 56.9679L17.3071 55.0003C18.1229 62.1743 24.9025 67.2943 32.4499 66.4363C39.9974 65.5782 45.4546 59.067 44.6392 51.8929L57.3903 50.4433C58.2065 57.617 64.9859 62.7368 72.5331 61.8787C80.0804 61.0207 85.5375 54.5098 84.7225 47.336L97.4878 45.8847L97.4878 45.885C98.3034 53.0592 105.083 58.1795 112.631 57.3214C120.178 56.4633 125.636 49.9519 124.82 42.7776L124.82 42.7774L137.564 41.3285C138.38 48.5023 145.159 53.6221 152.707 52.7641C160.254 51.906 165.711 45.3951 164.896 38.2212L177.654 36.7707C178.47 43.9445 185.25 49.0643 192.797 48.2063C200.344 47.3482 205.802 40.8373 204.986 33.6634L217.745 32.2129C218.56 39.3871 225.34 44.5072 232.887 43.6492C240.435 42.7911 245.892 36.2798 245.077 29.1056L257.835 27.6552C258.651 34.8294 265.43 39.9497 272.978 39.0916C280.525 38.2335 285.983 31.7221 285.167 24.5478L297.911 23.099C298.727 30.2725 305.507 35.3921 313.054 34.534Z"/>
</mask>
<path fill-rule="evenodd" clip-rule="evenodd" d="M313.054 34.534C320.601 33.676 326.058 27.1653 325.243 19.9916L338.009 18.5404C338.824 25.7146 345.604 30.8348 353.151 29.9767C360.699 29.1186 366.156 22.6072 365.341 15.433L378.092 13.9834C378.908 21.1574 385.687 26.2774 393.235 25.4194C400.782 24.5613 406.239 18.0501 405.424 10.8761L418.182 9.42562C418.998 16.5998 425.777 21.7201 433.325 20.862C440.873 20.004 446.33 13.4925 445.514 6.31828L458.265 4.86861C459.081 12.0424 465.861 17.1623 473.408 16.3043C480.955 15.4462 486.413 8.9352 485.598 1.76127L501.09 -1.91423e-05L574.734 647.773L559.257 649.532C558.441 642.359 551.661 637.239 544.114 638.097C536.567 638.955 531.11 645.466 531.925 652.639L519.174 654.089C518.357 646.916 511.578 641.796 504.031 642.654C496.484 643.512 491.027 650.023 491.841 657.196L479.083 658.647C478.267 651.473 471.488 646.354 463.941 647.212C456.393 648.07 450.936 654.581 451.751 661.754L439 663.204C438.183 656.031 431.404 650.911 423.857 651.769C416.31 652.627 410.853 659.138 411.668 666.311L398.903 667.762C398.087 660.589 391.307 655.469 383.76 656.327C376.212 657.185 370.755 663.696 371.57 670.87L358.826 672.319C358.01 665.146 351.231 660.026 343.684 660.884C336.137 661.742 330.68 668.253 331.494 675.426L318.736 676.876C317.92 669.703 311.141 664.583 303.593 665.441C296.046 666.299 290.589 672.81 291.404 679.984L278.646 681.434C277.83 674.261 271.05 669.141 263.503 669.999C255.956 670.857 250.499 677.368 251.314 684.542L238.555 685.992C237.739 678.818 230.96 673.699 223.413 674.557C215.865 675.415 210.408 681.925 211.223 689.099L198.479 690.548C197.662 683.375 190.883 678.256 183.337 679.114C175.79 679.972 170.333 686.482 171.147 693.656L158.382 695.107C157.566 687.933 150.786 682.813 143.239 683.671C135.692 684.529 130.235 691.04 131.05 698.214L118.299 699.664C117.482 692.49 110.703 687.371 103.156 688.229C95.6088 689.087 90.1517 695.597 90.9664 702.771L73.644 704.74L0 56.9679L17.3071 55.0003C18.1229 62.1743 24.9025 67.2943 32.4499 66.4363C39.9974 65.5782 45.4546 59.067 44.6392 51.8929L57.3903 50.4433C58.2065 57.617 64.9859 62.7368 72.5331 61.8787C80.0804 61.0207 85.5375 54.5098 84.7225 47.336L97.4878 45.8847L97.4878 45.885C98.3034 53.0592 105.083 58.1795 112.631 57.3214C120.178 56.4633 125.636 49.9519 124.82 42.7776L124.82 42.7774L137.564 41.3285C138.38 48.5023 145.159 53.6221 152.707 52.7641C160.254 51.906 165.711 45.3951 164.896 38.2212L177.654 36.7707C178.47 43.9445 185.25 49.0643 192.797 48.2063C200.344 47.3482 205.802 40.8373 204.986 33.6634L217.745 32.2129C218.56 39.3871 225.34 44.5072 232.887 43.6492C240.435 42.7911 245.892 36.2798 245.077 29.1056L257.835 27.6552C258.651 34.8294 265.43 39.9497 272.978 39.0916C280.525 38.2335 285.983 31.7221 285.167 24.5478L297.911 23.099C298.727 30.2725 305.507 35.3921 313.054 34.534Z" fill="white"/>
<path d="M325.243 19.9916L325.128 18.9755L324.112 19.091L324.227 20.107L325.243 19.9916ZM338.009 18.5404L339.025 18.4248L338.909 17.4087L337.893 17.5243L338.009 18.5404ZM365.341 15.433L365.225 14.4169L364.209 14.5324L364.325 15.5485L365.341 15.433ZM378.092 13.9834L379.108 13.8678L378.992 12.8518L377.976 12.9673L378.092 13.9834ZM405.424 10.8761L405.308 9.85994L404.292 9.97545L404.408 10.9915L405.424 10.8761ZM418.182 9.42562L419.198 9.3101L419.083 8.29398L418.067 8.4095L418.182 9.42562ZM445.514 6.31828L445.399 5.30216L444.383 5.41768L444.498 6.4338L445.514 6.31828ZM458.265 4.86861L459.281 4.75303L459.166 3.73698L458.15 3.8525L458.265 4.86861ZM485.598 1.76127L485.482 0.745158L484.466 0.860671L484.581 1.87673L485.598 1.76127ZM501.09 -1.91423e-05L502.106 -0.115539L501.99 -1.13166L500.974 -1.01613L501.09 -1.91423e-05ZM574.734 647.773L574.849 648.789L575.865 648.673L575.75 647.657L574.734 647.773ZM559.257 649.532L558.241 649.648L558.356 650.664L559.372 650.548L559.257 649.532ZM531.925 652.639L532.04 653.656L533.056 653.54L532.941 652.524L531.925 652.639ZM519.174 654.089L518.158 654.205L518.273 655.221L519.289 655.105L519.174 654.089ZM491.841 657.196L491.957 658.213L492.973 658.097L492.858 657.081L491.841 657.196ZM479.083 658.647L478.067 658.762L478.183 659.778L479.199 659.663L479.083 658.647ZM451.751 661.754L451.867 662.77L452.883 662.655L452.767 661.639L451.751 661.754ZM439 663.204L437.984 663.32L438.1 664.335L439.116 664.22L439 663.204ZM411.668 666.311L411.783 667.327L412.799 667.212L412.684 666.196L411.668 666.311ZM398.903 667.762L397.886 667.878L398.002 668.894L399.018 668.779L398.903 667.762ZM371.57 670.87L371.686 671.886L372.702 671.77L372.587 670.754L371.57 670.87ZM358.826 672.319L357.81 672.434L357.926 673.45L358.942 673.335L358.826 672.319ZM331.494 675.426L331.61 676.442L332.626 676.327L332.51 675.311L331.494 675.426ZM318.736 676.876L317.72 676.992L317.836 678.008L318.852 677.893L318.736 676.876ZM291.404 679.984L291.519 681L292.536 680.884L292.42 679.868L291.404 679.984ZM278.646 681.434L277.63 681.55L277.745 682.566L278.761 682.45L278.646 681.434ZM251.314 684.542L251.429 685.558L252.445 685.442L252.33 684.426L251.314 684.542ZM238.555 685.992L237.539 686.108L237.655 687.124L238.671 687.008L238.555 685.992ZM211.223 689.099L211.339 690.115L212.355 690L212.239 688.984L211.223 689.099ZM198.479 690.548L197.463 690.664L197.579 691.68L198.595 691.564L198.479 690.548ZM171.147 693.656L171.263 694.672L172.278 694.556L172.163 693.54L171.147 693.656ZM158.382 695.107L157.366 695.222L157.481 696.238L158.497 696.123L158.382 695.107ZM131.05 698.214L131.165 699.23L132.181 699.115L132.066 698.099L131.05 698.214ZM118.299 699.664L117.282 699.779L117.398 700.795L118.414 700.68L118.299 699.664ZM90.9664 702.771L91.0819 703.787L92.0979 703.672L91.9825 702.656L90.9664 702.771ZM73.644 704.74L72.6279 704.856L72.7434 705.872L73.7595 705.757L73.644 704.74ZM0 56.9679L-0.11552 55.9518L-1.13164 56.0673L-1.01612 57.0834L0 56.9679ZM17.3071 55.0003L18.3232 54.8847L18.2076 53.8687L17.1916 53.9842L17.3071 55.0003ZM44.6392 51.8929L44.5237 50.8768L43.5076 50.9923L43.6231 52.0084L44.6392 51.8929ZM57.3903 50.4433L58.4064 50.3277L58.2909 49.3117L57.2748 49.4272L57.3903 50.4433ZM84.7225 47.336L84.607 46.3198L83.591 46.4354L83.7064 47.4514L84.7225 47.336ZM97.4878 45.8847L98.5039 45.7692L98.3884 44.7531L97.3722 44.8686L97.4878 45.8847ZM124.82 42.7776L125.836 42.6621L124.82 42.7776ZM124.82 42.7774L124.704 41.7612L123.688 41.8768L123.804 42.8929L124.82 42.7774ZM137.564 41.3285L138.58 41.2129L138.464 40.1969L137.448 40.3124L137.564 41.3285ZM164.896 38.2212L164.781 37.2051L163.765 37.3206L163.88 38.3366L164.896 38.2212ZM177.654 36.7707L178.67 36.6551L178.555 35.6391L177.539 35.7546L177.654 36.7707ZM204.986 33.6634L204.871 32.6473L203.855 32.7628L203.97 33.7788L204.986 33.6634ZM217.745 32.2129L218.761 32.0974L218.645 31.0813L217.629 31.1968L217.745 32.2129ZM245.077 29.1056L244.961 28.0895L243.945 28.205L244.061 29.2211L245.077 29.1056ZM257.835 27.6552L258.851 27.5397L258.736 26.5236L257.719 26.6391L257.835 27.6552ZM285.167 24.5478L285.052 23.5317L284.035 23.6473L284.151 24.6634L285.167 24.5478ZM297.911 23.099L298.927 22.9833L298.812 21.9673L297.796 22.0829L297.911 23.099ZM324.227 20.107C324.973 26.6716 319.973 32.7181 312.938 33.5179L313.169 35.5502C321.228 34.6339 327.143 27.659 326.259 19.8762L324.227 20.107ZM337.893 17.5243L325.128 18.9755L325.359 21.0077L338.124 19.5565L337.893 17.5243ZM353.036 28.9606C346 29.7605 339.771 24.9899 339.025 18.4248L336.992 18.6559C337.877 26.4392 345.207 31.9091 353.267 30.9928L353.036 28.9606ZM364.325 15.5485C365.071 22.1136 360.071 28.1607 353.036 28.9606L353.267 30.9928C361.326 30.0766 367.242 23.1009 366.357 15.3175L364.325 15.5485ZM377.976 12.9673L365.225 14.4169L365.456 16.4491L378.207 14.9995L377.976 12.9673ZM393.119 24.4033C386.084 25.2031 379.854 20.4327 379.108 13.8678L377.076 14.0989C377.961 21.8821 385.291 27.3518 393.35 26.4355L393.119 24.4033ZM404.408 10.9915C405.154 17.5565 400.154 23.6034 393.119 24.4033L393.35 26.4355C401.409 25.5192 407.325 18.5438 406.44 10.7606L404.408 10.9915ZM418.067 8.4095L405.308 9.85994L405.539 11.8922L418.298 10.4417L418.067 8.4095ZM433.209 19.8459C426.174 20.6458 419.945 15.8752 419.198 9.3101L417.166 9.54114C418.051 17.3245 425.381 22.7944 433.441 21.8782L433.209 19.8459ZM444.498 6.4338C445.244 12.9989 440.245 19.0461 433.209 19.8459L433.441 21.8782C441.5 20.9619 447.415 13.9861 446.53 6.20276L444.498 6.4338ZM458.15 3.8525L445.399 5.30216L445.63 7.33439L458.381 5.88473L458.15 3.8525ZM473.293 15.2881C466.257 16.088 460.028 11.3177 459.281 4.75303L457.249 4.9842C458.135 12.7671 465.464 18.2366 473.524 17.3204L473.293 15.2881ZM484.581 1.87673C485.327 8.44154 480.328 14.4883 473.293 15.2881L473.524 17.3204C481.583 16.4041 487.498 9.42885 486.614 1.64582L484.581 1.87673ZM500.974 -1.01613L485.482 0.745158L485.713 2.77739L501.205 1.0161L500.974 -1.01613ZM575.75 647.657L502.106 -0.115539L500.074 0.115501L573.718 647.888L575.75 647.657ZM559.372 650.548L574.849 648.789L574.618 646.756L559.141 648.516L559.372 650.548ZM560.273 649.416C559.387 641.634 552.058 636.165 543.999 637.081L544.23 639.113C551.265 638.313 557.494 643.083 558.241 649.648L560.273 649.416ZM543.999 637.081C535.94 637.997 530.025 644.972 530.909 652.755L532.941 652.524C532.195 645.959 537.194 639.913 544.23 639.113L543.999 637.081ZM519.289 655.105L532.04 653.656L531.809 651.623L519.058 653.073L519.289 655.105ZM504.146 643.67C511.182 642.87 517.41 647.64 518.158 654.205L520.19 653.973C519.304 646.191 511.974 640.722 503.915 641.638L504.146 643.67ZM492.858 657.081C492.112 650.516 497.111 644.47 504.146 643.67L503.915 641.638C495.856 642.554 489.941 649.529 490.825 657.312L492.858 657.081ZM479.199 659.663L491.957 658.213L491.726 656.18L478.968 657.631L479.199 659.663ZM480.099 658.531C479.214 650.749 471.884 645.28 463.825 646.196L464.056 648.228C471.091 647.428 477.32 652.198 478.067 658.762L480.099 658.531ZM463.825 646.196C455.766 647.112 449.851 654.087 450.735 661.87L452.767 661.639C452.022 655.074 457.021 649.028 464.056 648.228L463.825 646.196ZM439.116 664.22L451.867 662.77L451.636 660.738L438.884 662.188L439.116 664.22ZM423.973 652.786C431.008 651.986 437.237 656.755 437.984 663.32L440.016 663.088C439.13 655.306 431.801 649.837 423.742 650.753L423.973 652.786ZM412.684 666.196C411.939 659.631 416.938 653.585 423.973 652.786L423.742 650.753C415.683 651.67 409.768 658.644 410.652 666.427L412.684 666.196ZM399.018 668.779L411.783 667.327L411.552 665.295L398.787 666.746L399.018 668.779ZM399.919 667.647C399.033 659.864 391.704 654.394 383.644 655.311L383.875 657.343C390.911 656.543 397.14 661.313 397.886 667.878L399.919 667.647ZM383.644 655.311C375.585 656.227 369.67 663.202 370.554 670.985L372.587 670.754C371.841 664.189 376.84 658.143 383.875 657.343L383.644 655.311ZM358.942 673.335L371.686 671.886L371.455 669.854L358.711 671.302L358.942 673.335ZM343.799 661.9C350.834 661.101 357.063 665.87 357.81 672.434L359.843 672.203C358.956 664.421 351.627 658.952 343.568 659.868L343.799 661.9ZM332.51 675.311C331.765 668.746 336.764 662.7 343.799 661.9L343.568 659.868C335.509 660.784 329.595 667.759 330.478 675.541L332.51 675.311ZM318.852 677.893L331.61 676.442L331.379 674.41L318.621 675.86L318.852 677.893ZM319.752 676.761C318.867 668.978 311.537 663.509 303.478 664.425L303.709 666.457C310.744 665.658 316.973 670.428 317.72 676.992L319.752 676.761ZM303.478 664.425C295.419 665.341 289.504 672.316 290.388 680.099L292.42 679.868C291.674 673.304 296.674 667.257 303.709 666.457L303.478 664.425ZM278.761 682.45L291.519 681L291.288 678.968L278.53 680.418L278.761 682.45ZM263.619 671.015C270.654 670.215 276.883 674.985 277.63 681.55L279.662 681.319C278.776 673.536 271.447 668.067 263.387 668.983L263.619 671.015ZM252.33 684.426C251.584 677.861 256.583 671.815 263.619 671.015L263.387 668.983C255.328 669.899 249.413 676.874 250.297 684.657L252.33 684.426ZM238.671 687.008L251.429 685.558L251.198 683.525L238.44 684.976L238.671 687.008ZM239.572 685.876C238.686 678.094 231.356 672.624 223.297 673.54L223.528 675.573C230.563 674.773 236.792 679.543 237.539 686.108L239.572 685.876ZM223.297 673.54C215.238 674.457 209.323 681.432 210.207 689.215L212.239 688.984C211.494 682.419 216.493 676.373 223.528 675.573L223.297 673.54ZM198.595 691.564L211.339 690.115L211.108 688.083L198.364 689.532L198.595 691.564ZM183.452 680.13C190.487 679.331 196.716 684.1 197.463 690.664L199.495 690.432C198.609 682.651 191.28 677.182 183.221 678.098L183.452 680.13ZM172.163 693.54C171.418 686.976 176.417 680.93 183.452 680.13L183.221 678.098C175.162 679.014 169.248 685.989 170.131 693.771L172.163 693.54ZM158.497 696.123L171.263 694.672L171.032 692.639L158.266 694.091L158.497 696.123ZM159.398 694.991C158.512 687.208 151.183 681.739 143.124 682.655L143.355 684.688C150.39 683.888 156.619 688.658 157.366 695.222L159.398 694.991ZM143.124 682.655C135.064 683.572 129.149 690.547 130.034 698.33L132.066 698.099C131.32 691.534 136.319 685.487 143.355 684.688L143.124 682.655ZM118.414 700.68L131.165 699.23L130.934 697.198L118.183 698.648L118.414 700.68ZM119.315 699.548C118.429 691.766 111.099 686.296 103.04 687.213L103.271 689.245C110.306 688.445 116.535 693.215 117.282 699.779L119.315 699.548ZM103.04 687.213C94.9813 688.129 89.0664 695.104 89.9503 702.886L91.9825 702.656C91.237 696.091 96.2363 690.045 103.271 689.245L103.04 687.213ZM73.7595 705.757L91.0819 703.787L90.8509 701.755L73.5285 703.724L73.7595 705.757ZM-1.01612 57.0834L72.6279 704.856L74.6601 704.625L1.01612 56.8524L-1.01612 57.0834ZM17.1916 53.9842L-0.11552 55.9518L0.11552 57.984L17.4226 56.0164L17.1916 53.9842ZM32.3344 65.4202C25.299 66.22 19.0698 61.4496 18.3232 54.8847L16.291 55.1158C17.1761 62.899 24.506 68.3687 32.5655 67.4524L32.3344 65.4202ZM43.6231 52.0084C44.3693 58.5734 39.3699 64.6203 32.3344 65.4202L32.5655 67.4524C40.6249 66.5362 46.54 59.5607 45.6554 51.7775L43.6231 52.0084ZM57.2748 49.4272L44.5237 50.8768L44.7548 52.9091L57.5059 51.4594L57.2748 49.4272ZM72.4176 60.8626C65.3824 61.6624 59.1533 56.8923 58.4064 50.3277L56.3742 50.5589C57.2597 58.3417 64.5894 63.8111 72.6487 62.8949L72.4176 60.8626ZM83.7064 47.4514C84.4522 54.0161 79.4529 60.0628 72.4176 60.8626L72.6487 62.8949C80.7079 61.9786 86.6228 55.0035 85.7386 47.2205L83.7064 47.4514ZM97.3722 44.8686L84.607 46.3198L84.838 48.3521L97.6033 46.9008L97.3722 44.8686ZM98.5039 45.7695L98.5039 45.7692L96.4716 46.0002L96.4717 46.0005L98.5039 45.7695ZM112.515 56.3053C105.48 57.1051 99.2503 52.3345 98.5039 45.7695L96.4717 46.0005C97.3565 53.7839 104.687 59.2538 112.746 58.3375L112.515 56.3053ZM123.804 42.8932C124.55 49.4582 119.551 55.5054 112.515 56.3053L112.746 58.3375C120.806 57.4212 126.721 50.4455 125.836 42.6621L123.804 42.8932ZM123.804 42.8929L123.804 42.8932L125.836 42.6621L125.836 42.6618L123.804 42.8929ZM137.448 40.3124L124.704 41.7612L124.935 43.7935L137.679 42.3446L137.448 40.3124ZM152.591 51.7479C145.556 52.5478 139.327 47.7776 138.58 41.2129L136.548 41.4441C137.433 49.227 144.763 54.6964 152.822 53.7802L152.591 51.7479ZM163.88 38.3366C164.626 44.9014 159.626 50.9481 152.591 51.7479L152.822 53.7802C160.881 52.8639 166.796 45.8887 165.912 38.1057L163.88 38.3366ZM177.539 35.7546L164.781 37.2051L165.012 39.2373L177.77 37.7868L177.539 35.7546ZM192.682 47.1902C185.646 47.99 179.417 43.2198 178.67 36.6551L176.638 36.8863C177.524 44.6692 184.853 50.1386 192.913 49.2224L192.682 47.1902ZM203.97 33.7788C204.716 40.3436 199.717 46.3903 192.682 47.1902L192.913 49.2224C200.972 48.3062 206.887 41.3309 206.003 33.5479L203.97 33.7788ZM217.629 31.1968L204.871 32.6473L205.102 34.6795L217.86 33.2291L217.629 31.1968ZM232.772 42.6331C225.736 43.4329 219.507 38.6624 218.761 32.0974L216.728 32.3285C217.613 40.1117 224.943 45.5816 233.003 44.6653L232.772 42.6331ZM244.061 29.2211C244.807 35.7861 239.807 41.8332 232.772 42.6331L233.003 44.6653C241.062 43.749 246.978 36.7734 246.093 28.9901L244.061 29.2211ZM257.719 26.6391L244.961 28.0895L245.192 30.1217L257.95 28.6713L257.719 26.6391ZM272.862 38.0755C265.827 38.8753 259.597 34.1047 258.851 27.5397L256.819 27.7707C257.704 35.5541 265.034 41.024 273.093 40.1077L272.862 38.0755ZM284.151 24.6634C284.897 31.2285 279.898 37.2756 272.862 38.0755L273.093 40.1077C281.153 39.1914 287.068 32.2157 286.183 24.4323L284.151 24.6634ZM297.796 22.0829L285.052 23.5317L285.283 25.564L298.027 24.1151L297.796 22.0829ZM312.938 33.5179C305.903 34.3177 299.674 29.5478 298.927 22.9833L296.895 23.2146C297.781 30.9972 305.11 36.4664 313.169 35.5502L312.938 33.5179Z" fill="black" mask="url(#path-1-inside-1_4798_339)"/>
</g>
<path d="M57.226 181.098L56.022 180.378L57.0499 178.77L55.1536 178.454L55.4513 177.047L57.2947 177.546L56.961 175.65L58.4187 175.484L58.503 177.394L60.2181 176.505L60.7949 177.813L59.0291 178.515L60.4114 179.894L59.3655 180.825L58.1515 179.368L57.226 181.098ZM69.3495 179.719L68.1455 179L69.1735 177.392L67.2771 177.076L67.5748 175.669L69.4182 176.168L69.0845 174.271L70.5422 174.106L70.6265 176.016L72.3416 175.127L72.9184 176.434L71.1526 177.137L72.5349 178.516L71.489 179.447L70.2751 177.99L69.3495 179.719ZM81.473 178.341L80.269 177.621L81.297 176.013L79.4006 175.697L79.6984 174.29L81.5418 174.789L81.208 172.893L82.6658 172.727L82.75 174.637L84.4651 173.748L85.042 175.056L83.2762 175.759L84.6584 177.137L83.6126 178.068L82.3986 176.612L81.473 178.341ZM93.5966 176.963L92.3926 176.243L93.4205 174.635L91.5241 174.319L91.8219 172.912L93.6653 173.411L93.3316 171.515L94.7893 171.349L94.8735 173.259L96.5886 172.37L97.1655 173.678L95.3997 174.38L96.782 175.759L95.7361 176.69L94.5221 175.233L93.5966 176.963ZM105.72 175.584L104.516 174.865L105.544 173.257L103.648 172.941L103.945 171.534L105.789 172.033L105.455 170.136L106.913 169.971L106.997 171.881L108.712 170.992L109.289 172.299L107.523 173.002L108.905 174.381L107.86 175.312L106.646 173.855L105.72 175.584ZM117.844 174.206L116.64 173.487L117.668 171.878L115.771 171.562L116.069 170.155L117.912 170.655L117.579 168.758L119.036 168.592L119.121 170.502L120.836 169.613L121.413 170.921L119.647 171.624L121.029 173.002L119.983 173.933L118.769 172.477L117.844 174.206ZM129.967 172.828L128.763 172.108L129.791 170.5L127.895 170.184L128.192 168.777L130.036 169.276L129.702 167.38L131.16 167.214L131.244 169.124L132.959 168.235L133.536 169.543L131.77 170.246L133.153 171.624L132.107 172.555L130.893 171.098L129.967 172.828ZM142.091 171.449L140.887 170.73L141.915 169.122L140.018 168.806L140.316 167.399L142.159 167.898L141.826 166.002L143.283 165.836L143.368 167.746L145.083 166.857L145.66 168.164L143.894 168.867L145.276 170.246L144.23 171.177L143.016 169.72L142.091 171.449ZM154.214 170.071L153.01 169.352L154.038 167.743L152.142 167.428L152.44 166.02L154.283 166.52L153.949 164.623L155.407 164.458L155.491 166.368L157.206 165.479L157.783 166.786L156.017 167.489L157.4 168.867L156.354 169.798L155.14 168.342L154.214 170.071ZM166.338 168.693L165.134 167.973L166.162 166.365L164.265 166.049L164.563 164.642L166.406 165.141L166.073 163.245L167.53 163.079L167.615 164.989L169.33 164.1L169.907 165.408L168.141 166.111L169.523 167.489L168.477 168.42L167.263 166.963L166.338 168.693ZM178.461 167.315L177.257 166.595L178.285 164.987L176.389 164.671L176.687 163.264L178.53 163.763L178.196 161.867L179.654 161.701L179.738 163.611L181.453 162.722L182.03 164.03L180.264 164.732L181.647 166.111L180.601 167.042L179.387 165.585L178.461 167.315ZM190.585 165.936L189.381 165.217L190.409 163.609L188.512 163.293L188.81 161.886L190.653 162.385L190.32 160.488L191.777 160.323L191.862 162.233L193.577 161.344L194.154 162.651L192.388 163.354L193.77 164.733L192.724 165.664L191.51 164.207L190.585 165.936ZM202.708 164.558L201.504 163.838L202.532 162.23L200.636 161.914L200.934 160.507L202.777 161.006L202.443 159.11L203.901 158.944L203.985 160.854L205.7 159.965L206.277 161.273L204.511 161.976L205.894 163.354L204.848 164.285L203.634 162.829L202.708 164.558ZM214.832 163.18L213.628 162.46L214.656 160.852L212.759 160.536L213.057 159.129L214.901 159.628L214.567 157.732L216.025 157.566L216.109 159.476L217.824 158.587L218.401 159.895L216.635 160.597L218.017 161.976L216.971 162.907L215.757 161.45L214.832 163.18ZM226.955 161.801L225.751 161.082L226.779 159.474L224.883 159.158L225.181 157.751L227.024 158.25L226.69 156.353L228.148 156.188L228.232 158.098L229.947 157.209L230.524 158.516L228.758 159.219L230.141 160.598L229.095 161.529L227.881 160.072L226.955 161.801ZM239.079 160.423L237.875 159.704L238.903 158.095L237.006 157.779L237.304 156.372L239.148 156.872L238.814 154.975L240.272 154.809L240.356 156.719L242.071 155.83L242.648 157.138L240.882 157.841L242.264 159.219L241.218 160.15L240.004 158.694L239.079 160.423ZM251.202 159.045L249.998 158.325L251.026 156.717L249.13 156.401L249.428 154.994L251.271 155.493L250.937 153.597L252.395 153.431L252.479 155.341L254.194 154.452L254.771 155.76L253.006 156.463L254.388 157.841L253.342 158.772L252.128 157.315L251.202 159.045ZM263.326 157.666L262.122 156.947L263.15 155.339L261.254 155.023L261.551 153.616L263.395 154.115L263.061 152.219L264.519 152.053L264.603 153.963L266.318 153.074L266.895 154.381L265.129 155.084L266.511 156.463L265.465 157.394L264.251 155.937L263.326 157.666ZM275.449 156.288L274.245 155.569L275.273 153.96L273.377 153.645L273.675 152.237L275.518 152.737L275.184 150.84L276.642 150.675L276.726 152.585L278.442 151.696L279.018 153.003L277.253 153.706L278.635 155.084L277.589 156.015L276.375 154.559L275.449 156.288ZM287.573 154.91L286.369 154.19L287.397 152.582L285.501 152.266L285.798 150.859L287.642 151.358L287.308 149.462L288.766 149.296L288.85 151.206L290.565 150.317L291.142 151.625L289.376 152.328L290.758 153.706L289.713 154.637L288.499 153.18L287.573 154.91ZM299.697 153.532L298.493 152.812L299.52 151.204L297.624 150.888L297.922 149.481L299.765 149.98L299.432 148.084L300.889 147.918L300.973 149.828L302.689 148.939L303.265 150.247L301.5 150.949L302.882 152.328L301.836 153.259L300.622 151.802L299.697 153.532ZM311.82 152.153L310.616 151.434L311.644 149.826L309.748 149.51L310.045 148.103L311.889 148.602L311.555 146.705L313.013 146.54L313.097 148.45L314.812 147.561L315.389 148.868L313.623 149.571L315.005 150.95L313.96 151.881L312.746 150.424L311.82 152.153ZM323.944 150.775L322.74 150.055L323.768 148.447L321.871 148.131L322.169 146.724L324.012 147.223L323.679 145.327L325.136 145.161L325.221 147.071L326.936 146.182L327.512 147.49L325.747 148.193L327.129 149.571L326.083 150.502L324.869 149.046L323.944 150.775ZM336.067 149.397L334.863 148.677L335.891 147.069L333.995 146.753L334.292 145.346L336.136 145.845L335.802 143.949L337.26 143.783L337.344 145.693L339.059 144.804L339.636 146.112L337.87 146.814L339.252 148.193L338.207 149.124L336.993 147.667L336.067 149.397ZM348.191 148.018L346.987 147.299L348.015 145.691L346.118 145.375L346.416 143.968L348.259 144.467L347.926 142.57L349.383 142.405L349.468 144.315L351.183 143.426L351.76 144.733L349.994 145.436L351.376 146.815L350.33 147.746L349.116 146.289L348.191 148.018ZM360.314 146.64L359.11 145.921L360.138 144.312L358.242 143.996L358.54 142.589L360.383 143.089L360.049 141.192L361.507 141.026L361.591 142.936L363.306 142.047L363.883 143.355L362.117 144.058L363.5 145.436L362.454 146.367L361.24 144.911L360.314 146.64ZM372.438 145.262L371.234 144.542L372.262 142.934L370.365 142.618L370.663 141.211L372.506 141.71L372.173 139.814L373.63 139.648L373.715 141.558L375.43 140.669L376.007 141.977L374.241 142.68L375.623 144.058L374.577 144.989L373.363 143.532L372.438 145.262ZM384.561 143.883L383.357 143.164L384.385 141.556L382.489 141.24L382.787 139.833L384.63 140.332L384.296 138.436L385.754 138.27L385.838 140.18L387.553 139.291L388.13 140.598L386.364 141.301L387.747 142.68L386.701 143.611L385.487 142.154L384.561 143.883ZM396.685 142.505L395.481 141.786L396.509 140.177L394.612 139.862L394.91 138.454L396.753 138.954L396.42 137.057L397.877 136.892L397.962 138.802L399.677 137.913L400.254 139.22L398.488 139.923L399.87 141.301L398.824 142.232L397.61 140.776L396.685 142.505ZM408.808 141.127L407.604 140.407L408.632 138.799L406.736 138.483L407.034 137.076L408.877 137.575L408.543 135.679L410.001 135.513L410.085 137.423L411.8 136.534L412.377 137.842L410.611 138.545L411.994 139.923L410.948 140.854L409.734 139.397L408.808 141.127ZM420.932 139.749L419.728 139.029L420.756 137.421L418.859 137.105L419.157 135.698L421.001 136.197L420.667 134.301L422.125 134.135L422.209 136.045L423.924 135.156L424.501 136.464L422.735 137.166L424.117 138.545L423.071 139.476L421.857 138.019L420.932 139.749ZM433.055 138.37L431.851 137.651L432.879 136.043L430.983 135.727L431.281 134.32L433.124 134.819L432.79 132.922L434.248 132.757L434.332 134.667L436.047 133.778L436.624 135.085L434.858 135.788L436.241 137.167L435.195 138.098L433.981 136.641L433.055 138.37ZM445.179 136.992L443.975 136.272L445.003 134.664L443.106 134.348L443.404 132.941L445.248 133.44L444.914 131.544L446.372 131.378L446.456 133.288L448.171 132.399L448.748 133.707L446.982 134.41L448.364 135.788L447.318 136.719L446.104 135.263L445.179 136.992ZM457.302 135.614L456.098 134.894L457.126 133.286L455.23 132.97L455.528 131.563L457.371 132.062L457.037 130.166L458.495 130L458.579 131.91L460.294 131.021L460.871 132.329L459.105 133.031L460.488 134.41L459.442 135.341L458.228 133.884L457.302 135.614ZM469.426 134.235L468.222 133.516L469.25 131.908L467.353 131.592L467.651 130.185L469.495 130.684L469.161 128.787L470.619 128.622L470.703 130.532L472.418 129.643L472.995 130.95L471.229 131.653L472.611 133.032L471.565 133.963L470.351 132.506L469.426 134.235Z" fill="black"/>
<path d="M109.014 636.634L107.81 635.915L108.838 634.306L106.941 633.99L107.239 632.583L109.083 633.083L108.749 631.186L110.207 631.02L110.291 632.93L112.006 632.041L112.583 633.349L110.817 634.052L112.199 635.43L111.153 636.361L109.939 634.905L109.014 636.634ZM121.137 635.256L119.933 634.536L120.961 632.928L119.065 632.612L119.363 631.205L121.206 631.704L120.872 629.808L122.33 629.642L122.414 631.552L124.129 630.663L124.706 631.971L122.94 632.674L124.323 634.052L123.277 634.983L122.063 633.526L121.137 635.256ZM133.261 633.877L132.057 633.158L133.085 631.55L131.188 631.234L131.486 629.827L133.33 630.326L132.996 628.43L134.454 628.264L134.538 630.174L136.253 629.285L136.83 630.592L135.064 631.295L136.446 632.674L135.4 633.605L134.186 632.148L133.261 633.877ZM145.384 632.499L144.18 631.78L145.208 630.171L143.312 629.856L143.61 628.448L145.453 628.948L145.119 627.051L146.577 626.886L146.661 628.796L148.376 627.907L148.953 629.214L147.188 629.917L148.57 631.295L147.524 632.226L146.31 630.77L145.384 632.499ZM157.508 631.121L156.304 630.401L157.332 628.793L155.436 628.477L155.733 627.07L157.577 627.569L157.243 625.673L158.701 625.507L158.785 627.417L160.5 626.528L161.077 627.836L159.311 628.539L160.693 629.917L159.647 630.848L158.433 629.391L157.508 631.121ZM169.631 629.743L168.427 629.023L169.455 627.415L167.559 627.099L167.857 625.692L169.7 626.191L169.366 624.295L170.824 624.129L170.908 626.039L172.624 625.15L173.2 626.458L171.435 627.16L172.817 628.539L171.771 629.47L170.557 628.013L169.631 629.743ZM181.755 628.364L180.551 627.645L181.579 626.037L179.683 625.721L179.98 624.314L181.824 624.813L181.49 622.916L182.948 622.751L183.032 624.661L184.747 623.772L185.324 625.079L183.558 625.782L184.94 627.161L183.895 628.092L182.681 626.635L181.755 628.364ZM193.879 626.986L192.675 626.266L193.702 624.658L191.806 624.342L192.104 622.935L193.947 623.434L193.614 621.538L195.071 621.372L195.155 623.282L196.871 622.393L197.447 623.701L195.682 624.404L197.064 625.782L196.018 626.713L194.804 625.257L193.879 626.986ZM206.002 625.608L204.798 624.888L205.826 623.28L203.93 622.964L204.227 621.557L206.071 622.056L205.737 620.16L207.195 619.994L207.279 621.904L208.994 621.015L209.571 622.323L207.805 623.025L209.187 624.404L208.142 625.335L206.928 623.878L206.002 625.608ZM218.126 624.229L216.922 623.51L217.95 621.902L216.053 621.586L216.351 620.179L218.194 620.678L217.861 618.781L219.318 618.616L219.403 620.526L221.118 619.637L221.694 620.944L219.929 621.647L221.311 623.026L220.265 623.957L219.051 622.5L218.126 624.229ZM230.249 622.851L229.045 622.132L230.073 620.523L228.177 620.207L228.474 618.8L230.318 619.3L229.984 617.403L231.442 617.237L231.526 619.147L233.241 618.258L233.818 619.566L232.052 620.269L233.434 621.647L232.389 622.578L231.175 621.122L230.249 622.851ZM242.373 621.473L241.169 620.753L242.197 619.145L240.3 618.829L240.598 617.422L242.441 617.921L242.108 616.025L243.565 615.859L243.65 617.769L245.365 616.88L245.942 618.188L244.176 618.891L245.558 620.269L244.512 621.2L243.298 619.743L242.373 621.473ZM254.496 620.094L253.292 619.375L254.32 617.767L252.424 617.451L252.721 616.044L254.565 616.543L254.231 614.647L255.689 614.481L255.773 616.391L257.488 615.502L258.065 616.809L256.299 617.512L257.682 618.891L256.636 619.822L255.422 618.365L254.496 620.094ZM266.62 618.716L265.416 617.997L266.444 616.388L264.547 616.073L264.845 614.665L266.688 615.165L266.355 613.268L267.812 613.103L267.897 615.013L269.612 614.124L270.189 615.431L268.423 616.134L269.805 617.512L268.759 618.443L267.545 616.987L266.62 618.716ZM278.743 617.338L277.539 616.618L278.567 615.01L276.671 614.694L276.969 613.287L278.812 613.786L278.478 611.89L279.936 611.724L280.02 613.634L281.735 612.745L282.312 614.053L280.546 614.756L281.929 616.134L280.883 617.065L279.669 615.608L278.743 617.338ZM290.867 615.96L289.663 615.24L290.691 613.632L288.794 613.316L289.092 611.909L290.935 612.408L290.602 610.512L292.059 610.346L292.144 612.256L293.859 611.367L294.436 612.675L292.67 613.377L294.052 614.756L293.006 615.687L291.792 614.23L290.867 615.96ZM302.99 614.581L301.786 613.862L302.814 612.254L300.918 611.938L301.216 610.531L303.059 611.03L302.725 609.133L304.183 608.968L304.267 610.878L305.982 609.989L306.559 611.296L304.793 611.999L306.176 613.378L305.13 614.309L303.916 612.852L302.99 614.581ZM315.114 613.203L313.91 612.483L314.938 610.875L313.041 610.559L313.339 609.152L315.183 609.651L314.849 607.755L316.307 607.589L316.391 609.499L318.106 608.61L318.683 609.918L316.917 610.621L318.299 611.999L317.253 612.93L316.039 611.474L315.114 613.203ZM327.237 611.825L326.033 611.105L327.061 609.497L325.165 609.181L325.463 607.774L327.306 608.273L326.972 606.377L328.43 606.211L328.514 608.121L330.229 607.232L330.806 608.54L329.04 609.242L330.423 610.621L329.377 611.552L328.163 610.095L327.237 611.825ZM339.361 610.446L338.157 609.727L339.185 608.119L337.288 607.803L337.586 606.396L339.43 606.895L339.096 604.998L340.554 604.833L340.638 606.743L342.353 605.854L342.93 607.161L341.164 607.864L342.546 609.243L341.5 610.174L340.286 608.717L339.361 610.446ZM351.484 609.068L350.28 608.349L351.308 606.74L349.412 606.424L349.71 605.017L351.553 605.517L351.219 603.62L352.677 603.454L352.761 605.364L354.476 604.475L355.053 605.783L353.287 606.486L354.67 607.864L353.624 608.795L352.41 607.339L351.484 609.068ZM363.608 607.69L362.404 606.97L363.432 605.362L361.535 605.046L361.833 603.639L363.677 604.138L363.343 602.242L364.801 602.076L364.885 603.986L366.6 603.097L367.177 604.405L365.411 605.108L366.793 606.486L365.747 607.417L364.533 605.96L363.608 607.69ZM375.731 606.311L374.527 605.592L375.555 603.984L373.659 603.668L373.957 602.261L375.8 602.76L375.466 600.864L376.924 600.698L377.008 602.608L378.723 601.719L379.3 603.026L377.535 603.729L378.917 605.108L377.871 606.039L376.657 604.582L375.731 606.311ZM387.855 604.933L386.651 604.214L387.679 602.605L385.783 602.29L386.08 600.882L387.924 601.382L387.59 599.485L389.048 599.32L389.132 601.23L390.847 600.341L391.424 601.648L389.658 602.351L391.04 603.729L389.994 604.66L388.781 603.204L387.855 604.933ZM399.978 603.555L398.774 602.835L399.802 601.227L397.906 600.911L398.204 599.504L400.047 600.003L399.713 598.107L401.171 597.941L401.255 599.851L402.971 598.962L403.547 600.27L401.782 600.973L403.164 602.351L402.118 603.282L400.904 601.825L399.978 603.555ZM412.102 602.177L410.898 601.457L411.926 599.849L410.03 599.533L410.327 598.126L412.171 598.625L411.837 596.729L413.295 596.563L413.379 598.473L415.094 597.584L415.671 598.892L413.905 599.594L415.287 600.973L414.242 601.904L413.028 600.447L412.102 602.177ZM424.226 600.798L423.022 600.079L424.049 598.471L422.153 598.155L422.451 596.748L424.294 597.247L423.961 595.35L425.418 595.185L425.503 597.095L427.218 596.206L427.794 597.513L426.029 598.216L427.411 599.595L426.365 600.526L425.151 599.069L424.226 600.798ZM436.349 599.42L435.145 598.7L436.173 597.092L434.277 596.776L434.574 595.369L436.418 595.868L436.084 593.972L437.542 593.806L437.626 595.716L439.341 594.827L439.918 596.135L438.152 596.838L439.534 598.216L438.489 599.147L437.275 597.691L436.349 599.42ZM448.473 598.042L447.269 597.322L448.297 595.714L446.4 595.398L446.698 593.991L448.541 594.49L448.208 592.594L449.665 592.428L449.75 594.338L451.465 593.449L452.042 594.757L450.276 595.459L451.658 596.838L450.612 597.769L449.398 596.312L448.473 598.042ZM460.596 596.663L459.392 595.944L460.42 594.336L458.524 594.02L458.821 592.613L460.665 593.112L460.331 591.215L461.789 591.05L461.873 592.96L463.588 592.071L464.165 593.378L462.399 594.081L463.781 595.46L462.736 596.391L461.522 594.934L460.596 596.663ZM472.72 595.285L471.516 594.566L472.544 592.957L470.647 592.641L470.945 591.234L472.788 591.734L472.455 589.837L473.912 589.671L473.997 591.581L475.712 590.692L476.289 592L474.523 592.703L475.905 594.081L474.859 595.012L473.645 593.556L472.72 595.285ZM484.843 593.907L483.639 593.187L484.667 591.579L482.771 591.263L483.069 589.856L484.912 590.355L484.578 588.459L486.036 588.293L486.12 590.203L487.835 589.314L488.412 590.622L486.646 591.325L488.029 592.703L486.983 593.634L485.769 592.177L484.843 593.907ZM496.967 592.528L495.763 591.809L496.791 590.201L494.894 589.885L495.192 588.478L497.035 588.977L496.702 587.081L498.159 586.915L498.244 588.825L499.959 587.936L500.536 589.243L498.77 589.946L500.152 591.325L499.106 592.256L497.892 590.799L496.967 592.528ZM509.09 591.15L507.886 590.431L508.914 588.822L507.018 588.507L507.316 587.099L509.159 587.599L508.825 585.702L510.283 585.537L510.367 587.447L512.082 586.558L512.659 587.865L510.893 588.568L512.276 589.946L511.23 590.877L510.016 589.421L509.09 591.15ZM521.214 589.772L520.01 589.052L521.038 587.444L519.141 587.128L519.439 585.721L521.282 586.22L520.949 584.324L522.406 584.158L522.491 586.068L524.206 585.179L524.783 586.487L523.017 587.19L524.399 588.568L523.353 589.499L522.139 588.042L521.214 589.772Z" fill="black"/>
<defs>
<filter id="filter0_d_4798_339" x="0" y="0" width="588.734" height="718.74" filterUnits="userSpaceOnUse" color-interpolation-filters="sRGB">
<feFlood flood-opacity="0" result="BackgroundImageFix"/>
<feColorMatrix in="SourceAlpha" type="matrix" values="0 0 0 0 0 0 0 0 0 0 0 0 0 0 0 0 0 0 127 0" result="hardAlpha"/>
<feOffset dx="14" dy="14"/>
<feComposite in2="hardAlpha" operator="out"/>
<feColorMatrix type="matrix" values="0 0 0 0 0.0784314 0 0 0 0 0.0784314 0 0 0 0 0.0784314 0 0 0 0.25 0"/>
<feBlend mode="normal" in2="BackgroundImageFix" result="effect1_dropShadow_4798_339"/>
<feBlend mode="normal" in="SourceGraphic" in2="effect1_dropShadow_4798_339" result="shape"/>
</filter>
</defs>
</svg>
