<?xml version="1.0" encoding="UTF-8"?>
<svg version="1.1" xmlns="http://www.w3.org/2000/svg" width="907" height="907">
<path d="M0 0 C4.74280543 -0.00050091 9.48560895 -0.00280663 14.22841358 -0.00549722 C30.02322552 -0.01426949 45.81803076 -0.01892234 61.61284515 -0.01816674 C62.45761108 -0.01812679 63.302377 -0.01808683 64.17274189 -0.01804566 C65.01859082 -0.01800478 65.86443975 -0.0179639 66.73592046 -0.01792178 C80.38692683 -0.01751693 94.03790542 -0.02705499 107.68890378 -0.04118403 C121.84929824 -0.05571952 136.00967931 -0.06244487 150.17008138 -0.06159025 C158.06205035 -0.06126397 165.95398995 -0.06380978 173.84595203 -0.0747683 C374.68116464 -0.34010057 374.68116464 -0.34010057 469.96375751 63.16725707 C470.45746845 63.62696898 470.95117939 64.0866809 471.45985126 64.56032348 C523.58956346 113.48880335 533.07186482 186.62639398 537.08875751 254.47975707 C537.16440937 255.74400512 537.24006123 257.00825316 537.31800556 258.31081176 C537.56933558 262.9284683 537.77039916 267.54685743 537.96375751 272.16725707 C538.00522435 273.13370965 538.04669119 274.10016223 538.0894146 275.09590125 C539.34221192 305.78187296 539.12843712 336.49823602 539.13101459 367.20349956 C539.13151549 371.94630498 539.13382122 376.68910851 539.1365118 381.43191314 C539.14528408 397.22672507 539.14993692 413.02153032 539.14918133 428.81634471 C539.14912139 430.08349359 539.14912139 430.08349359 539.14906025 431.37624145 C539.14899893 432.64501484 539.14899893 432.64501484 539.14893637 433.93942001 C539.14853151 447.59042639 539.15806958 461.24140497 539.17219862 474.89240333 C539.18673411 489.05279779 539.19345946 503.21317886 539.19260484 517.37358093 C539.19227856 525.2655499 539.19482437 533.15748951 539.20578289 541.04945159 C539.47111516 741.88466419 539.47111516 741.88466419 475.96375751 837.16725707 C475.5040456 837.66096801 475.04433369 838.15467895 474.57069111 838.66335082 C425.64221124 890.79306302 352.50462061 900.27536437 284.65125751 904.29225707 C283.38700947 904.36790893 282.12276142 904.44356078 280.82020283 904.52150512 C276.20252804 904.77283613 271.58424806 904.97550032 266.96375751 905.16725707 C265.96116595 905.2090134 264.95857438 905.25076974 263.92560124 905.29379141 C236.08995468 906.39431729 208.2503066 906.30613907 180.3976101 906.28486801 C173.11468534 906.27952372 165.83176378 906.28021072 158.54883754 906.28100453 C145.11635018 906.28230784 131.68386779 906.27901782 118.25138187 906.27298713 C104.97716338 906.26704295 91.70294697 906.26321574 78.42872715 906.26213431 C77.59925623 906.26206557 76.76978531 906.26199683 75.91517891 906.26192601 C71.70165656 906.26158762 67.4881342 906.26128626 63.27461185 906.26099914 C33.53345978 906.25890615 3.79231041 906.25218969 -25.94884014 906.24269652 C-54.81798062 906.23349242 -83.68712036 906.22641848 -112.55626202 906.22218871 C-113.44822367 906.22205718 -114.34018533 906.22192566 -115.25917613 906.22179015 C-124.21770901 906.22047148 -133.17624189 906.21919568 -142.13477478 906.21795129 C-160.3796712 906.21541598 -178.62456757 906.21259473 -196.86946392 906.20960021 C-198.12740216 906.20939428 -198.12740216 906.20939428 -199.4107533 906.20918418 C-255.28591749 906.20000421 -311.16108015 906.18414051 -367.03624249 906.16725707 C-367.07055807 849.72728803 -367.10238868 793.28731797 -367.12092876 736.8473413 C-367.12120488 736.00895386 -367.12148099 735.17056641 -367.12176547 734.30677329 C-367.12775448 716.07632322 -367.13329439 697.84587304 -367.13837314 679.61542269 C-367.14086732 670.67225157 -367.1434605 661.72908049 -367.14610577 652.78590941 C-367.14636728 651.89606479 -367.1466288 651.00622016 -367.14689825 650.08941055 C-367.15538613 621.36576874 -367.17038235 592.64213493 -367.18883693 563.91849795 C-367.20780275 534.34466792 -367.22003649 504.7708423 -367.22407247 475.1970063 C-367.22464858 470.99794829 -367.22529985 466.79889029 -367.22599697 462.5998323 C-367.22613182 461.77358285 -367.22626666 460.9473334 -367.2264056 460.0960461 C-367.22874804 446.91795116 -367.23796638 433.73987004 -367.24990655 420.56178069 C-367.2618253 407.23933661 -367.26614312 393.91690591 -367.26324524 380.59445672 C-367.26187929 373.40615644 -367.26350528 366.21789265 -367.27465343 359.02959991 C-367.59626441 143.05678741 -367.59626441 143.05678741 -304.03624249 69.16725707 C-303.57653057 68.67354613 -303.11681866 68.1798352 -302.64317608 67.67116332 C-253.71469621 15.54145112 -180.57710558 6.05914977 -112.72374249 2.04225707 C-111.45949444 1.96660522 -110.19524639 1.89095336 -108.8926878 1.81300902 C-104.27503126 1.56167901 -99.65664212 1.36061542 -95.03624249 1.16725707 C-93.58656362 1.10505682 -93.58656362 1.10505682 -92.1075983 1.04159999 C-61.42162659 -0.21119733 -30.70526354 0.00257746 0 0 Z " fill="#05070F" transform="translate(368.0362424850464,0.8327429294586182)"/>
<path d="M0 0 C14.41207093 0.01125304 28.6026073 0.74287661 42.93945312 2.19018555 C43.97505371 2.29202148 45.0106543 2.39385742 46.07763672 2.4987793 C72.24155623 5.12286533 97.90610788 8.97545978 122.93945312 17.19018555 C123.73657715 17.44413086 124.53370117 17.69807617 125.35498047 17.9597168 C136.08338457 21.39133804 146.03362629 25.84125312 155.93945312 31.19018555 C156.9990625 31.75608398 158.05867188 32.32198242 159.15039062 32.9050293 C200.64763669 56.04981877 226.21636532 96.61095756 239.08520508 141.27709961 C245.1109336 163.47125765 247.76999627 186.25135119 249.62988281 209.10766602 C249.83412681 211.14140791 250.10384729 213.16976399 250.44213867 215.18554688 C252.38626207 226.93141172 252.33142526 239.17301658 252.80633545 251.05688477 C252.95032126 254.44599781 253.1185557 257.83348375 253.28759766 261.22143555 C253.59276393 267.54523252 253.79859745 273.86717565 253.95211792 280.19638062 C254.02643978 282.71466206 254.12898216 285.23228372 254.26101685 287.74819946 C255.33757068 308.97750292 255.33757068 308.97750292 249.52636719 316.00805664 C246.26854533 319.30751637 242.74145826 322.08655089 238.94534302 324.73828125 C235.86656644 326.96676296 233.17661355 329.56314712 230.43945312 332.19018555 C229.38668297 333.16361743 228.33220655 334.13521 227.27539062 335.10424805 C222.14837883 339.83711118 217.06955804 344.62160003 211.98242188 349.3972168 C206.26613873 354.76282454 200.53176516 360.10902371 194.79833984 365.45629883 C191.6779901 368.36682206 188.55878211 371.27856842 185.43945312 374.19018555 C184.18945854 375.35685801 182.93945854 376.52352468 181.68945312 377.69018555 C181.07070313 378.26768555 180.45195313 378.84518555 179.81445312 379.44018555 C157.93945312 399.85685221 136.06445312 420.27351888 114.18945312 440.69018555 C113.57054199 441.26784668 112.95163086 441.84550781 112.31396484 442.44067383 C111.06563576 443.6057593 109.81726345 444.77079846 108.56884766 445.93579102 C105.41792425 448.87626924 102.26778747 451.81758209 99.11914062 454.76049805 C93.26227608 460.23325671 87.39861107 465.69780078 81.50195312 471.12768555 C75.29308389 476.8462801 69.13658517 482.61986905 62.98242188 488.3972168 C59.12023132 492.0224745 55.24997975 495.63901112 51.37695312 499.25268555 C50.76150635 499.82760742 50.14605957 500.4025293 49.51196289 500.99487305 C46.4252806 503.87712589 43.33273593 506.75260525 40.22851562 509.6159668 C39.61532471 510.18371826 39.00213379 510.75146973 38.37036133 511.33642578 C37.11921838 512.49405589 35.86511564 513.64849486 34.6081543 514.79980469 C31.37539255 517.79153265 28.31034222 520.83764351 25.38867188 524.13549805 C0.92198917 551.30174904 -41.74078587 562.67379323 -77.06054688 567.19018555 C-77.78661133 567.28517334 -78.51267578 567.38016113 -79.26074219 567.47802734 C-86.88818279 568.36338338 -94.51511403 568.38906516 -102.18554688 568.37768555 C-102.87474213 568.37741364 -103.56393738 568.37714172 -104.27401733 568.37686157 C-114.3698168 568.35853729 -124.09550151 567.92512272 -134.06054688 566.19018555 C-135.47546393 565.97883419 -136.89085766 565.7706564 -138.30664062 565.56518555 C-193.80736717 557.2816763 -244.31627819 528.28728308 -278.06054688 483.19018555 C-278.68703125 482.35874023 -279.31351562 481.52729492 -279.95898438 480.6706543 C-296.12789556 458.39095743 -307.82382255 432.2438671 -313.06054688 405.19018555 C-313.24230469 404.29759033 -313.4240625 403.40499512 -313.61132812 402.48535156 C-315.50035036 392.02067437 -315.4995013 381.53969935 -315.49804688 370.94018555 C-315.49944672 369.96552338 -315.50084656 368.99086121 -315.50228882 367.98666382 C-315.4839709 352.46661088 -314.26598398 338.1968934 -310.06054688 323.19018555 C-309.66985358 321.64398337 -309.28171414 320.09713299 -308.89648438 318.54956055 C-306.13625272 307.93410546 -301.84544771 298.03624672 -297.06054688 288.19018555 C-296.70976074 287.46798828 -296.35897461 286.74579102 -295.99755859 286.00170898 C-285.56954958 264.8399683 -271.4623818 247.43643558 -254.87304688 230.81518555 C-254.39950775 230.34046814 -253.92596863 229.86575073 -253.43807983 229.37664795 C-248.36265607 224.30265224 -243.24399649 219.33644258 -237.7722168 214.68969727 C-235.95233331 213.09538485 -234.25413734 211.41739003 -232.56054688 209.69018555 C-229.5222227 206.59661912 -226.31289367 203.76913048 -223.02929688 200.94018555 C-221.13031616 199.25220269 -219.34048699 197.50248821 -217.56054688 195.69018555 C-214.5222227 192.59661912 -211.31289367 189.76913048 -208.02929688 186.94018555 C-206.13031616 185.25220269 -204.34048699 183.50248821 -202.56054688 181.69018555 C-199.5222227 178.59661912 -196.31289367 175.76913048 -193.02929688 172.94018555 C-191.13031616 171.25220269 -189.34048699 169.50248821 -187.56054688 167.69018555 C-184.5222227 164.59661912 -181.31289367 161.76913048 -178.02929688 158.94018555 C-176.13031616 157.25220269 -174.34048699 155.50248821 -172.56054688 153.69018555 C-169.5222227 150.59661912 -166.31289367 147.76913048 -163.02929688 144.94018555 C-161.13031616 143.25220269 -159.34048699 141.50248821 -157.56054688 139.69018555 C-154.5222227 136.59661912 -151.31289367 133.76913048 -148.02929688 130.94018555 C-145.55435431 128.7402366 -143.25341014 126.3963711 -140.93530273 124.03369141 C-139.12831 122.25681914 -137.26709754 120.59581682 -135.34570312 118.9440918 C-131.12761908 115.27615052 -127.0536234 111.47357304 -122.99804688 107.62768555 C-121.49959473 106.21206076 -120.00089209 104.79670109 -118.50195312 103.3815918 C-117.75703613 102.6779248 -117.01211914 101.97425781 -116.24462891 101.24926758 C-112.9854468 98.17661591 -109.71193239 95.11947264 -106.43554688 92.06518555 C-105.82509521 91.49598389 -105.21464355 90.92678223 -104.58569336 90.34033203 C-103.3583319 89.19610446 -102.13087467 88.05197961 -100.90332031 86.90795898 C-97.78760782 84.00359318 -94.67420577 81.09675255 -91.56054688 78.19018555 C-90.3105577 77.02350729 -89.0605577 75.85684061 -87.81054688 74.69018555 C-86.88242187 73.82393555 -86.88242187 73.82393555 -85.93554688 72.94018555 C-35.31054688 25.69018555 -35.31054688 25.69018555 -33.43212891 23.93701172 C-32.19350045 22.78094772 -30.95489335 21.62486082 -29.71630859 20.46875 C-26.41750716 17.38966562 -23.11823769 14.31108457 -19.81835938 11.2331543 C-19.12677734 10.58797852 -18.43519531 9.94280273 -17.72265625 9.27807617 C-16.38815595 8.03313965 -15.05352538 6.78834276 -13.71875 5.54370117 C-8.34793252 0.53287362 -7.28831853 0.05133413 0 0 Z " fill="#ED664D" transform="translate(636.060546875,19.809814453125)"/>
<path d="M0 0 C2.07020515 2.67462809 3.87742661 5.37963629 5.56640625 8.30859375 C11.47072472 18.42716907 17.48208185 27.9863557 25 37 C25.46905762 37.56912109 25.93811523 38.13824219 26.42138672 38.72460938 C36.27351983 50.63942119 46.72548125 61.52465066 59 71 C59.53544434 71.41717285 60.07088867 71.8343457 60.62255859 72.26416016 C86.17313122 92.05210722 114.2970235 104.609205 145 114 C145.82902832 114.25539551 146.65805664 114.51079102 147.51220703 114.77392578 C159.71671512 118.44231656 172.37221122 119.64222104 185 121 C185.84667236 121.09716309 186.69334473 121.19432617 187.56567383 121.29443359 C219.71876289 124.82439725 263.82265646 122.2039007 293.10302734 106.90087891 C295 106 295 106 298 106 C296.4995694 110.94259493 294.76107137 115.59674041 292.58935547 120.28759766 C279.37984176 149.03098455 276.55734382 179.77451235 277 211 C277.01675781 212.29421875 277.03351563 213.5884375 277.05078125 214.921875 C278.60600817 250.64765902 293.52625354 287.0575675 314 316 C314.39960938 316.56783203 314.79921875 317.13566406 315.2109375 317.72070312 C319.72454554 324.07459095 324.60846998 329.98425579 329.89453125 335.70703125 C331.76208204 337.74089454 333.5398422 339.82147023 335.3125 341.9375 C366.12179254 377.02781041 413.7273463 399.64244089 459 408 C460.52584717 408.29197266 460.52584717 408.29197266 462.08251953 408.58984375 C480.50891382 412.02846345 498.34706089 412.50155499 517 412 C518.67055921 411.97809502 520.34113091 411.95710044 522.01171875 411.9375 C547.22657542 411.3740237 573.66744271 404.62189111 596.8046875 394.75 C597.52914062 394.5025 598.25359375 394.255 599 394 C599.66 394.33 600.32 394.66 601 395 C600.50693359 395.75216797 600.50693359 395.75216797 600.00390625 396.51953125 C572.25928967 440.65527633 566.02437869 494.7748313 576.75 545.1875 C584.81424651 579.90899463 601.7826851 611.56951881 625.921875 637.734375 C627.81818331 639.8017788 629.63029606 641.91750093 631.4375 644.0625 C647.92026694 662.82519615 670.34283346 676.1026215 692 688 C678.04716228 701.95283772 623.22845682 697.38506734 604.11694336 698.08154297 C602.94065491 698.12481146 601.76436645 698.16807994 600.55243289 698.2126596 C573.15934473 699.1948781 545.77876591 699.26616525 518.37122059 699.20707697 C511.33027001 699.19231386 504.28932661 699.18973611 497.24836277 699.18748413 C484.70600732 699.1831749 472.16367882 699.17005679 459.62133789 699.15087891 C447.48364389 699.13233979 435.34595737 699.11827335 423.20825195 699.10986328 C422.07395935 699.10907511 422.07395935 699.10907511 420.91675175 699.10827102 C417.1207463 699.10565975 413.32474081 699.10313262 409.52873528 699.10064721 C378.35247062 699.08012719 347.17623952 699.04493955 316 699 C316.06994989 697.90880293 316.13989979 696.81760586 316.21196938 695.69334221 C316.30400195 694.24347054 316.39599175 692.79359615 316.48794556 691.34371948 C316.53402482 690.62667438 316.58010408 689.90962927 316.62757969 689.17085552 C316.97722278 683.63768586 317.20029741 678.11451579 317.2734375 672.5703125 C317.28601089 671.66399078 317.29858429 670.75766907 317.3115387 669.82388306 C317.67157453 637.61244773 314.64227994 607.89997047 305 577 C304.60240479 575.7001416 304.60240479 575.7001416 304.19677734 574.37402344 C293.09194972 538.62970681 273.69801845 505.97079131 249 478 C248.27683594 477.16597656 247.55367188 476.33195312 246.80859375 475.47265625 C237.0662576 464.40263525 226.67397044 454.02423656 215 445 C213.73528809 443.99528113 212.4709947 442.99003529 211.20703125 441.984375 C169.76802461 409.31555443 120.24161441 390.21935659 68 384 C67.3423616 383.91707703 66.68472321 383.83415405 66.00715637 383.74871826 C60.77694907 383.11917751 55.62914506 382.82810869 50.36328125 382.796875 C49.56907272 382.79008728 48.7748642 382.78329956 47.95658875 382.77630615 C45.40851857 382.75945776 42.86062215 382.7531177 40.3125 382.75 C39.01082886 382.74649536 39.01082886 382.74649536 37.68286133 382.74291992 C25.00652885 382.7300339 12.67069021 383.26236377 0.1953125 385.72460938 C-2.87189296 386.10937447 -5.91193138 386.01580578 -9 386 C-9.04610055 351.78367596 -9.08118103 317.56735984 -9.10213066 283.35101148 C-9.10463112 279.28202193 -9.10721985 275.21303243 -9.10986328 271.14404297 C-9.1103879 270.33421481 -9.11091252 269.52438665 -9.11145304 268.69001824 C-9.12007998 255.69561816 -9.13580575 242.70123636 -9.15430559 229.70684701 C-9.17322228 216.3046693 -9.18416182 202.90250093 -9.18817699 189.50031042 C-9.19063967 182.0014969 -9.19645195 174.50272132 -9.21146011 167.00392151 C-9.46955395 34.09977519 -9.46955395 34.09977519 0 0 Z " fill="#FEFEFE" transform="translate(27,191)"/>
<path d="M0 0 C3.63270129 0.00444656 7.26540165 0.00284837 10.89810491 0.00209773 C17.14646269 0.0015812 23.39480978 0.00463495 29.64316487 0.01033556 C38.6764903 0.01857151 47.70981072 0.02107795 56.74313949 0.02232356 C71.41017433 0.02449543 86.0772035 0.03110409 100.74423528 0.04062617 C114.96558916 0.04984912 129.18694149 0.05690586 143.40829778 0.06113398 C144.28948986 0.0613967 145.17068194 0.06165943 146.07857682 0.06193011 C150.50062847 0.06323544 154.92268014 0.06449908 159.34473181 0.06574202 C195.84981117 0.07605637 232.35488411 0.09362289 268.85995793 0.11606562 C267.91679866 1.23075775 266.97156903 2.3436983 266.02548528 3.45590937 C265.49933629 4.07586787 264.9731873 4.69582636 264.43109441 5.33457148 C262.27222733 7.7824868 259.91715651 9.94172191 257.48495793 12.11606562 C256.4307197 13.06694387 255.37738317 14.0188225 254.32480168 14.97153437 C253.76647649 15.47604121 253.20815129 15.98054804 252.63290715 16.50034297 C249.40534185 19.44168518 246.2286389 22.43724855 243.04745793 25.42856562 C241.67773498 26.71509711 240.30794301 28.00155513 238.93808293 29.28794062 C238.25939153 29.92538203 237.58070012 30.56282343 236.88144231 31.21958125 C233.69214778 34.21166336 230.49526973 37.19559172 227.29745793 40.17856562 C226.68281682 40.75195673 226.06817571 41.32534785 225.43490911 41.91611445 C224.19626733 43.07151898 222.95757928 44.22687392 221.71884465 45.3821789 C218.59849491 48.29270214 215.47928692 51.20444849 212.35995793 54.11606562 C211.10996335 55.28273809 209.85996335 56.44940475 208.60995793 57.61606562 C207.99120793 58.19356562 207.37245793 58.77106562 206.73495793 59.36606562 C194.85995793 70.44939895 182.98495793 81.53273229 171.10995793 92.61606562 C170.4910468 93.19372675 169.87213567 93.77138789 169.23446965 94.3665539 C167.98614057 95.53163937 166.73776826 96.69667854 165.48935246 97.86167109 C162.33842905 100.80214932 159.18829227 103.74346216 156.03964543 106.68637812 C150.18278089 112.15913678 144.31911587 117.62368085 138.42245793 123.05356562 C132.2135887 128.77216017 126.05708998 134.54574912 119.90292668 140.32309687 C114.18664354 145.68870461 108.45226997 151.03490378 102.71884465 156.3821789 C99.59849491 159.29270214 96.47928692 162.20444849 93.35995793 165.11606562 C92.10996335 166.28273809 90.85996335 167.44940475 89.60995793 168.61606562 C88.99120793 169.19356562 88.37245793 169.77106562 87.73495793 170.36606562 C52.10995793 203.61606562 52.10995793 203.61606562 50.23300481 205.36777461 C48.98936351 206.52858213 47.74587266 207.68955088 46.50253606 208.85068476 C43.28149486 211.85837001 40.05748927 214.86278326 36.82870793 217.86215937 C36.16419621 218.48026484 35.4996845 219.09837031 34.81503606 219.73520625 C33.55951055 220.90293277 32.30307719 222.06968437 31.04550481 223.23520625 C24.60632919 229.22831607 18.5485058 235.21297178 13.23495793 242.24106562 C7.40936686 249.91420129 2.17654079 254.89909681 -6.64004207 258.99106562 C-7.56059382 259.42306269 -8.48114558 259.85505976 -9.42959285 260.30014765 C-19.08013073 264.71805144 -28.98481678 268.07184138 -39.14004207 271.11606562 C-40.396878 271.50407343 -41.65371394 271.89208125 -42.94863582 272.29184687 C-45.97614561 273.16601079 -49.00283289 273.95112926 -52.07607722 274.64682734 C-53.50632921 274.97199227 -54.93297174 275.31329356 -56.35635066 275.66733515 C-85.56638533 282.72956099 -120.99322799 282.18358983 -150.14004207 275.11606562 C-151.06349422 274.90175898 -151.98694636 274.68745234 -152.93838191 274.46665156 C-191.58640736 265.33154284 -226.5667868 246.71212337 -255.14004207 219.11606562 C-256.12280527 218.19646369 -257.10588157 217.27719626 -258.08926082 216.35825312 C-275.34181264 199.96974071 -288.15325119 179.57945225 -298.14004207 158.11606562 C-298.66984675 156.98555781 -299.19965144 155.85505 -299.74551082 154.69028437 C-304.18451299 144.70563803 -303.28141025 138.33135206 -299.64004207 128.24106562 C-299.09646052 126.7163061 -299.09646052 126.7163061 -298.54189754 125.16074336 C-291.42603256 105.5913449 -281.9323477 87.82601802 -268.14004207 72.11606562 C-267.4684405 71.32329218 -266.79683894 70.53051875 -266.10488582 69.71372187 C-239.0812353 38.54812866 -204.01883253 21.13110463 -164.14004207 12.11606562 C-163.40124812 11.94268672 -162.66245418 11.76930781 -161.90127254 11.590675 C-147.47740804 8.26998362 -132.81681175 6.87661525 -118.11343074 5.42246211 C-117.30346644 5.3423086 -116.49350215 5.2621551 -115.65899348 5.1795727 C-114.13194178 5.02971842 -112.60466921 4.88209107 -111.07714534 4.73712885 C-108.0578139 4.4441998 -105.07524386 4.10502347 -102.08413386 3.59531367 C-96.49663936 2.68576464 -90.82176684 2.54776302 -85.17422175 2.24106562 C-82.99319075 2.12171035 -80.81274824 1.9943904 -78.63222957 1.86606562 C-52.44707254 0.38248259 -26.22201246 -0.04057459 0 0 Z " fill="#3A70EC" transform="translate(337.1400420665741,17.883934378623962)"/>
<path d="M0 0 C0.04604034 30.5471582 0.0812298 61.09430816 0.10213066 91.64149297 C0.10463083 95.28215422 0.10721959 98.92281541 0.10986328 102.56347656 C0.11065021 103.65025219 0.11065021 103.65025219 0.11145304 104.75898288 C0.12005713 116.35256112 0.13576906 127.94611866 0.15430559 139.53968479 C0.17328808 151.51581567 0.18417505 163.49193605 0.18817699 175.46808136 C0.19062911 182.16113693 0.19657309 188.85414088 0.21146011 195.54718399 C0.26884866 222.45977463 0.0976549 249.33344196 -0.90283203 276.22998047 C-0.96284885 277.86754567 -0.96284885 277.86754567 -1.02407813 279.53819299 C-2.62163965 321.99759327 -5.44181697 365.45164692 -19 406 C-19.49910341 407.55846395 -19.99781962 409.11705197 -20.49609375 410.67578125 C-23.75179092 420.59801076 -28.0430646 429.82012264 -33 439 C-33.56589844 440.05960938 -34.13179687 441.11921875 -34.71484375 442.2109375 C-55.61816265 479.68935869 -91.75693451 505.57361138 -132.09423828 518.35205078 C-134.15497149 519.01166062 -134.15497149 519.01166062 -136.62109375 520.24609375 C-142.77988945 522.197896 -148.76551588 519.10578609 -154.3125 516.5625 C-155.09012695 516.20978027 -155.86775391 515.85706055 -156.66894531 515.49365234 C-206.93839524 492.25893875 -243.73403415 452.25895646 -264 401 C-264.44085937 399.89785156 -264.88171875 398.79570313 -265.3359375 397.66015625 C-268.83722154 388.48573904 -270.88845305 379.01586628 -272.625 369.375 C-272.74818604 368.6948584 -272.87137207 368.0147168 -272.99829102 367.31396484 C-281.157451 320.18593502 -269.35008499 270.54001899 -242.19677734 231.33081055 C-237.43627904 224.64599294 -232.32853562 218.24037059 -227 212 C-226.32839844 211.20464844 -225.65679688 210.40929687 -224.96484375 209.58984375 C-219.28396475 203.05948752 -213.01903585 197.23607461 -206.6484375 191.39453125 C-203.52864137 188.52428543 -200.53328643 185.54819269 -197.54931641 182.5378418 C-195.7687454 180.77045813 -193.91618193 179.11884336 -192 177.5 C-189.39352391 175.2544206 -186.91065479 172.95448488 -184.5 170.5 C-181.46167583 167.40643357 -178.2523468 164.57894493 -174.96875 161.75 C-172.49380743 159.55005105 -170.19286326 157.20618555 -167.87475586 154.84350586 C-166.06776312 153.06663359 -164.20655066 151.40563127 -162.28515625 149.75390625 C-158.06707221 146.08596497 -153.99307653 142.28338749 -149.9375 138.4375 C-148.43904786 137.02187522 -146.94034522 135.60651555 -145.44140625 134.19140625 C-144.69648926 133.48773926 -143.95157227 132.78407227 -143.18408203 132.05908203 C-139.92489993 128.98643036 -136.65138552 125.92928709 -133.375 122.875 C-132.76454834 122.30579834 -132.15409668 121.73659668 -131.52514648 121.15014648 C-130.29778502 120.00591891 -129.0703278 118.86179406 -127.84277344 117.71777344 C-124.72706094 114.81340763 -121.61365889 111.90656701 -118.5 109 C-117.25001082 107.83332174 -116.00001083 106.66665507 -114.75 105.5 C-113.821875 104.63375 -113.821875 104.63375 -112.875 103.75 C-86 78.66666667 -59.125 53.58333333 -32.25 28.5 C-31.63044434 27.92169434 -31.01088867 27.34338867 -30.37255859 26.74755859 C-29.13091337 25.58879764 -27.88905371 24.43026642 -26.64697266 23.27197266 C-23.39228778 20.23626263 -20.14216583 17.19585509 -16.8984375 14.1484375 C-16.22490234 13.51679688 -15.55136719 12.88515625 -14.85742188 12.234375 C-13.57347991 11.03012598 -12.29084194 9.82448455 -11.00976562 8.6171875 C-1.8133568 0 -1.8133568 0 0 0 Z " fill="#FEC626" transform="translate(890,353)"/>
<path d="M0 0 C2.59382197 0.45313457 5.1916491 0.83954789 7.79736328 1.21777344 C23.52750166 3.63249396 38.48002222 8.40523045 53.54345703 13.44433594 C54.35008789 13.70972168 55.15671875 13.97510742 55.98779297 14.24853516 C87.1586497 24.62173948 118.31929459 42.66148718 142.24267578 65.28417969 C144.22935723 67.14943408 146.25483957 68.93349179 148.31689453 70.71386719 C158.99178726 80.02199661 168.91768904 90.20964001 177.54345703 101.44433594 C178.33880859 102.4459375 179.13416016 103.44753906 179.95361328 104.47949219 C201.14826327 131.29830572 218.29312062 162.45380373 227.54345703 195.44433594 C227.82527832 196.43916992 228.10709961 197.43400391 228.39746094 198.45898438 C235.62252576 224.42297731 238.89523748 249.44070388 238.91845703 276.31933594 C238.92054169 277.3066571 238.92262634 278.29397827 238.92477417 279.31121826 C238.91716974 311.07062323 238.91716974 311.07062323 235.54345703 314.44433594 C233.81802137 314.54166841 232.08855976 314.56805076 230.36038113 314.56738377 C229.22976991 314.56937481 228.0991587 314.57136586 226.93428653 314.57341725 C225.67653213 314.5705044 224.41877772 314.56759156 223.12290955 314.56459045 C221.78561096 314.56502604 220.44831247 314.56590071 219.11101443 314.56717962 C215.41915306 314.56942709 211.72732044 314.56539988 208.03546274 314.56040156 C204.06066471 314.55610083 200.08586843 314.55754321 196.11106873 314.55830383 C189.2187912 314.55882931 182.32652312 314.55568005 175.43424797 314.55006599 C165.46905831 314.54195418 155.50387323 314.5393361 145.53868062 314.538078 C129.37254556 314.53588698 113.20641553 314.52922554 97.0402832 314.51977539 C81.33227564 314.51060257 65.62426946 314.50353256 49.91625977 314.49926758 C48.45015529 314.49886558 48.45015529 314.49886558 46.95443255 314.49845546 C39.31100164 314.49637616 31.66757071 314.49441919 24.02413976 314.4925009 C-13.46942577 314.48305968 -50.9629787 314.46294317 -88.45654297 314.44433594 C-88.45654297 211.48433594 -88.45654297 108.52433594 -88.45654297 2.44433594 C-60.77522853 -5.46461105 -28.22933092 -5.01878757 0 0 Z " fill="#000000" transform="translate(106.45654296875,575.5556640625)"/>
<path d="M0 0 C-3.43141599 7.20597359 -10.1005935 12.15665055 -16.06640625 17.28515625 C-18.56431556 19.5004738 -20.88024989 21.8689817 -23.21875 24.25 C-25.71896185 26.70634849 -28.37680516 28.96309368 -31.03125 31.25 C-32.93023071 32.93798286 -34.72005988 34.68769734 -36.5 36.5 C-39.53832417 39.59356643 -42.7476532 42.42105507 -46.03125 45.25 C-47.93023071 46.93798286 -49.72005988 48.68769734 -51.5 50.5 C-54.53832417 53.59356643 -57.7476532 56.42105507 -61.03125 59.25 C-62.93023071 60.93798286 -64.72005988 62.68769734 -66.5 64.5 C-69.53832417 67.59356643 -72.7476532 70.42105507 -76.03125 73.25 C-77.93023071 74.93798286 -79.72005988 76.68769734 -81.5 78.5 C-84.53832417 81.59356643 -87.7476532 84.42105507 -91.03125 87.25 C-92.93023071 88.93798286 -94.72005988 90.68769734 -96.5 92.5 C-99.53832417 95.59356643 -102.7476532 98.42105507 -106.03125 101.25 C-108.50619257 103.44994895 -110.80713674 105.79381445 -113.12524414 108.15649414 C-114.93223688 109.93336641 -116.79344934 111.59436873 -118.71484375 113.24609375 C-122.93292779 116.91403503 -127.00692347 120.71661251 -131.0625 124.5625 C-132.56095214 125.97812478 -134.05965478 127.39348445 -135.55859375 128.80859375 C-136.30351074 129.51226074 -137.04842773 130.21592773 -137.81591797 130.94091797 C-141.07510007 134.01356964 -144.34861448 137.07071291 -147.625 140.125 C-148.23545166 140.69420166 -148.84590332 141.26340332 -149.47485352 141.84985352 C-150.70221498 142.99408109 -151.9296722 144.13820594 -153.15722656 145.28222656 C-156.27293906 148.18659237 -159.38634111 151.09343299 -162.5 154 C-163.74998918 155.16667826 -164.99998917 156.33334493 -166.25 157.5 C-166.86875 158.0775 -167.4875 158.655 -168.125 159.25 C-218.75 206.5 -218.75 206.5 -220.62475586 208.24951172 C-221.87591607 209.417435 -223.12672943 210.58572996 -224.37719727 211.75439453 C-227.48172311 214.65496752 -230.59181349 217.54903922 -233.71484375 220.4296875 C-253.82169399 238.88676137 -253.82169399 238.88676137 -271 260 C-271.63832764 260.8964624 -271.63832764 260.8964624 -272.28955078 261.81103516 C-289.69110515 286.44473389 -299.62777765 313.57231244 -305 343 C-305.27046143 344.35508667 -305.27046143 344.35508667 -305.54638672 345.73754883 C-306.13652392 349.98189946 -306.20055796 354.15683214 -306.23828125 358.4375 C-306.24821106 359.34625381 -306.25814087 360.25500763 -306.26837158 361.19129944 C-306.79732312 388.38373624 -306.79732312 388.38373624 -302 415 C-301.69384766 416.05348633 -301.38769531 417.10697266 -301.07226562 418.19238281 C-291.2061927 451.29540653 -275.2320808 479.62808078 -251.33398438 504.60302734 C-250.19641327 505.79431246 -249.07321776 506.99929764 -247.953125 508.20703125 C-212.67378911 545.22018066 -156.86198825 566.28136143 -106.55834961 568.1262207 C-90.09805374 568.4706241 -74.22118275 568.03804437 -58 565 C-56.75605469 564.79503906 -55.51210938 564.59007812 -54.23046875 564.37890625 C-36.40673982 561.21504698 -18.75807108 555.74474429 -2.36279297 548.08349609 C0.05826003 546.97328394 2.50729108 545.95226923 4.96484375 544.92578125 C20.26317961 538.12911155 30.66339522 527.22144145 41.9407959 515.21983337 C45.23080908 511.73808825 48.64517022 508.51333063 52.3190918 505.44238281 C54.14202769 503.87812642 55.8201488 502.21612498 57.5 500.5 C60.53832417 497.40643357 63.7476532 494.57894493 67.03125 491.75 C68.93023071 490.06201714 70.72005988 488.31230266 72.5 486.5 C75.53832417 483.40643357 78.7476532 480.57894493 82.03125 477.75 C84.50619257 475.55005105 86.80713674 473.20618555 89.12524414 470.84350586 C90.93223688 469.06663359 92.79344934 467.40563127 94.71484375 465.75390625 C98.93292779 462.08596497 103.00692347 458.28338749 107.0625 454.4375 C108.56095214 453.02187522 110.05965478 451.60651555 111.55859375 450.19140625 C112.30351074 449.48773926 113.04842773 448.78407227 113.81591797 448.05908203 C117.07510007 444.98643036 120.34861448 441.92928709 123.625 438.875 C124.23545166 438.30579834 124.84590332 437.73659668 125.47485352 437.15014648 C126.70221498 436.00591891 127.9296722 434.86179406 129.15722656 433.71777344 C132.27293906 430.81340763 135.38634111 427.90656701 138.5 425 C139.74998918 423.83332174 140.99998917 422.66665507 142.25 421.5 C142.86875 420.9225 143.4875 420.345 144.125 419.75 C171 394.66666667 197.875 369.58333333 224.75 344.5 C225.6788501 343.6330249 225.6788501 343.6330249 226.62646484 342.74853516 C227.87145204 341.586612 229.1165684 340.42482723 230.36181641 339.26318359 C233.5646073 336.2750862 236.76484297 333.28432242 239.9609375 330.2890625 C250.83525544 320.10271985 250.83525544 320.10271985 256.3125 315.125 C256.98925781 314.50882812 257.66601562 313.89265625 258.36328125 313.2578125 C260 312 260 312 262 312 C262.14575327 315.39537852 262.23421542 318.78994902 262.3125 322.1875 C262.35439453 323.14720703 262.39628906 324.10691406 262.43945312 325.09570312 C262.56358817 332.27070896 262.56358817 332.27070896 259.78125 335.87109375 C258.8634375 336.57363281 257.945625 337.27617187 257 338 C256.20980469 338.80179687 255.41960938 339.60359375 254.60546875 340.4296875 C250.16215592 344.92324781 245.66419663 349.24727062 240.86328125 353.35546875 C238.38506948 355.54273742 236.09635833 357.89279879 233.78125 360.25 C231.28103815 362.70634849 228.62319484 364.96309368 225.96875 367.25 C224.06976929 368.93798286 222.27994012 370.68769734 220.5 372.5 C217.46167583 375.59356643 214.2523468 378.42105507 210.96875 381.25 C209.06976929 382.93798286 207.27994012 384.68769734 205.5 386.5 C202.46167583 389.59356643 199.2523468 392.42105507 195.96875 395.25 C194.06976929 396.93798286 192.27994012 398.68769734 190.5 400.5 C187.46167583 403.59356643 184.2523468 406.42105507 180.96875 409.25 C179.06976929 410.93798286 177.27994012 412.68769734 175.5 414.5 C172.46167583 417.59356643 169.2523468 420.42105507 165.96875 423.25 C164.06976929 424.93798286 162.27994012 426.68769734 160.5 428.5 C157.46167583 431.59356643 154.2523468 434.42105507 150.96875 437.25 C149.06976929 438.93798286 147.27994012 440.68769734 145.5 442.5 C142.46167583 445.59356643 139.2523468 448.42105507 135.96875 451.25 C134.06976929 452.93798286 132.27994012 454.68769734 130.5 456.5 C127.46167583 459.59356643 124.2523468 462.42105507 120.96875 465.25 C118.49380743 467.44994895 116.19286326 469.79381445 113.87475586 472.15649414 C112.06776312 473.93336641 110.20655066 475.59436873 108.28515625 477.24609375 C104.06707221 480.91403503 99.99307653 484.71661251 95.9375 488.5625 C94.43904786 489.97812478 92.94034522 491.39348445 91.44140625 492.80859375 C90.69648926 493.51226074 89.95157227 494.21592773 89.18408203 494.94091797 C85.92489921 498.01357032 82.65128684 501.07060614 79.375 504.125 C78.46802368 504.97118896 78.46802368 504.97118896 77.54272461 505.83447266 C74.3570668 508.80571528 71.16811907 511.77337591 67.9765625 514.73828125 C66.97810303 515.66713135 66.97810303 515.66713135 65.95947266 516.61474609 C64.70236116 517.78414485 63.44430567 518.95253012 62.18505859 520.11962891 C59.16774569 522.92786285 56.20773221 525.77657541 53.3046875 528.703125 C50.99578221 531.02844889 48.65533753 533.22637728 46.125 535.3125 C32.64495393 547.03652474 21.80124942 562.55764555 13 578 C12.46511963 578.9283667 12.46511963 578.9283667 11.91943359 579.87548828 C1.63893147 597.87416538 -4.90454876 616.72116681 -9 637 C-9.24556641 638.13840332 -9.24556641 638.13840332 -9.49609375 639.29980469 C-13.78555231 659.47975744 -13.75265373 681.71725195 -10 702 C-9.77401123 703.2367749 -9.77401123 703.2367749 -9.54345703 704.49853516 C-6.8625645 718.61893263 -2.61037461 731.78332879 3 745 C3.31308105 745.74588379 3.62616211 746.49176758 3.94873047 747.26025391 C24.36671602 795.19766308 64.2866776 829.97827163 111.04589844 851.10205078 C113.73068877 852.33576628 116.36761313 853.65873621 119 855 C114.71573981 857.30374899 110.41446566 858.18415173 105.6875 859.1875 C104.85798828 859.37763672 104.02847656 859.56777344 103.17382812 859.76367188 C93.54848809 861.82244626 87.56346085 859.69048078 79.25 854.8125 C78.33549072 854.28148682 77.42098145 853.75047363 76.47875977 853.20336914 C62.04559642 844.64840342 49.12279139 834.55364625 37 823 C35.63174197 821.82543367 34.25737916 820.65791363 32.875 819.5 C23.69574998 811.49660432 16.13560878 801.81918156 9 792 C8.59813477 791.44924805 8.19626953 790.89849609 7.78222656 790.33105469 C-4.81059068 772.84723188 -14.08602755 753.35289588 -21 733 C-21.61101562 731.22882813 -21.61101562 731.22882813 -22.234375 729.421875 C-39.16145487 675.51563604 -28.81550529 620.23790351 -4 571 C-3.33294056 569.66686312 -2.66612394 568.33360456 -2 567 C-2.5168335 567.1858667 -3.03366699 567.3717334 -3.56616211 567.56323242 C-28.68581269 576.5632618 -54.36512914 584.64860486 -81.31884766 584.96484375 C-83.32659441 584.99117006 -85.33411473 585.03587273 -87.34130859 585.08984375 C-105.93595086 585.58040284 -123.670084 584.50745106 -142 581 C-142.95664551 580.82339844 -143.91329102 580.64679687 -144.89892578 580.46484375 C-185.05172498 572.88222037 -223.70630738 553.79173075 -253.74609375 526.06640625 C-255.7463006 524.23259442 -257.79343238 522.48962633 -259.875 520.75 C-269.82239933 512.04602558 -278.29481602 501.69733792 -286 491 C-286.60642334 490.16227051 -286.60642334 490.16227051 -287.22509766 489.30761719 C-299.39636422 472.29775357 -308.17193546 453.71432329 -315 434 C-315.24975586 433.29568848 -315.49951172 432.59137695 -315.75683594 431.86572266 C-321.24575777 416.25541166 -324.6784875 399.55974136 -325 383 C-325.02046387 382.06526855 -325.04092773 381.13053711 -325.06201172 380.16748047 C-325.74462436 343.52641362 -318.62211805 311.13308271 -303 278 C-304.41925781 278.56267578 -304.41925781 278.56267578 -305.8671875 279.13671875 C-324.23586095 286.30141995 -342.46350089 290.35598639 -362 293 C-362.88478027 293.12004395 -363.76956055 293.24008789 -364.68115234 293.36376953 C-391.88951784 296.90396989 -420.37694832 295.8884819 -447 289 C-448.45035666 288.64776083 -449.90089063 288.29625123 -451.3515625 287.9453125 C-484.90347365 279.66007308 -516.25757254 265.06498187 -543 243 C-543.56525391 242.53625977 -544.13050781 242.07251953 -544.71289062 241.59472656 C-565.35644311 224.55867471 -581.70759934 204.76967517 -595.75 182 C-596.18046631 181.33081543 -596.61093262 180.66163086 -597.05444336 179.97216797 C-601.85973147 171.94048634 -600.16308607 164.23052473 -598.125 155.5 C-597.95097656 154.69046875 -597.77695312 153.8809375 -597.59765625 153.046875 C-597.1370971 151.01359166 -596.57662651 149.00346144 -596 147 C-595.34 146.67 -594.68 146.34 -594 146 C-590.56950126 147.71524937 -589.95995506 151.8769142 -588.625 155.3125 C-579.63429383 177.44233688 -565.51561046 196.88512936 -549 214 C-548.16339844 214.89976562 -547.32679688 215.79953125 -546.46484375 216.7265625 C-520.44339468 243.96470074 -484.26728719 261.67164328 -448.3125 271.375 C-447.48427734 271.60171387 -446.65605469 271.82842773 -445.80273438 272.06201172 C-428.30613051 276.48946536 -410.66119387 277.54916614 -392.6875 277.4375 C-391.14551941 277.43343643 -391.14551941 277.43343643 -389.5723877 277.42929077 C-374.34680626 277.36850558 -359.8370576 276.67851014 -345 273 C-343.34250857 272.62212968 -341.68495657 272.24452496 -340.02734375 271.8671875 C-328.69243671 269.17455212 -317.78250009 265.384463 -307 261 C-306.10893555 260.6484082 -305.21787109 260.29681641 -304.29980469 259.93457031 C-291.76976637 254.90580713 -283.56072592 249.9869083 -276.12353516 238.64257812 C-269.17606525 228.48556432 -259.16801908 219.6067017 -249.86328125 211.64453125 C-247.38506948 209.45726258 -245.09635833 207.10720121 -242.78125 204.75 C-240.28103815 202.29365151 -237.62319484 200.03690632 -234.96875 197.75 C-233.06976929 196.06201714 -231.27994012 194.31230266 -229.5 192.5 C-226.46167583 189.40643357 -223.2523468 186.57894493 -219.96875 183.75 C-218.06976929 182.06201714 -216.27994012 180.31230266 -214.5 178.5 C-211.46167583 175.40643357 -208.2523468 172.57894493 -204.96875 169.75 C-203.06976929 168.06201714 -201.27994012 166.31230266 -199.5 164.5 C-196.46167583 161.40643357 -193.2523468 158.57894493 -189.96875 155.75 C-188.06976929 154.06201714 -186.27994012 152.31230266 -184.5 150.5 C-181.46167583 147.40643357 -178.2523468 144.57894493 -174.96875 141.75 C-173.06976929 140.06201714 -171.27994012 138.31230266 -169.5 136.5 C-166.46167583 133.40643357 -163.2523468 130.57894493 -159.96875 127.75 C-157.49380743 125.55005105 -155.19286326 123.20618555 -152.87475586 120.84350586 C-151.06776312 119.06663359 -149.20655066 117.40563127 -147.28515625 115.75390625 C-143.06707221 112.08596497 -138.99307653 108.28338749 -134.9375 104.4375 C-133.43904786 103.02187522 -131.94034522 101.60651555 -130.44140625 100.19140625 C-129.69648926 99.48773926 -128.95157227 98.78407227 -128.18408203 98.05908203 C-124.92489993 94.98643036 -121.65138552 91.92928709 -118.375 88.875 C-117.76454834 88.30579834 -117.15409668 87.73659668 -116.52514648 87.15014648 C-115.29778502 86.00591891 -114.0703278 84.86179406 -112.84277344 83.71777344 C-109.72706094 80.81340763 -106.61365889 77.90656701 -103.5 75 C-102.25001082 73.83332174 -101.00001083 72.66665507 -99.75 71.5 C-99.13125 70.9225 -98.5125 70.345 -97.875 69.75 C-86 58.66666667 -74.125 47.58333333 -62.25 36.5 C-61.3216333 35.6335083 -61.3216333 35.6335083 -60.37451172 34.74951172 C-59.12618263 33.58442625 -57.87781033 32.41938709 -56.62939453 31.25439453 C-50.94864888 25.95371163 -50.94864888 25.95371163 -45.27539062 20.64501953 C-44.01289097 19.4691302 -42.74336278 18.30074026 -41.46679688 17.14013672 C-38.4377913 14.37298443 -35.60543716 11.60638088 -32.9765625 8.453125 C-23.63929898 -2.25975183 -13.52306214 -1.3517863 0 0 Z " fill="#020202" transform="translate(628,19)"/>
</svg>
