<svg width="312" height="154" viewBox="0 0 312 154" fill="none" xmlns="http://www.w3.org/2000/svg">
<g filter="url(#filter0_d_5202_6265)">
<path d="M0 20C0 8.9543 8.95431 0 20 0H287C298.046 0 307 8.9543 307 20V129C307 140.046 298.046 149 287 149H20C8.9543 149 0 140.046 0 129V20Z" fill="white"/>
<path d="M20 0.5H287C297.77 0.5 306.5 9.23045 306.5 20V129C306.5 139.77 297.77 148.5 287 148.5H20C9.23044 148.5 0.5 139.77 0.5 129V20C0.5 9.23044 9.23045 0.5 20 0.5Z" stroke="#9071FB"/>
<g clip-path="url(#clip0_5202_6265)">
<path d="M81.2278 104.632C81.2278 106.025 80.0988 107 78.9245 107H20.3033C19.1742 107 18 105.839 18 104.632V44.3679C18 43.2071 19.1291 42 20.3033 42H78.7439C80.0988 42 81.2278 43.1607 81.2278 44.3679V104.632ZM28.5681 94.1857L59.7755 78.6321C59.7755 78.6321 60.9047 77.8429 60.9047 77.2393C60.9047 76.6357 60.5433 76.2643 60.5433 76.2643L55.756 71.9464C55.756 71.9464 55.3948 71.575 55.3948 71.1571C55.3948 70.7857 55.756 70.1821 55.756 70.1821L70.5243 53.8393L40.4459 70.3679C40.4459 70.3679 39.3168 71.1571 39.3168 71.7607C39.3168 72.3643 39.6781 72.7357 39.6781 72.7357L44.4654 77.0536C44.4654 77.0536 44.8266 77.425 44.8266 77.8429C44.8266 78.2143 44.4654 78.8179 44.4654 78.8179L28.5681 94.1857ZM95.7702 92.2357V56.3929H122.01V63.2643H103.448V70.5536H119.706V77.425H103.448V84.9464H122.236V91.8179H95.7702V92.2357ZM144.41 92.2357V88.2893C142.514 90.8429 139.985 92.8393 136.191 92.8393C130.049 92.8393 124.132 87.9179 124.132 78.6786V78.4464C124.132 69.3929 129.868 64.2857 136.191 64.2857C140.21 64.2857 142.695 66.2357 144.41 68.4179V54.8143H152.088V92.0036H144.41V92.2357ZM144.591 78.4464C144.591 73.8964 141.701 70.9714 138.088 70.9714C134.655 70.9714 131.584 73.9429 131.584 78.4464V78.6321C131.584 83.1821 134.655 86.1071 138.088 86.1071C141.746 86.1071 144.591 82.95 144.591 78.4464ZM169.295 92.6071C164.147 92.6071 158.772 90.6571 154.526 86.8964L159.133 81.3714C162.205 83.925 165.456 85.6893 169.476 85.6893C172.547 85.6893 174.444 84.5286 174.444 82.3464V82.1607C174.444 80.2107 173.314 79.1893 167.354 77.6107C160.263 75.8464 155.881 73.85 155.881 66.7929V66.6071C155.881 60.1071 160.85 55.7893 167.94 55.7893C172.908 55.7893 177.335 57.3679 180.766 60.3393L176.747 66.2357C173.676 64.0536 170.605 62.7071 167.759 62.7071C164.869 62.7071 163.333 64.1 163.333 65.8643V66.05C163.333 68.4179 164.869 69.2071 170.785 70.7857C177.876 72.7357 181.714 75.3357 181.714 81.4179V81.6036C182.121 88.6607 176.792 92.6071 169.295 92.6071ZM202.038 92.2357V88.2893C200.323 90.6571 198.019 92.6071 194.18 92.6071C188.444 92.6071 185.192 88.6607 185.192 82.3929V64.6571H192.644V79.8393C192.644 83.6 194.361 85.3643 197.251 85.3643C200.142 85.3643 202.038 83.4143 202.038 79.8393V64.6571H209.49V92.0036H202.038V92.2357ZM229.994 72.3179C225.026 72.3179 221.955 75.475 221.955 81.975V92.0036H214.504V64.8429H221.955V70.3679C223.49 66.6071 225.975 64.0536 230.4 64.2857V72.3643C230.4 72.3179 229.994 72.3179 229.994 72.3179ZM244.581 100.268C240.156 100.268 236.136 99.2929 232.885 97.2964L235.368 91.4464C238.033 93.025 240.743 94 244.356 94C249.504 94 252.033 91.4464 252.033 86.525V85.1321C249.73 87.8714 247.426 89.6821 243.407 89.6821C237.265 89.6821 231.53 84.9464 231.53 76.8679V76.6821C231.53 68.6036 237.265 63.8679 243.407 63.8679C247.426 63.8679 249.911 65.6321 252.033 68V64.4714H259.485V85.55C259.304 96.1357 254.518 100.268 244.581 100.268ZM252.033 77.0536C252.033 73.2929 249.143 70.7393 245.53 70.7393C241.917 70.7393 239.026 73.2929 239.026 77.0536V77.2393C239.026 81 241.917 83.5536 245.53 83.5536C249.143 83.5536 252.033 80.8143 252.033 77.0536ZM288.795 81.1857H270.233C271.002 84.7143 273.305 86.4786 276.737 86.4786C279.221 86.4786 281.164 85.6893 283.24 83.7393L287.666 87.6857C285.183 90.8429 281.525 92.7929 276.737 92.7929C268.699 92.7929 262.737 87.0821 262.737 78.6321V78.4464C262.737 70.5536 268.111 64.2857 275.969 64.2857C284.776 64.2857 288.976 71.3893 288.976 79.05V79.2357C289.021 80.025 289.021 80.3964 288.795 81.1857ZM275.969 70.5536C272.899 70.5536 270.821 72.9214 270.233 76.45H281.525C281.164 72.9214 279.221 70.5536 275.969 70.5536Z" fill="#00998A"/>
</g>
</g>
<defs>
<filter id="filter0_d_5202_6265" x="0" y="0" width="312" height="154" filterUnits="userSpaceOnUse" color-interpolation-filters="sRGB">
<feFlood flood-opacity="0" result="BackgroundImageFix"/>
<feColorMatrix in="SourceAlpha" type="matrix" values="0 0 0 0 0 0 0 0 0 0 0 0 0 0 0 0 0 0 127 0" result="hardAlpha"/>
<feOffset dx="5" dy="5"/>
<feComposite in2="hardAlpha" operator="out"/>
<feColorMatrix type="matrix" values="0 0 0 0 0 0 0 0 0 0 0 0 0 0 0 0 0 0 1 0"/>
<feBlend mode="normal" in2="BackgroundImageFix" result="effect1_dropShadow_5202_6265"/>
<feBlend mode="normal" in="SourceGraphic" in2="effect1_dropShadow_5202_6265" result="shape"/>
</filter>
<clipPath id="clip0_5202_6265">
<rect width="271" height="65" fill="white" transform="translate(18 42)"/>
</clipPath>
</defs>
</svg>
