<svg width="312" height="154" viewBox="0 0 312 154" fill="none" xmlns="http://www.w3.org/2000/svg">
<g filter="url(#filter0_d_5202_6272)">
<path d="M0 20C0 8.9543 8.95431 0 20 0H287C298.046 0 307 8.9543 307 20V129C307 140.046 298.046 149 287 149H20C8.9543 149 0 140.046 0 129V20Z" fill="white"/>
<path d="M20 0.5H287C297.77 0.5 306.5 9.23045 306.5 20V129C306.5 139.77 297.77 148.5 287 148.5H20C9.23044 148.5 0.5 139.77 0.5 129V20C0.5 9.23044 9.23045 0.5 20 0.5Z" stroke="#9071FB"/>
<g clip-path="url(#clip0_5202_6272)">
<path d="M31.2618 63.8213C27.687 63.8213 25.4871 66.573 24.6621 72.3562C25.6246 72.3562 26.2204 72.2629 26.4954 72.2629H35.3867C35.7991 72.3095 36.2575 72.1696 36.5783 71.8898C36.8991 71.5634 37.0366 71.1435 36.9907 70.6772C36.9449 68.0188 35.1117 63.8213 31.2618 63.8213ZM44.232 91.5245C44.0946 92.6439 43.0405 92.7372 41.1613 93.2968C38.4574 94.1829 35.7075 94.696 32.866 94.7893C25.2121 94.7893 16 89.6591 16 78.2326C16 71.6099 20.629 62.2823 32.041 62.2823C38.8698 62.2823 45.5154 67.1327 45.5154 73.1491C45.5154 73.8952 44.8737 74.2684 43.5446 74.2684H26.1745C25.6704 74.2684 24.3413 73.8486 24.3413 76.2272C24.3413 89.3325 28.4203 93.2502 33.141 93.2502C35.5241 93.2502 38.549 91.6178 41.1155 87.5603L43.6821 83.5494C44.0488 82.9431 44.1862 82.7566 44.4612 82.8032L45.332 82.9431C45.5154 83.1763 45.607 83.5027 45.4695 83.736L44.232 91.5245ZM71.685 66.6197C69.8517 65.2671 67.6519 64.5676 65.4061 64.6141C61.098 64.6141 57.019 68.1121 57.019 79.7717C57.019 86.2544 59.4023 92.8771 65.3145 92.8771C67.606 92.8771 71.685 92.6439 71.685 84.8087V66.6197ZM82.4554 44.9328L80.0721 45.3991C78.9722 45.6323 78.3764 46.0521 78.3764 47.7311V93.7166C78.4222 93.8565 78.3764 94.0431 78.3306 94.1829C78.239 94.3229 78.1014 94.4162 77.964 94.4628H77.7348C77.139 94.2762 76.6348 93.9498 76.1765 93.4834C75.4431 92.8771 75.1683 92.2708 74.2057 92.2708C72.1434 92.2708 71.5017 94.3695 64.2145 94.3695C55.6898 94.4162 48.7236 87.4204 48.6777 78.7456V77.9995C48.6777 71.3768 53.215 62.8419 64.3061 62.8419C66.8728 62.702 69.3935 63.2617 71.6392 64.5676V49.2235C71.6392 46.4718 70.5393 45.1193 68.2477 45.1193H66.9186C66.6894 45.1193 66.5978 44.9794 66.5978 44.6063C66.5978 44.2332 66.7352 44 66.8728 44H81.9054C82.4096 44 82.6387 44.1399 82.6387 44.4664C82.6846 44.6996 82.547 44.8861 82.3179 44.9794H82.4554V44.9328ZM101.75 93.9498H100.146C92.5383 93.9498 86.9011 88.0734 86.9011 81.7772V65.8268C86.9011 65.0806 86.5803 64.3344 86.0303 63.8213C85.4803 63.355 84.7928 63.0751 84.0594 63.0751H83.4636C82.5929 63.0751 82.1346 62.842 82.1346 62.4222C82.1346 62.0024 82.7304 61.7693 83.8762 61.7693L89.8342 61.9092L97.1673 61.676C97.6255 61.676 97.8089 61.8159 97.8089 62.1423C97.8547 62.4689 97.6255 62.7487 97.3047 62.7953L95.4714 63.1217C94.6006 63.2617 94.1424 64.1478 94.1424 65.8734V82.2902C94.1424 88.633 95.9298 92.6439 100.834 92.6439C105.738 92.6439 107.663 88.633 107.663 82.3369V65.8734C107.663 64.1478 107.204 63.2617 106.333 63.1217L104.5 62.7953C104.225 62.7487 104.042 62.5154 104.042 62.189C104.042 61.9092 104.271 61.7226 104.684 61.7226L112.017 61.9559L117.975 61.8159C119.075 61.8159 119.67 62.0491 119.67 62.4689C119.67 62.8886 119.212 63.1217 118.479 63.1217H117.883C117.15 63.1217 116.462 63.355 115.912 63.868C115.362 64.3344 115.041 65.0806 115.041 65.8268V81.7305C115.041 88.0734 109.313 93.9032 101.704 93.9032M157.252 71.9364C156.932 71.8898 156.61 71.7032 156.472 71.4234L155.785 70.0709L152.623 65.5936C151.294 63.728 150.744 63.1684 149.414 63.2617L144.648 63.4949C144.419 63.4949 144.19 63.5881 144.052 63.7747C143.916 63.9613 143.869 64.1944 143.916 64.4276V87.2805C143.916 91.8511 144.374 92.1309 147.811 92.1309C148.911 92.1309 149.185 92.2708 149.185 92.5972L149.094 93.2502C148.773 93.4368 148.36 93.5301 147.994 93.3901H132.687C132.09 93.3901 131.494 93.5301 131.494 93.2502V92.6905C131.494 92.4107 131.816 92.3175 132.824 92.2242C136.124 91.7578 136.582 91.1048 136.582 88.633V65.407C136.582 64.0546 136.124 63.4016 135.253 63.4016H132.457C129.662 63.4016 128.791 63.7747 128.286 64.5209L123.52 71.8431C123.383 72.0297 123.154 72.1696 122.924 72.2162C122.512 72.1696 122.237 71.7965 122.283 71.4234C122.283 70.8171 122.558 70.2108 122.924 66.573C123.383 62.5621 123.795 61.8159 125.124 61.8159C128.286 61.8159 129.295 62.1423 130.991 62.1423L139.012 62.2823C143.778 62.3756 149.278 61.676 155.281 61.676C156.152 61.676 156.381 62.049 156.61 63.3083L157.114 66.2466C157.252 67.4591 157.435 68.6717 157.756 69.8377C157.939 70.2108 157.986 70.6305 157.986 71.0504C157.986 71.7965 157.756 72.0764 157.344 72.0764M177.738 62.7953C172.743 62.7953 169.352 68.0654 169.352 77.5797C169.352 87.3271 172.743 92.5506 177.738 92.5506C182.735 92.5506 186.125 87.2805 186.125 77.5797C186.125 68.1121 182.735 62.7953 177.738 62.7953ZM177.693 94.1364C166.556 94.1364 160.689 85.928 160.689 77.4865C160.689 69.0448 166.556 61.2096 177.693 61.2096C188.83 61.2096 194.697 69.0448 194.697 77.4865C194.697 85.928 188.83 94.1364 177.693 94.1364ZM211.15 63.1684H208.033C207.575 63.1684 207.437 63.7747 207.437 64.381V86.3011C207.437 90.4052 209.179 92.5039 213.9 92.5039C218.895 92.5039 222.287 87.2338 222.287 77.533C222.287 68.0654 219.446 63.1217 211.196 63.1217M213.808 93.9032C211.792 93.7632 209.821 93.4834 207.849 93.1102C207.575 93.1102 207.391 93.4368 207.391 93.9964V102.718C207.391 103.557 207.484 104.35 210.37 104.35H211.333C212.112 104.35 212.524 104.583 212.524 104.956C212.524 105.609 211.792 105.983 210.416 105.936L202.12 105.703L195.338 105.983C195.109 106.029 194.833 105.983 194.65 105.843C194.468 105.703 194.33 105.469 194.33 105.19C194.33 104.956 195.062 104.817 196.622 104.583L199.005 104.304C199.783 104.21 200.196 104.07 200.196 100.572V64.894C200.196 63.7747 199.096 63.1684 196.896 63.1684H196.025C195.2 63.1684 194.833 62.9352 194.833 62.5621C194.833 62.189 195.429 61.8159 196.667 61.8159H211.562C224.808 61.8159 230.903 69.3247 230.903 77.3465C230.903 85.6015 225.266 93.9964 213.9 93.9964M249.419 62.9352H248.228C246.669 62.9352 244.836 62.9352 244.836 67.0394V88.2133C244.836 91.7111 246.256 92.3175 248.228 92.3175H249.419C249.648 92.3175 249.74 92.4574 249.74 92.8305C249.74 93.2035 249.74 93.4368 249.511 93.4368H232.782C232.553 93.4368 232.553 93.2035 232.553 92.8305C232.553 92.4574 232.645 92.3175 232.827 92.3175H234.02C235.99 92.3175 237.411 91.7111 237.411 88.2133V67.0394C237.411 62.9352 235.577 62.9352 234.02 62.9352H232.827C232.598 62.9352 232.462 62.7953 232.462 62.4222C232.462 62.049 232.553 61.7693 232.782 61.7693H249.511C249.74 61.7693 249.786 62.0024 249.786 62.4222C249.786 62.842 249.648 62.9352 249.419 62.9352ZM277.239 77.2066C277.239 69.0915 274.855 63.8213 268.302 63.8213C263.901 63.8213 260.006 68.0654 260.006 78.2326C260.006 88.3998 263.901 92.6439 268.209 92.6439C272.839 92.6439 277.147 88.633 277.147 85.275V77.2532H277.239V77.2066ZM284.526 93.8099C281.455 93.8565 278.797 91.7111 278.063 88.6797C275.956 91.9909 272.381 94.0431 268.485 94.1829C259.09 94.1829 251.756 88.12 251.756 78.2793C251.756 71.7032 256.522 62.3289 268.76 62.3289C276.001 62.3289 285.03 66.9461 285.03 80.1448V87.0007C285.03 89.0994 285.259 90.4985 286.863 90.4985C289.246 90.4985 289.796 87.3738 290.392 87.3738C290.575 87.3738 290.713 87.467 290.85 87.607C290.942 87.7468 291.033 87.9334 290.988 88.12V88.1666C290.53 91.4779 287.734 93.8565 284.526 93.8099Z" fill="#FF4C00"/>
</g>
</g>
<defs>
<filter id="filter0_d_5202_6272" x="0" y="0" width="312" height="154" filterUnits="userSpaceOnUse" color-interpolation-filters="sRGB">
<feFlood flood-opacity="0" result="BackgroundImageFix"/>
<feColorMatrix in="SourceAlpha" type="matrix" values="0 0 0 0 0 0 0 0 0 0 0 0 0 0 0 0 0 0 127 0" result="hardAlpha"/>
<feOffset dx="5" dy="5"/>
<feComposite in2="hardAlpha" operator="out"/>
<feColorMatrix type="matrix" values="0 0 0 0 0 0 0 0 0 0 0 0 0 0 0 0 0 0 1 0"/>
<feBlend mode="normal" in2="BackgroundImageFix" result="effect1_dropShadow_5202_6272"/>
<feBlend mode="normal" in="SourceGraphic" in2="effect1_dropShadow_5202_6272" result="shape"/>
</filter>
<clipPath id="clip0_5202_6272">
<rect width="275" height="62" fill="white" transform="translate(16 44)"/>
</clipPath>
</defs>
</svg>
