<svg width="312" height="154" viewBox="0 0 312 154" fill="none" xmlns="http://www.w3.org/2000/svg">
<g filter="url(#filter0_d_5202_6017)">
<rect width="307" height="149" rx="20" fill="white"/>
<rect x="0.5" y="0.5" width="306" height="148" rx="19.5" stroke="#9071FB"/>
<path d="M170.024 63.2557C170.024 55.8446 170.152 48.9445 170.536 42.5557L150.952 46.2612V48.0501L152.872 48.3057C154.28 48.4334 155.176 48.9445 155.688 49.7112C156.2 50.6057 156.584 51.8834 156.84 53.8001C157.096 57.5057 157.352 65.939 157.224 79.2278C157.224 92.389 157.096 100.695 156.84 103.889C163.88 105.422 169.384 106.061 173.48 106.061C181.16 106.061 187.176 103.889 191.528 99.4168C195.88 95.0723 198.184 88.939 198.184 81.4001C198.184 75.3946 196.52 70.4112 193.192 66.4501C189.864 62.489 185.64 60.5723 180.648 60.5723C177.32 60.5723 173.864 61.4668 170.024 63.2557ZM170.408 102.611C170.152 98.5223 169.896 86.2556 169.896 66.1946C171.048 65.8112 172.584 65.5556 174.504 65.5556C177.576 65.5556 180.008 67.089 181.8 70.2834C183.592 73.4779 184.488 77.3112 184.488 82.1668C184.488 88.1723 183.464 93.0279 181.416 97.1168C179.368 101.078 176.808 103.122 173.608 103.122C172.584 102.867 171.56 102.739 170.408 102.611ZM77.4801 43.8334H26.28V46.389L28.968 46.6445C31.016 47.0279 32.424 47.7945 33.32 48.9445C34.216 50.2223 34.728 52.2668 34.856 55.0779C35.8801 68.8778 35.8801 81.7835 34.856 93.6668C34.6 96.4778 34.088 98.5223 33.32 99.8001C32.424 101.078 31.016 101.845 28.968 102.1L26.28 102.483V105.039H59.3041V102.483L55.8481 102.228C55.0047 102.157 54.1844 101.917 53.4364 101.522C52.6886 101.127 52.0285 100.584 51.4961 99.9278C50.6001 98.6501 50.0881 96.6056 49.9601 93.7946C49.5761 88.6835 49.3201 82.8056 49.3201 76.289L56.2321 76.4168C59.9441 76.5446 62.5041 79.3556 63.7841 84.9779H66.344V64.1501H63.7841C62.5041 69.6446 60.0721 72.4556 56.2321 72.5834L49.3201 72.7112C49.3201 61.2112 49.5761 53.0334 49.9601 48.0501H60.0721C67.2401 48.0501 72.1041 52.6501 74.9201 61.8501L77.9921 60.9557L77.4801 43.8334ZM71.4641 83.189C71.4641 89.8334 73.3841 95.3279 77.0961 99.6723C80.8081 104.017 86.312 106.061 93.224 106.061C100.136 106.061 105.768 103.889 109.864 99.4168C113.96 95.0723 115.88 89.5779 115.88 82.9334C115.88 76.289 113.96 70.7945 110.248 66.4501C106.536 62.1056 101.032 60.0612 94.12 60.0612C87.208 60.0612 81.5761 62.2334 77.4801 66.7057C73.3841 71.0501 71.4641 76.5446 71.4641 83.189ZM100.008 68.6223C101.544 72.3278 102.184 77.1834 102.184 83.0612C102.184 96.6056 99.368 103.25 93.864 103.25C91.048 103.25 88.872 101.333 87.336 97.5001C85.8 93.6668 85.16 88.8112 85.16 83.0612C85.16 69.6446 87.976 63.0001 93.48 63.0001C96.296 62.8723 98.472 64.789 100.008 68.6223ZM208.168 99.6723C212.392 103.889 217.768 106.061 224.168 106.061C228.136 106.061 231.592 105.295 234.664 103.633C237.736 102.1 240.168 100.183 241.832 97.8834L240.552 96.3501C237.736 98.5223 234.536 99.5445 230.824 99.5445C225.704 99.5445 221.736 97.8834 219.048 94.4334C216.232 90.9834 214.952 86.639 215.208 81.0167H242.6C242.6 74.8835 241.064 69.9001 237.864 65.939C234.664 62.1056 230.184 60.189 224.424 60.189C217.256 60.189 211.752 62.489 207.784 66.9612C203.816 71.4335 201.896 76.9279 201.896 83.4446C201.896 90.089 203.944 95.4557 208.168 99.6723ZM217.64 67.6001C219.048 64.5335 220.84 63.0001 223.272 63.0001C227.112 63.0001 229.032 67.8557 229.032 77.6945L215.464 77.9501C215.592 74.1167 216.232 70.6667 217.64 67.6001ZM277.032 62.489C273.576 60.9557 269.224 60.0612 263.976 60.0612C258.6 60.0612 254.376 61.4668 251.176 64.1501C247.976 66.8334 246.312 70.1557 246.312 74.1167C246.312 77.5667 247.336 80.2501 249.256 82.1668C251.176 84.0834 254.248 85.7446 258.216 87.1501C261.8 88.4279 264.36 89.7056 265.64 90.8557C266.92 92.1335 267.688 93.539 267.688 95.4557C267.688 97.2446 267.048 98.9057 265.64 100.183C264.36 101.589 262.568 102.228 260.264 102.228C254.632 102.228 250.408 98.139 247.464 89.9612L245.288 90.6001L245.8 103.378C250.408 105.167 255.528 106.061 261.16 106.061C267.048 106.061 271.528 104.783 274.856 102.1C278.184 99.5445 279.848 95.839 279.848 91.239C279.848 88.1723 279.08 85.6168 277.416 83.7001C275.752 81.7835 273.064 80.1224 269.224 78.589C265 77.0557 262.056 75.6501 260.52 74.3723C258.984 73.0946 258.216 71.5612 258.216 69.6446C258.216 67.7279 258.728 66.1946 259.88 64.9168C261.032 63.639 262.44 63.1279 264.232 63.1279C269.352 63.1279 273.064 66.8334 275.368 74.1167L277.544 73.4779L277.032 62.489ZM153.896 61.339C152.104 60.4445 150.184 60.0612 148.008 60.0612C145.832 60.0612 143.656 60.9557 141.224 62.7446C138.792 64.5335 137 66.9612 135.592 70.2834L135.72 60.0612L116.264 63.8945V65.6834L118.184 65.8112C120.616 66.0668 122.024 67.9835 122.28 71.4335C123.048 79.3556 123.048 87.789 122.28 96.7334C122.024 100.183 120.616 101.972 118.184 102.356L116.264 102.611V105.039H143.4V102.611L139.944 102.356C137.512 102.1 136.104 100.183 135.848 96.7334C135.08 89.3223 134.952 81.4001 135.592 73.2224C136.36 71.9445 138.024 71.1779 140.584 70.9223C143.144 70.6667 146.088 71.4335 149.16 73.2224L153.896 61.339Z" fill="#33629A"/>
</g>
<defs>
<filter id="filter0_d_5202_6017" x="0" y="0" width="312" height="154" filterUnits="userSpaceOnUse" color-interpolation-filters="sRGB">
<feFlood flood-opacity="0" result="BackgroundImageFix"/>
<feColorMatrix in="SourceAlpha" type="matrix" values="0 0 0 0 0 0 0 0 0 0 0 0 0 0 0 0 0 0 127 0" result="hardAlpha"/>
<feOffset dx="5" dy="5"/>
<feComposite in2="hardAlpha" operator="out"/>
<feColorMatrix type="matrix" values="0 0 0 0 0 0 0 0 0 0 0 0 0 0 0 0 0 0 1 0"/>
<feBlend mode="normal" in2="BackgroundImageFix" result="effect1_dropShadow_5202_6017"/>
<feBlend mode="normal" in="SourceGraphic" in2="effect1_dropShadow_5202_6017" result="shape"/>
</filter>
</defs>
</svg>
