<svg width="312" height="154" viewBox="0 0 312 154" fill="none" xmlns="http://www.w3.org/2000/svg">
<g filter="url(#filter0_d_5202_6277)">
<path d="M0 20C0 8.9543 8.95431 0 20 0H287C298.046 0 307 8.9543 307 20V129C307 140.046 298.046 149 287 149H20C8.9543 149 0 140.046 0 129V20Z" fill="white"/>
<path d="M20 0.5H287C297.77 0.5 306.5 9.23045 306.5 20V129C306.5 139.77 297.77 148.5 287 148.5H20C9.23044 148.5 0.5 139.77 0.5 129V20C0.5 9.23044 9.23045 0.5 20 0.5Z" stroke="#9071FB"/>
<g clip-path="url(#clip0_5202_6277)">
<path d="M60.9962 62.2289H57.2719V94.3429H50.4365L33.7426 72.3932V87.0701H37.4671V94.2552H22V87.1577H25.7244V62.2289H22V55.0438H33.6989L49.2536 75.4162V62.1851H45.5292V55H60.9523L60.9962 62.2289ZM85.6647 80.2793C85.6647 80.8927 85.6647 81.4622 85.577 82.0756H68.7079C68.2258 87.5082 70.2852 89.1292 73.44 89.1292C76.0251 89.1292 78.0406 87.4205 78.0406 84.7481H85.3579C85.1388 89.5235 82.6851 95 73.0456 95C63.4061 95 58.893 87.9901 58.893 80.2793C58.893 73.3132 63.5376 65.9091 72.8704 65.9091C81.7212 65.8653 85.6647 72.0427 85.6647 80.2793ZM127.684 73.1818H125.23L118.965 94.299H110.64L106.74 82.7327L103.235 94.299H94.7345L87.6363 73.2257H85.1826V66.0405H99.8609V73.138H96.1366L99.9924 84.3538L105.031 65.9967H109.544L115.722 84.3538L119.052 73.138H115.328V66.0405H127.684V73.1818ZM137.981 73.4885C137.981 74.4962 138.77 75.1534 141.573 76.0734L145.561 77.3878C149.198 78.5706 153.624 81.287 153.624 86.2815C153.624 92.1085 149.242 94.9124 143.852 94.9124C139.515 94.9124 136.228 92.7656 135.264 91.8456V94.1676H128.078V84.4852H135.133C135.352 87.6835 138.2 89.3483 140.785 89.3483C142.932 89.3483 143.896 88.4282 143.896 87.3329C143.896 86.0187 143.107 85.2738 139.558 84.1347L136.053 82.9518C132.46 81.8127 128.473 79.184 128.473 74.4524C128.473 68.6693 133.599 65.7338 137.981 65.7338C142.494 65.7338 144.685 67.0044 145.823 68.2749L145.912 66.0843H152.966V74.9781H145.517C145.386 72.5684 143.064 71.517 140.741 71.517C138.813 71.517 137.981 72.3932 137.981 73.4885ZM196.651 73.1818H194.197L187.931 94.299H179.606L175.706 82.7327L172.202 94.299H163.7L156.647 73.2257H154.193V66.0405H168.871V73.138H165.147L169.002 84.3538L174.042 65.9967H178.554L184.732 84.3976L188.062 73.1818H184.338V65.9967H196.651V73.1818ZM222.678 80.2355C222.678 80.8489 222.678 81.4184 222.589 82.0317H205.721C205.238 87.4644 207.298 89.0855 210.453 89.0855C213.037 89.0855 215.054 87.3768 215.054 84.7043H222.371C222.152 89.4798 219.698 94.9562 210.058 94.9562C200.419 94.9562 195.905 87.9901 195.905 80.2793C195.905 73.3132 200.55 65.9091 209.883 65.9091C218.778 65.7777 222.678 71.9551 222.678 80.2355ZM250.544 80.1479C250.544 80.7612 250.544 81.3307 250.457 81.9441H233.587C233.106 87.3768 235.165 88.9978 238.319 88.9978C240.905 88.9978 242.92 87.2891 242.92 84.6167H250.237C250.018 89.3921 247.564 94.8686 237.925 94.8686C228.285 94.8686 223.773 87.9025 223.773 80.1917C223.773 73.2257 228.417 65.8215 237.75 65.8215C246.601 65.7338 250.544 71.9113 250.544 80.1479ZM281.128 94.2552H272.628L263.777 82.7766L260.929 84.9234V87.2015H263.47V94.2552H250.457V87.1577H252.911V62.0975H249.185V55.0438H261.016V77.563L266.932 73.2257H263.207V66.0405H279.068V73.2257H276.614L270.436 77.8696L277.535 87.1139H281.26L281.128 94.2552ZM284.896 92.6342C284.896 92.9846 284.809 93.2476 284.633 93.4227C284.502 93.6856 284.283 93.9047 284.019 94.0361C283.757 94.1676 283.494 94.299 283.143 94.299C282.792 94.299 282.53 94.2114 282.355 94.0361C282.091 93.9047 281.872 93.6856 281.741 93.4227C281.61 93.1599 281.478 92.897 281.478 92.6342C281.478 92.2836 281.565 92.0208 281.741 91.8456C281.872 91.5827 282.091 91.3636 282.355 91.2322C282.617 91.1008 282.881 90.9693 283.143 90.9693C283.494 90.9693 283.757 91.0569 284.019 91.2322C284.283 91.3636 284.502 91.5827 284.633 91.8456C284.809 92.1085 284.896 92.3713 284.896 92.6342ZM284.238 93.5542C284.502 93.2913 284.633 92.9409 284.633 92.6342C284.633 92.2399 284.502 91.977 284.238 91.7142C283.976 91.4513 283.625 91.3198 283.318 91.3198C283.011 91.3198 282.662 91.4513 282.398 91.7142C282.136 91.977 282.004 92.3275 282.004 92.6342C282.004 93.0285 282.136 93.2913 282.398 93.5542C282.662 93.817 283.011 93.9485 283.318 93.9485C283.625 93.9485 283.976 93.817 284.238 93.5542ZM283.582 92.7656C283.669 92.8532 283.712 92.8532 283.712 92.8532C283.8 92.9409 283.844 92.9846 283.844 93.0723C283.844 93.0723 283.976 93.2913 284.107 93.598H283.582C283.363 93.2476 283.318 93.0723 283.231 92.9846C283.143 92.897 283.099 92.8532 283.011 92.8532H282.924V93.598H282.53V91.8893H283.318C283.582 91.8893 283.712 91.977 283.8 92.0208C283.932 92.1522 283.932 92.2399 283.932 92.4152C283.932 92.5466 283.844 92.678 283.8 92.7656C283.757 92.6342 283.712 92.7217 283.582 92.7656ZM283.494 92.4589C283.582 92.3713 283.582 92.3275 283.582 92.2399C283.582 92.1522 283.494 92.1085 283.494 92.0208C283.406 91.9332 283.363 91.9332 283.231 91.9332H283.011V92.4152H283.231C283.363 92.5027 283.45 92.5027 283.494 92.4589ZM233.587 77.3001H242.833C242.833 73.3132 240.247 71.7361 238.319 71.7361C236.041 71.7798 233.719 73.5761 233.587 77.3001ZM205.764 77.3439H215.009C215.009 73.3571 212.424 71.7798 210.496 71.7798C208.261 71.7798 205.939 73.6199 205.764 77.3439ZM68.7079 77.4315H77.953C77.953 73.4447 75.3679 71.8675 73.44 71.8675C71.2491 71.8237 68.9269 73.7075 68.7079 77.4315Z" fill="#F72210"/>
</g>
</g>
<defs>
<filter id="filter0_d_5202_6277" x="0" y="0" width="312" height="154" filterUnits="userSpaceOnUse" color-interpolation-filters="sRGB">
<feFlood flood-opacity="0" result="BackgroundImageFix"/>
<feColorMatrix in="SourceAlpha" type="matrix" values="0 0 0 0 0 0 0 0 0 0 0 0 0 0 0 0 0 0 127 0" result="hardAlpha"/>
<feOffset dx="5" dy="5"/>
<feComposite in2="hardAlpha" operator="out"/>
<feColorMatrix type="matrix" values="0 0 0 0 0 0 0 0 0 0 0 0 0 0 0 0 0 0 1 0"/>
<feBlend mode="normal" in2="BackgroundImageFix" result="effect1_dropShadow_5202_6277"/>
<feBlend mode="normal" in="SourceGraphic" in2="effect1_dropShadow_5202_6277" result="shape"/>
</filter>
<clipPath id="clip0_5202_6277">
<rect width="263" height="40" fill="white" transform="translate(22 55)"/>
</clipPath>
</defs>
</svg>
